<ttFont>
    <TTGlyph name="A" xMin="-28" yMin="-96" xMax="1365" yMax="677">
      <contour>
        <pt x="978" y="-89" on="1"/>
        <pt x="980" y="-90" on="0"/>
        <pt x="980" y="-93" on="1"/>
        <pt x="978" y="-100" on="0"/>
        <pt x="972" y="-96" on="1"/>
        <pt x="885" y="-35" on="0"/>
        <pt x="885" y="83" on="1"/>
        <pt x="885" y="132" on="0"/>
        <pt x="924" y="243" on="0"/>
        <pt x="1024" y="399" on="0"/>
        <pt x="1118" y="513" on="0"/>
        <pt x="1205" y="612" on="0"/>
        <pt x="1207" y="616" on="1"/>
        <pt x="1219" y="634" on="0"/>
        <pt x="1223" y="612" on="1"/>
        <pt x="1224" y="605" on="0"/>
        <pt x="1224" y="587" on="0"/>
        <pt x="1219" y="580" on="1"/>
        <pt x="1157" y="504" on="0"/>
        <pt x="1099" y="408" on="1"/>
        <pt x="1002" y="246" on="0"/>
        <pt x="960" y="113" on="1"/>
        <pt x="944" y="60" on="0"/>
        <pt x="944" y="-54" on="0"/>
      </contour>
      <contour>
        <pt x="146" y="261" on="1"/>
        <pt x="310" y="329" on="0"/>
        <pt x="541" y="329" on="1"/>
        <pt x="655" y="329" on="0"/>
        <pt x="769" y="293" on="1"/>
        <pt x="796" y="321" on="0"/>
        <pt x="902" y="432" on="0"/>
        <pt x="933" y="464" on="1"/>
        <pt x="1023" y="557" on="0"/>
        <pt x="1080" y="601" on="1"/>
        <pt x="1176" y="676" on="0"/>
        <pt x="1256" y="676" on="1"/>
        <pt x="1292" y="676" on="0"/>
        <pt x="1352" y="653" on="0"/>
        <pt x="1364" y="640" on="0"/>
        <pt x="1364" y="638" on="0"/>
        <pt x="1360" y="633" on="0"/>
        <pt x="1356" y="638" on="1"/>
        <pt x="1337" y="656" on="0"/>
        <pt x="1282" y="656" on="1"/>
        <pt x="1189" y="656" on="0"/>
        <pt x="1086" y="575" on="1"/>
        <pt x="1012" y="515" on="0"/>
        <pt x="914" y="416" on="0"/>
        <pt x="807" y="305" on="0"/>
        <pt x="788" y="286" on="1"/>
        <pt x="888" y="249" on="0"/>
        <pt x="897" y="189" on="1"/>
        <pt x="898" y="183" on="0"/>
        <pt x="895" y="179" on="0"/>
        <pt x="890" y="183" on="0"/>
        <pt x="889" y="187" on="1"/>
        <pt x="881" y="206" on="0"/>
        <pt x="833" y="217" on="1"/>
        <pt x="790" y="227" on="0"/>
        <pt x="734" y="232" on="1"/>
        <pt x="531" y="36" on="0"/>
        <pt x="375" y="-17" on="1"/>
        <pt x="290" y="-47" on="0"/>
        <pt x="214" y="-47" on="1"/>
        <pt x="78" y="-47" on="0"/>
        <pt x="-27" y="34" on="0"/>
        <pt x="-27" y="83" on="1"/>
        <pt x="-27" y="102" on="0"/>
        <pt x="-20" y="122" on="1"/>
        <pt x="10" y="204" on="0"/>
      </contour>
      <contour>
        <pt x="647" y="236" on="1"/>
        <pt x="514" y="236" on="0"/>
        <pt x="367" y="208" on="1"/>
        <pt x="141" y="168" on="0"/>
        <pt x="73" y="89" on="1"/>
        <pt x="52" y="64" on="0"/>
        <pt x="52" y="42" on="1"/>
        <pt x="52" y="16" on="0"/>
        <pt x="80" y="-5" on="1"/>
        <pt x="113" y="-30" on="0"/>
        <pt x="276" y="-30" on="0"/>
        <pt x="371" y="-3" on="1"/>
        <pt x="513" y="41" on="0"/>
        <pt x="709" y="234" on="1"/>
        <pt x="678" y="236" on="0"/>
      </contour>
    </TTGlyph>
    <TTGlyph name="AE" xMin="-54" yMin="-90" xMax="1788" yMax="677">
      <contour>
        <pt x="1053" y="278" on="1"/>
        <pt x="947" y="172" on="0"/>
        <pt x="947" y="91" on="1"/>
        <pt x="947" y="51" on="0"/>
        <pt x="970" y="19" on="1"/>
        <pt x="1012" y="-36" on="0"/>
        <pt x="1142" y="-46" on="1"/>
        <pt x="1156" y="-48" on="0"/>
        <pt x="1218" y="-48" on="0"/>
        <pt x="1275" y="-36" on="1"/>
        <pt x="1423" y="-10" on="0"/>
        <pt x="1707" y="142" on="0"/>
        <pt x="1774" y="240" on="1"/>
        <pt x="1787" y="258" on="0"/>
        <pt x="1787" y="249" on="1"/>
        <pt x="1787" y="246" on="0"/>
        <pt x="1785" y="238" on="1"/>
        <pt x="1758" y="162" on="0"/>
        <pt x="1446" y="-43" on="0"/>
        <pt x="1286" y="-77" on="1"/>
        <pt x="1220" y="-90" on="0"/>
        <pt x="1140" y="-90" on="0"/>
        <pt x="1118" y="-88" on="1"/>
        <pt x="1045" y="-80" on="0"/>
        <pt x="998" y="-46" on="1"/>
        <pt x="916" y="13" on="0"/>
        <pt x="916" y="190" on="0"/>
        <pt x="971" y="277" on="1"/>
        <pt x="888" y="274" on="0"/>
        <pt x="768" y="266" on="1"/>
        <pt x="661" y="159" on="0"/>
        <pt x="568" y="88" on="1"/>
        <pt x="390" y="-47" on="0"/>
        <pt x="195" y="-47" on="1"/>
        <pt x="78" y="-47" on="0"/>
        <pt x="23" y="-5" on="1"/>
        <pt x="-54" y="55" on="0"/>
        <pt x="-54" y="111" on="1"/>
        <pt x="-54" y="273" on="0"/>
        <pt x="534" y="330" on="1"/>
        <pt x="687" y="344" on="0"/>
        <pt x="823" y="350" on="1"/>
        <pt x="832" y="359" on="0"/>
        <pt x="890" y="420" on="0"/>
        <pt x="912" y="443" on="0"/>
        <pt x="962" y="494" on="0"/>
        <pt x="990" y="521" on="0"/>
        <pt x="1011" y="540" on="1"/>
        <pt x="1043" y="570" on="0"/>
        <pt x="1130" y="640" on="0"/>
        <pt x="1226" y="677" on="0"/>
        <pt x="1259" y="677" on="1"/>
        <pt x="1292" y="677" on="0"/>
        <pt x="1323" y="670" on="1"/>
        <pt x="1350" y="662" on="0"/>
        <pt x="1390" y="625" on="0"/>
        <pt x="1397" y="598" on="1"/>
        <pt x="1495" y="633" on="0"/>
        <pt x="1590" y="633" on="1"/>
        <pt x="1647" y="633" on="0"/>
        <pt x="1688" y="606" on="1"/>
        <pt x="1732" y="578" on="0"/>
        <pt x="1732" y="524" on="1"/>
        <pt x="1732" y="488" on="0"/>
        <pt x="1712" y="450" on="1"/>
        <pt x="1706" y="437" on="0"/>
        <pt x="1702" y="449" on="0"/>
        <pt x="1713" y="475" on="0"/>
        <pt x="1713" y="491" on="1"/>
        <pt x="1713" y="537" on="0"/>
        <pt x="1630" y="537" on="1"/>
        <pt x="1527" y="537" on="0"/>
        <pt x="1355" y="465" on="1"/>
        <pt x="1232" y="414" on="0"/>
        <pt x="1140" y="350" on="1"/>
        <pt x="1200" y="347" on="0"/>
        <pt x="1268" y="339" on="1"/>
        <pt x="1499" y="312" on="0"/>
        <pt x="1499" y="253" on="1"/>
        <pt x="1499" y="235" on="0"/>
        <pt x="1465" y="202" on="0"/>
        <pt x="1460" y="207" on="1"/>
        <pt x="1458" y="209" on="0"/>
        <pt x="1461" y="215" on="0"/>
        <pt x="1461" y="217" on="1"/>
        <pt x="1461" y="236" on="0"/>
        <pt x="1268" y="272" on="0"/>
        <pt x="1128" y="278" on="0"/>
      </contour>
      <contour>
        <pt x="1379" y="591" on="1"/>
        <pt x="1365" y="656" on="0"/>
        <pt x="1189" y="656" on="0"/>
        <pt x="1003" y="509" on="0"/>
        <pt x="851" y="351" on="1"/>
        <pt x="913" y="354" on="0"/>
        <pt x="1031" y="354" on="1"/>
        <pt x="1035" y="358" on="1"/>
        <pt x="1102" y="431" on="0"/>
        <pt x="1288" y="553" on="0"/>
      </contour>
      <contour>
        <pt x="31" y="69" on="1"/>
        <pt x="31" y="32" on="0"/>
        <pt x="80" y="-5" on="1"/>
        <pt x="113" y="-30" on="0"/>
        <pt x="276" y="-30" on="0"/>
        <pt x="371" y="-3" on="1"/>
        <pt x="523" y="44" on="0"/>
        <pt x="739" y="264" on="1"/>
        <pt x="603" y="252" on="0"/>
        <pt x="556" y="247" on="1"/>
        <pt x="31" y="197" on="0"/>
      </contour>
    </TTGlyph>
    <TTGlyph name="Aacute" xMin="-28" yMin="-96" xMax="1454" yMax="883">
      <contour>
        <pt x="1452" y="854" on="1"/>
        <pt x="1454" y="851" on="0"/>
        <pt x="1454" y="836" on="0"/>
        <pt x="1409" y="798" on="0"/>
        <pt x="1301" y="759" on="0"/>
        <pt x="1212" y="756" on="0"/>
        <pt x="1210" y="763" on="1"/>
        <pt x="1209" y="769" on="0"/>
        <pt x="1226" y="770" on="1"/>
        <pt x="1278" y="774" on="0"/>
        <pt x="1394" y="848" on="0"/>
        <pt x="1394" y="871" on="1"/>
        <pt x="1394" y="875" on="0"/>
        <pt x="1390" y="882" on="0"/>
        <pt x="1397" y="882" on="0"/>
        <pt x="1436" y="869" on="0"/>
      </contour>
      <contour>
        <pt x="978" y="-89" on="1"/>
        <pt x="980" y="-90" on="0"/>
        <pt x="980" y="-93" on="1"/>
        <pt x="978" y="-100" on="0"/>
        <pt x="972" y="-96" on="1"/>
        <pt x="885" y="-35" on="0"/>
        <pt x="885" y="83" on="1"/>
        <pt x="885" y="132" on="0"/>
        <pt x="924" y="243" on="0"/>
        <pt x="1024" y="399" on="0"/>
        <pt x="1118" y="513" on="0"/>
        <pt x="1205" y="612" on="0"/>
        <pt x="1207" y="616" on="1"/>
        <pt x="1219" y="634" on="0"/>
        <pt x="1223" y="612" on="1"/>
        <pt x="1224" y="605" on="0"/>
        <pt x="1224" y="587" on="0"/>
        <pt x="1219" y="580" on="1"/>
        <pt x="1157" y="504" on="0"/>
        <pt x="1099" y="408" on="1"/>
        <pt x="1002" y="246" on="0"/>
        <pt x="960" y="113" on="1"/>
        <pt x="944" y="60" on="0"/>
        <pt x="944" y="-54" on="0"/>
      </contour>
      <contour>
        <pt x="146" y="261" on="1"/>
        <pt x="310" y="329" on="0"/>
        <pt x="541" y="329" on="1"/>
        <pt x="655" y="329" on="0"/>
        <pt x="769" y="293" on="1"/>
        <pt x="796" y="321" on="0"/>
        <pt x="902" y="432" on="0"/>
        <pt x="933" y="464" on="1"/>
        <pt x="1023" y="557" on="0"/>
        <pt x="1080" y="601" on="1"/>
        <pt x="1176" y="676" on="0"/>
        <pt x="1256" y="676" on="1"/>
        <pt x="1292" y="676" on="0"/>
        <pt x="1352" y="653" on="0"/>
        <pt x="1364" y="640" on="0"/>
        <pt x="1364" y="638" on="0"/>
        <pt x="1360" y="633" on="0"/>
        <pt x="1356" y="638" on="1"/>
        <pt x="1337" y="656" on="0"/>
        <pt x="1282" y="656" on="1"/>
        <pt x="1189" y="656" on="0"/>
        <pt x="1086" y="575" on="1"/>
        <pt x="1012" y="515" on="0"/>
        <pt x="914" y="416" on="0"/>
        <pt x="807" y="305" on="0"/>
        <pt x="788" y="286" on="1"/>
        <pt x="888" y="249" on="0"/>
        <pt x="897" y="189" on="1"/>
        <pt x="898" y="183" on="0"/>
        <pt x="895" y="179" on="0"/>
        <pt x="890" y="183" on="0"/>
        <pt x="889" y="187" on="1"/>
        <pt x="881" y="206" on="0"/>
        <pt x="833" y="217" on="1"/>
        <pt x="790" y="227" on="0"/>
        <pt x="734" y="232" on="1"/>
        <pt x="531" y="36" on="0"/>
        <pt x="375" y="-17" on="1"/>
        <pt x="290" y="-47" on="0"/>
        <pt x="214" y="-47" on="1"/>
        <pt x="78" y="-47" on="0"/>
        <pt x="-27" y="34" on="0"/>
        <pt x="-27" y="83" on="1"/>
        <pt x="-27" y="102" on="0"/>
        <pt x="-20" y="122" on="1"/>
        <pt x="10" y="204" on="0"/>
      </contour>
      <contour>
        <pt x="647" y="236" on="1"/>
        <pt x="514" y="236" on="0"/>
        <pt x="367" y="208" on="1"/>
        <pt x="141" y="168" on="0"/>
        <pt x="73" y="89" on="1"/>
        <pt x="52" y="64" on="0"/>
        <pt x="52" y="42" on="1"/>
        <pt x="52" y="16" on="0"/>
        <pt x="80" y="-5" on="1"/>
        <pt x="113" y="-30" on="0"/>
        <pt x="276" y="-30" on="0"/>
        <pt x="371" y="-3" on="1"/>
        <pt x="513" y="41" on="0"/>
        <pt x="709" y="234" on="1"/>
        <pt x="678" y="236" on="0"/>
      </contour>
    </TTGlyph>
    <TTGlyph name="Acircumflex" xMin="-28" yMin="-96" xMax="1437" yMax="900">
      <contour>
        <pt x="146" y="261" on="1"/>
        <pt x="310" y="329" on="0"/>
        <pt x="541" y="329" on="1"/>
        <pt x="655" y="329" on="0"/>
        <pt x="769" y="293" on="1"/>
        <pt x="796" y="321" on="0"/>
        <pt x="902" y="432" on="0"/>
        <pt x="933" y="464" on="1"/>
        <pt x="1023" y="557" on="0"/>
        <pt x="1080" y="601" on="1"/>
        <pt x="1176" y="676" on="0"/>
        <pt x="1256" y="676" on="1"/>
        <pt x="1292" y="676" on="0"/>
        <pt x="1352" y="653" on="0"/>
        <pt x="1366" y="639" on="0"/>
        <pt x="1360" y="633" on="0"/>
        <pt x="1356" y="638" on="1"/>
        <pt x="1337" y="656" on="0"/>
        <pt x="1282" y="656" on="1"/>
        <pt x="1189" y="656" on="0"/>
        <pt x="1086" y="575" on="1"/>
        <pt x="1012" y="515" on="0"/>
        <pt x="914" y="416" on="0"/>
        <pt x="807" y="305" on="0"/>
        <pt x="788" y="286" on="1"/>
        <pt x="888" y="249" on="0"/>
        <pt x="897" y="189" on="1"/>
        <pt x="898" y="183" on="0"/>
        <pt x="895" y="179" on="0"/>
        <pt x="890" y="183" on="0"/>
        <pt x="889" y="187" on="1"/>
        <pt x="881" y="206" on="0"/>
        <pt x="833" y="217" on="1"/>
        <pt x="790" y="227" on="0"/>
        <pt x="734" y="232" on="1"/>
        <pt x="531" y="36" on="0"/>
        <pt x="375" y="-17" on="1"/>
        <pt x="290" y="-47" on="0"/>
        <pt x="214" y="-47" on="1"/>
        <pt x="78" y="-47" on="0"/>
        <pt x="-27" y="34" on="0"/>
        <pt x="-27" y="83" on="1"/>
        <pt x="-27" y="102" on="0"/>
        <pt x="-20" y="122" on="1"/>
        <pt x="10" y="204" on="0"/>
      </contour>
      <contour>
        <pt x="647" y="236" on="1"/>
        <pt x="514" y="236" on="0"/>
        <pt x="367" y="208" on="1"/>
        <pt x="141" y="168" on="0"/>
        <pt x="73" y="89" on="1"/>
        <pt x="52" y="64" on="0"/>
        <pt x="52" y="42" on="1"/>
        <pt x="52" y="16" on="0"/>
        <pt x="80" y="-5" on="1"/>
        <pt x="113" y="-30" on="0"/>
        <pt x="276" y="-30" on="0"/>
        <pt x="371" y="-3" on="1"/>
        <pt x="513" y="41" on="0"/>
        <pt x="709" y="234" on="1"/>
        <pt x="678" y="236" on="0"/>
      </contour>
      <contour>
        <pt x="978" y="-89" on="1"/>
        <pt x="980" y="-90" on="0"/>
        <pt x="980" y="-93" on="1"/>
        <pt x="978" y="-100" on="0"/>
        <pt x="972" y="-96" on="1"/>
        <pt x="885" y="-35" on="0"/>
        <pt x="885" y="83" on="1"/>
        <pt x="885" y="132" on="0"/>
        <pt x="924" y="243" on="0"/>
        <pt x="1024" y="399" on="0"/>
        <pt x="1118" y="513" on="0"/>
        <pt x="1205" y="612" on="0"/>
        <pt x="1207" y="616" on="1"/>
        <pt x="1219" y="634" on="0"/>
        <pt x="1223" y="612" on="1"/>
        <pt x="1224" y="605" on="0"/>
        <pt x="1224" y="587" on="0"/>
        <pt x="1219" y="580" on="1"/>
        <pt x="1157" y="504" on="0"/>
        <pt x="1099" y="408" on="1"/>
        <pt x="1002" y="246" on="0"/>
        <pt x="960" y="113" on="1"/>
        <pt x="944" y="60" on="0"/>
        <pt x="944" y="-54" on="0"/>
      </contour>
      <contour>
        <pt x="1418" y="768" on="1"/>
        <pt x="1421" y="768" on="0"/>
        <pt x="1436" y="770" on="0"/>
        <pt x="1436" y="766" on="1"/>
        <pt x="1436" y="761" on="0"/>
        <pt x="1398" y="750" on="0"/>
        <pt x="1353" y="750" on="0"/>
        <pt x="1333" y="764" on="1"/>
        <pt x="1301" y="785" on="0"/>
        <pt x="1301" y="818" on="1"/>
        <pt x="1229" y="759" on="0"/>
        <pt x="1171" y="759" on="1"/>
        <pt x="1161" y="759" on="0"/>
        <pt x="1161" y="765" on="0"/>
        <pt x="1165" y="771" on="1"/>
        <pt x="1169" y="777" on="0"/>
        <pt x="1198" y="777" on="0"/>
        <pt x="1275" y="817" on="0"/>
        <pt x="1310" y="846" on="1"/>
        <pt x="1323" y="864" on="0"/>
        <pt x="1366" y="899" on="0"/>
        <pt x="1370" y="899" on="0"/>
        <pt x="1357" y="874" on="0"/>
        <pt x="1357" y="859" on="1"/>
        <pt x="1357" y="813" on="0"/>
        <pt x="1400" y="768" on="0"/>
      </contour>
    </TTGlyph>
    <TTGlyph name="Adieresis" xMin="-28" yMin="-96" xMax="1389" yMax="823">
      <contour>
        <pt x="1312" y="760" on="0"/>
        <pt x="1316" y="789" on="0"/>
        <pt x="1346" y="822" on="0"/>
        <pt x="1367" y="822" on="1"/>
        <pt x="1374" y="822" on="0"/>
        <pt x="1389" y="810" on="0"/>
        <pt x="1389" y="780" on="0"/>
        <pt x="1363" y="751" on="0"/>
        <pt x="1332" y="744" on="0"/>
      </contour>
      <contour>
        <pt x="1190" y="760" on="0"/>
        <pt x="1194" y="789" on="0"/>
        <pt x="1224" y="822" on="0"/>
        <pt x="1246" y="822" on="1"/>
        <pt x="1252" y="822" on="0"/>
        <pt x="1268" y="809" on="0"/>
        <pt x="1265" y="778" on="0"/>
        <pt x="1241" y="751" on="0"/>
        <pt x="1210" y="744" on="0"/>
      </contour>
      <contour>
        <pt x="978" y="-89" on="1"/>
        <pt x="980" y="-90" on="0"/>
        <pt x="980" y="-93" on="1"/>
        <pt x="978" y="-100" on="0"/>
        <pt x="972" y="-96" on="1"/>
        <pt x="885" y="-35" on="0"/>
        <pt x="885" y="83" on="1"/>
        <pt x="885" y="132" on="0"/>
        <pt x="924" y="243" on="0"/>
        <pt x="1024" y="399" on="0"/>
        <pt x="1118" y="513" on="0"/>
        <pt x="1205" y="612" on="0"/>
        <pt x="1207" y="616" on="1"/>
        <pt x="1219" y="634" on="0"/>
        <pt x="1223" y="612" on="1"/>
        <pt x="1224" y="605" on="0"/>
        <pt x="1224" y="587" on="0"/>
        <pt x="1219" y="580" on="1"/>
        <pt x="1157" y="504" on="0"/>
        <pt x="1099" y="408" on="1"/>
        <pt x="1002" y="246" on="0"/>
        <pt x="960" y="113" on="1"/>
        <pt x="944" y="60" on="0"/>
        <pt x="944" y="-54" on="0"/>
      </contour>
      <contour>
        <pt x="146" y="261" on="1"/>
        <pt x="310" y="329" on="0"/>
        <pt x="541" y="329" on="1"/>
        <pt x="655" y="329" on="0"/>
        <pt x="769" y="293" on="1"/>
        <pt x="796" y="321" on="0"/>
        <pt x="902" y="432" on="0"/>
        <pt x="933" y="464" on="1"/>
        <pt x="1023" y="557" on="0"/>
        <pt x="1080" y="601" on="1"/>
        <pt x="1176" y="676" on="0"/>
        <pt x="1256" y="676" on="1"/>
        <pt x="1292" y="676" on="0"/>
        <pt x="1352" y="653" on="0"/>
        <pt x="1364" y="640" on="0"/>
        <pt x="1364" y="638" on="0"/>
        <pt x="1360" y="633" on="0"/>
        <pt x="1356" y="638" on="1"/>
        <pt x="1337" y="656" on="0"/>
        <pt x="1282" y="656" on="1"/>
        <pt x="1189" y="656" on="0"/>
        <pt x="1086" y="575" on="1"/>
        <pt x="1012" y="515" on="0"/>
        <pt x="914" y="416" on="0"/>
        <pt x="807" y="305" on="0"/>
        <pt x="788" y="286" on="1"/>
        <pt x="888" y="249" on="0"/>
        <pt x="897" y="189" on="1"/>
        <pt x="898" y="183" on="0"/>
        <pt x="895" y="179" on="0"/>
        <pt x="890" y="183" on="0"/>
        <pt x="889" y="187" on="1"/>
        <pt x="881" y="206" on="0"/>
        <pt x="833" y="217" on="1"/>
        <pt x="790" y="227" on="0"/>
        <pt x="734" y="232" on="1"/>
        <pt x="531" y="36" on="0"/>
        <pt x="375" y="-17" on="1"/>
        <pt x="290" y="-47" on="0"/>
        <pt x="214" y="-47" on="1"/>
        <pt x="78" y="-47" on="0"/>
        <pt x="-27" y="34" on="0"/>
        <pt x="-27" y="83" on="1"/>
        <pt x="-27" y="102" on="0"/>
        <pt x="-20" y="122" on="1"/>
        <pt x="10" y="204" on="0"/>
      </contour>
      <contour>
        <pt x="647" y="236" on="1"/>
        <pt x="514" y="236" on="0"/>
        <pt x="367" y="208" on="1"/>
        <pt x="141" y="168" on="0"/>
        <pt x="73" y="89" on="1"/>
        <pt x="52" y="64" on="0"/>
        <pt x="52" y="42" on="1"/>
        <pt x="52" y="16" on="0"/>
        <pt x="80" y="-5" on="1"/>
        <pt x="113" y="-30" on="0"/>
        <pt x="276" y="-30" on="0"/>
        <pt x="371" y="-3" on="1"/>
        <pt x="513" y="41" on="0"/>
        <pt x="709" y="234" on="1"/>
        <pt x="678" y="236" on="0"/>
      </contour>
    </TTGlyph>
    <TTGlyph name="Agrave" xMin="-28" yMin="-96" xMax="1365" yMax="884">
      <contour>
        <pt x="1281" y="770" on="0"/>
        <pt x="1190" y="811" on="0"/>
        <pt x="1157" y="847" on="0"/>
        <pt x="1157" y="861" on="0"/>
        <pt x="1165" y="873" on="0"/>
        <pt x="1208" y="884" on="0"/>
        <pt x="1215" y="884" on="0"/>
        <pt x="1215" y="881" on="1"/>
        <pt x="1212" y="876" on="0"/>
        <pt x="1212" y="871" on="1"/>
        <pt x="1212" y="851" on="0"/>
        <pt x="1302" y="781" on="0"/>
        <pt x="1348" y="774" on="1"/>
        <pt x="1360" y="772" on="0"/>
        <pt x="1361" y="768" on="1"/>
        <pt x="1363" y="760" on="0"/>
      </contour>
      <contour>
        <pt x="978" y="-89" on="1"/>
        <pt x="980" y="-90" on="0"/>
        <pt x="980" y="-93" on="1"/>
        <pt x="978" y="-100" on="0"/>
        <pt x="972" y="-96" on="1"/>
        <pt x="885" y="-35" on="0"/>
        <pt x="885" y="83" on="1"/>
        <pt x="885" y="132" on="0"/>
        <pt x="924" y="243" on="0"/>
        <pt x="1024" y="399" on="0"/>
        <pt x="1118" y="513" on="0"/>
        <pt x="1205" y="612" on="0"/>
        <pt x="1207" y="616" on="1"/>
        <pt x="1219" y="634" on="0"/>
        <pt x="1223" y="612" on="1"/>
        <pt x="1224" y="605" on="0"/>
        <pt x="1224" y="587" on="0"/>
        <pt x="1219" y="580" on="1"/>
        <pt x="1157" y="504" on="0"/>
        <pt x="1099" y="408" on="1"/>
        <pt x="1002" y="246" on="0"/>
        <pt x="960" y="113" on="1"/>
        <pt x="944" y="60" on="0"/>
        <pt x="944" y="-54" on="0"/>
      </contour>
      <contour>
        <pt x="146" y="261" on="1"/>
        <pt x="310" y="329" on="0"/>
        <pt x="541" y="329" on="1"/>
        <pt x="655" y="329" on="0"/>
        <pt x="769" y="293" on="1"/>
        <pt x="796" y="321" on="0"/>
        <pt x="902" y="432" on="0"/>
        <pt x="933" y="464" on="1"/>
        <pt x="1023" y="557" on="0"/>
        <pt x="1080" y="601" on="1"/>
        <pt x="1176" y="676" on="0"/>
        <pt x="1256" y="676" on="1"/>
        <pt x="1292" y="676" on="0"/>
        <pt x="1352" y="653" on="0"/>
        <pt x="1364" y="640" on="0"/>
        <pt x="1364" y="638" on="0"/>
        <pt x="1360" y="633" on="0"/>
        <pt x="1356" y="638" on="1"/>
        <pt x="1337" y="656" on="0"/>
        <pt x="1282" y="656" on="1"/>
        <pt x="1189" y="656" on="0"/>
        <pt x="1086" y="575" on="1"/>
        <pt x="1012" y="515" on="0"/>
        <pt x="914" y="416" on="0"/>
        <pt x="807" y="305" on="0"/>
        <pt x="788" y="286" on="1"/>
        <pt x="888" y="249" on="0"/>
        <pt x="897" y="189" on="1"/>
        <pt x="898" y="183" on="0"/>
        <pt x="895" y="179" on="0"/>
        <pt x="890" y="183" on="0"/>
        <pt x="889" y="187" on="1"/>
        <pt x="881" y="206" on="0"/>
        <pt x="833" y="217" on="1"/>
        <pt x="790" y="227" on="0"/>
        <pt x="734" y="232" on="1"/>
        <pt x="531" y="36" on="0"/>
        <pt x="375" y="-17" on="1"/>
        <pt x="290" y="-47" on="0"/>
        <pt x="214" y="-47" on="1"/>
        <pt x="78" y="-47" on="0"/>
        <pt x="-27" y="34" on="0"/>
        <pt x="-27" y="83" on="1"/>
        <pt x="-27" y="102" on="0"/>
        <pt x="-20" y="122" on="1"/>
        <pt x="10" y="204" on="0"/>
      </contour>
      <contour>
        <pt x="647" y="236" on="1"/>
        <pt x="514" y="236" on="0"/>
        <pt x="367" y="208" on="1"/>
        <pt x="141" y="168" on="0"/>
        <pt x="73" y="89" on="1"/>
        <pt x="52" y="64" on="0"/>
        <pt x="52" y="42" on="1"/>
        <pt x="52" y="16" on="0"/>
        <pt x="80" y="-5" on="1"/>
        <pt x="113" y="-30" on="0"/>
        <pt x="276" y="-30" on="0"/>
        <pt x="371" y="-3" on="1"/>
        <pt x="513" y="41" on="0"/>
        <pt x="709" y="234" on="1"/>
        <pt x="678" y="236" on="0"/>
      </contour>
    </TTGlyph>
    <TTGlyph name="Aring" xMin="-28" yMin="-96" xMax="1405" yMax="822">
      <contour>
        <pt x="978" y="-89" on="1"/>
        <pt x="980" y="-90" on="0"/>
        <pt x="980" y="-93" on="1"/>
        <pt x="978" y="-100" on="0"/>
        <pt x="972" y="-96" on="1"/>
        <pt x="885" y="-35" on="0"/>
        <pt x="885" y="83" on="1"/>
        <pt x="885" y="132" on="0"/>
        <pt x="924" y="243" on="0"/>
        <pt x="1024" y="399" on="0"/>
        <pt x="1118" y="513" on="0"/>
        <pt x="1205" y="612" on="0"/>
        <pt x="1207" y="616" on="1"/>
        <pt x="1219" y="634" on="0"/>
        <pt x="1223" y="612" on="1"/>
        <pt x="1224" y="605" on="0"/>
        <pt x="1224" y="587" on="0"/>
        <pt x="1219" y="580" on="1"/>
        <pt x="1157" y="504" on="0"/>
        <pt x="1099" y="408" on="1"/>
        <pt x="1002" y="246" on="0"/>
        <pt x="960" y="113" on="1"/>
        <pt x="944" y="60" on="0"/>
        <pt x="944" y="-54" on="0"/>
      </contour>
      <contour>
        <pt x="146" y="261" on="1"/>
        <pt x="310" y="329" on="0"/>
        <pt x="541" y="329" on="1"/>
        <pt x="655" y="329" on="0"/>
        <pt x="769" y="293" on="1"/>
        <pt x="796" y="321" on="0"/>
        <pt x="902" y="432" on="0"/>
        <pt x="933" y="464" on="1"/>
        <pt x="1023" y="557" on="0"/>
        <pt x="1142" y="650" on="0"/>
        <pt x="1203" y="667" on="1"/>
        <pt x="1201" y="676" on="0"/>
        <pt x="1201" y="692" on="0"/>
        <pt x="1207" y="721" on="0"/>
        <pt x="1250" y="776" on="0"/>
        <pt x="1272" y="794" on="1"/>
        <pt x="1305" y="822" on="0"/>
        <pt x="1345" y="822" on="1"/>
        <pt x="1380" y="815" on="1"/>
        <pt x="1405" y="804" on="0"/>
        <pt x="1405" y="739" on="0"/>
        <pt x="1370" y="702" on="1"/>
        <pt x="1352" y="682" on="0"/>
        <pt x="1321" y="666" on="1"/>
        <pt x="1350" y="655" on="0"/>
        <pt x="1366" y="639" on="0"/>
        <pt x="1360" y="633" on="0"/>
        <pt x="1357" y="636" on="1"/>
        <pt x="1344" y="651" on="0"/>
        <pt x="1299" y="655" on="1"/>
        <pt x="1267" y="641" on="0"/>
        <pt x="1230" y="641" on="0"/>
        <pt x="1220" y="646" on="1"/>
        <pt x="1156" y="630" on="0"/>
        <pt x="1086" y="575" on="1"/>
        <pt x="1012" y="515" on="0"/>
        <pt x="914" y="416" on="0"/>
        <pt x="807" y="305" on="0"/>
        <pt x="788" y="286" on="1"/>
        <pt x="888" y="249" on="0"/>
        <pt x="897" y="189" on="1"/>
        <pt x="898" y="183" on="0"/>
        <pt x="895" y="179" on="0"/>
        <pt x="890" y="183" on="0"/>
        <pt x="889" y="187" on="1"/>
        <pt x="881" y="206" on="0"/>
        <pt x="833" y="217" on="1"/>
        <pt x="790" y="227" on="0"/>
        <pt x="734" y="232" on="1"/>
        <pt x="531" y="36" on="0"/>
        <pt x="375" y="-17" on="1"/>
        <pt x="290" y="-47" on="0"/>
        <pt x="214" y="-47" on="1"/>
        <pt x="78" y="-47" on="0"/>
        <pt x="-27" y="34" on="0"/>
        <pt x="-27" y="83" on="1"/>
        <pt x="-27" y="102" on="0"/>
        <pt x="-20" y="122" on="1"/>
        <pt x="10" y="204" on="0"/>
      </contour>
      <contour>
        <pt x="1317" y="781" on="1"/>
        <pt x="1299" y="781" on="0"/>
        <pt x="1250" y="751" on="0"/>
        <pt x="1222" y="700" on="0"/>
        <pt x="1222" y="678" on="0"/>
        <pt x="1225" y="672" on="1"/>
        <pt x="1244" y="675" on="0"/>
        <pt x="1264" y="675" on="1"/>
        <pt x="1287" y="674" on="1"/>
        <pt x="1307" y="685" on="0"/>
        <pt x="1324" y="703" on="1"/>
        <pt x="1350" y="732" on="0"/>
        <pt x="1350" y="781" on="0"/>
      </contour>
      <contour>
        <pt x="647" y="236" on="1"/>
        <pt x="514" y="236" on="0"/>
        <pt x="367" y="208" on="1"/>
        <pt x="141" y="168" on="0"/>
        <pt x="73" y="89" on="1"/>
        <pt x="52" y="64" on="0"/>
        <pt x="52" y="42" on="1"/>
        <pt x="52" y="16" on="0"/>
        <pt x="80" y="-5" on="1"/>
        <pt x="113" y="-30" on="0"/>
        <pt x="276" y="-30" on="0"/>
        <pt x="371" y="-3" on="1"/>
        <pt x="513" y="41" on="0"/>
        <pt x="709" y="234" on="1"/>
        <pt x="678" y="236" on="0"/>
      </contour>
    </TTGlyph>
    <TTGlyph name="Atilde" xMin="-28" yMin="-96" xMax="1427" yMax="822">
      <contour>
        <pt x="1416" y="818" on="1"/>
        <pt x="1427" y="815" on="0"/>
        <pt x="1427" y="804" on="1"/>
        <pt x="1427" y="790" on="0"/>
        <pt x="1406" y="773" on="1"/>
        <pt x="1370" y="746" on="0"/>
        <pt x="1314" y="746" on="0"/>
        <pt x="1285" y="765" on="0"/>
        <pt x="1267" y="778" on="1"/>
        <pt x="1247" y="792" on="0"/>
        <pt x="1235" y="792" on="1"/>
        <pt x="1212" y="792" on="0"/>
        <pt x="1181" y="761" on="1"/>
        <pt x="1173" y="752" on="0"/>
        <pt x="1169" y="757" on="1"/>
        <pt x="1167" y="761" on="0"/>
        <pt x="1172" y="766" on="1"/>
        <pt x="1231" y="822" on="0"/>
        <pt x="1309" y="822" on="0"/>
        <pt x="1362" y="792" on="0"/>
        <pt x="1378" y="792" on="1"/>
        <pt x="1405" y="792" on="0"/>
      </contour>
      <contour>
        <pt x="978" y="-89" on="1"/>
        <pt x="980" y="-90" on="0"/>
        <pt x="980" y="-93" on="1"/>
        <pt x="978" y="-100" on="0"/>
        <pt x="972" y="-96" on="1"/>
        <pt x="885" y="-35" on="0"/>
        <pt x="885" y="83" on="1"/>
        <pt x="885" y="132" on="0"/>
        <pt x="924" y="243" on="0"/>
        <pt x="1024" y="399" on="0"/>
        <pt x="1118" y="513" on="0"/>
        <pt x="1205" y="612" on="0"/>
        <pt x="1207" y="616" on="1"/>
        <pt x="1219" y="634" on="0"/>
        <pt x="1223" y="612" on="1"/>
        <pt x="1224" y="605" on="0"/>
        <pt x="1224" y="587" on="0"/>
        <pt x="1219" y="580" on="1"/>
        <pt x="1157" y="504" on="0"/>
        <pt x="1099" y="408" on="1"/>
        <pt x="1002" y="246" on="0"/>
        <pt x="960" y="113" on="1"/>
        <pt x="944" y="60" on="0"/>
        <pt x="944" y="-54" on="0"/>
      </contour>
      <contour>
        <pt x="146" y="261" on="1"/>
        <pt x="310" y="329" on="0"/>
        <pt x="541" y="329" on="1"/>
        <pt x="655" y="329" on="0"/>
        <pt x="769" y="293" on="1"/>
        <pt x="796" y="321" on="0"/>
        <pt x="902" y="432" on="0"/>
        <pt x="933" y="464" on="1"/>
        <pt x="1023" y="557" on="0"/>
        <pt x="1080" y="601" on="1"/>
        <pt x="1176" y="676" on="0"/>
        <pt x="1256" y="676" on="1"/>
        <pt x="1292" y="676" on="0"/>
        <pt x="1352" y="653" on="0"/>
        <pt x="1364" y="640" on="0"/>
        <pt x="1364" y="638" on="0"/>
        <pt x="1360" y="633" on="0"/>
        <pt x="1356" y="638" on="1"/>
        <pt x="1337" y="656" on="0"/>
        <pt x="1282" y="656" on="1"/>
        <pt x="1189" y="656" on="0"/>
        <pt x="1086" y="575" on="1"/>
        <pt x="1012" y="515" on="0"/>
        <pt x="914" y="416" on="0"/>
        <pt x="807" y="305" on="0"/>
        <pt x="788" y="286" on="1"/>
        <pt x="888" y="249" on="0"/>
        <pt x="897" y="189" on="1"/>
        <pt x="898" y="183" on="0"/>
        <pt x="895" y="179" on="0"/>
        <pt x="890" y="183" on="0"/>
        <pt x="889" y="187" on="1"/>
        <pt x="881" y="206" on="0"/>
        <pt x="833" y="217" on="1"/>
        <pt x="790" y="227" on="0"/>
        <pt x="734" y="232" on="1"/>
        <pt x="531" y="36" on="0"/>
        <pt x="375" y="-17" on="1"/>
        <pt x="290" y="-47" on="0"/>
        <pt x="214" y="-47" on="1"/>
        <pt x="78" y="-47" on="0"/>
        <pt x="-27" y="34" on="0"/>
        <pt x="-27" y="83" on="1"/>
        <pt x="-27" y="102" on="0"/>
        <pt x="-20" y="122" on="1"/>
        <pt x="10" y="204" on="0"/>
      </contour>
      <contour>
        <pt x="647" y="236" on="1"/>
        <pt x="514" y="236" on="0"/>
        <pt x="367" y="208" on="1"/>
        <pt x="141" y="168" on="0"/>
        <pt x="73" y="89" on="1"/>
        <pt x="52" y="64" on="0"/>
        <pt x="52" y="42" on="1"/>
        <pt x="52" y="16" on="0"/>
        <pt x="80" y="-5" on="1"/>
        <pt x="113" y="-30" on="0"/>
        <pt x="276" y="-30" on="0"/>
        <pt x="371" y="-3" on="1"/>
        <pt x="513" y="41" on="0"/>
        <pt x="709" y="234" on="1"/>
        <pt x="678" y="236" on="0"/>
      </contour>
    </TTGlyph>
    <TTGlyph name="B" xMin="18" yMin="-58" xMax="703" yMax="668">
      <contour>
        <pt x="366" y="344" on="1"/>
        <pt x="403" y="348" on="0"/>
        <pt x="485" y="348" on="0"/>
        <pt x="588" y="326" on="0"/>
        <pt x="616" y="296" on="1"/>
        <pt x="647" y="264" on="0"/>
        <pt x="647" y="183" on="0"/>
        <pt x="603" y="103" on="0"/>
        <pt x="558" y="62" on="1"/>
        <pt x="426" y="-58" on="0"/>
        <pt x="222" y="-58" on="1"/>
        <pt x="167" y="-58" on="0"/>
        <pt x="82" y="-35" on="0"/>
        <pt x="56" y="-18" on="0"/>
        <pt x="19" y="12" on="0"/>
        <pt x="29" y="12" on="1"/>
        <pt x="34" y="12" on="0"/>
        <pt x="84" y="-6" on="0"/>
        <pt x="219" y="-6" on="0"/>
        <pt x="373" y="25" on="0"/>
        <pt x="483" y="87" on="0"/>
        <pt x="515" y="126" on="1"/>
        <pt x="554" y="173" on="0"/>
        <pt x="554" y="221" on="1"/>
        <pt x="554" y="247" on="0"/>
        <pt x="526" y="301" on="0"/>
        <pt x="442" y="330" on="0"/>
        <pt x="376" y="330" on="0"/>
        <pt x="291" y="322" on="0"/>
        <pt x="159" y="276" on="0"/>
        <pt x="115" y="212" on="0"/>
        <pt x="83" y="157" on="0"/>
        <pt x="51" y="95" on="0"/>
        <pt x="42" y="79" on="1"/>
        <pt x="36" y="65" on="0"/>
        <pt x="19" y="65" on="0"/>
        <pt x="19" y="72" on="1"/>
        <pt x="19" y="105" on="0"/>
        <pt x="174" y="344" on="0"/>
        <pt x="316" y="529" on="0"/>
        <pt x="328" y="529" on="1"/>
        <pt x="334" y="529" on="0"/>
        <pt x="342" y="518" on="0"/>
        <pt x="341" y="512" on="1"/>
        <pt x="216" y="355" on="0"/>
        <pt x="191" y="323" on="1"/>
        <pt x="557" y="384" on="0"/>
        <pt x="636" y="498" on="1"/>
        <pt x="648" y="517" on="0"/>
        <pt x="648" y="551" on="0"/>
        <pt x="632" y="566" on="1"/>
        <pt x="600" y="595" on="0"/>
        <pt x="425" y="595" on="0"/>
        <pt x="140" y="514" on="0"/>
        <pt x="84" y="466" on="1"/>
        <pt x="67" y="453" on="0"/>
        <pt x="77" y="436" on="0"/>
        <pt x="71" y="434" on="0"/>
        <pt x="66" y="438" on="1"/>
        <pt x="45" y="450" on="0"/>
        <pt x="33" y="487" on="0"/>
        <pt x="33" y="504" on="0"/>
        <pt x="38" y="509" on="1"/>
        <pt x="81" y="571" on="0"/>
        <pt x="394" y="668" on="0"/>
        <pt x="477" y="668" on="1"/>
        <pt x="643" y="668" on="0"/>
        <pt x="686" y="611" on="1"/>
        <pt x="703" y="589" on="0"/>
        <pt x="703" y="564" on="1"/>
        <pt x="703" y="525" on="0"/>
        <pt x="659" y="483" on="1"/>
        <pt x="557" y="388" on="0"/>
      </contour>
    </TTGlyph>
    <TTGlyph name="C" xMin="24" yMin="-46" xMax="868" yMax="665">
      <contour>
        <pt x="346" y="325" on="1"/>
        <pt x="371" y="321" on="1"/>
        <pt x="419" y="321" on="0"/>
        <pt x="608" y="406" on="0"/>
        <pt x="766" y="532" on="0"/>
        <pt x="766" y="580" on="1"/>
        <pt x="766" y="611" on="0"/>
        <pt x="705" y="635" on="0"/>
        <pt x="669" y="635" on="1"/>
        <pt x="552" y="635" on="0"/>
        <pt x="282" y="501" on="0"/>
        <pt x="184" y="410" on="1"/>
        <pt x="52" y="287" on="0"/>
        <pt x="52" y="176" on="1"/>
        <pt x="52" y="128" on="0"/>
        <pt x="100" y="56" on="0"/>
        <pt x="140" y="36" on="1"/>
        <pt x="215" y="-1" on="0"/>
        <pt x="308" y="-1" on="1"/>
        <pt x="350" y="-1" on="0"/>
        <pt x="411" y="8" on="1"/>
        <pt x="517" y="27" on="0"/>
        <pt x="668" y="89" on="0"/>
        <pt x="744" y="151" on="1"/>
        <pt x="748" y="153" on="0"/>
        <pt x="749" y="153" on="1"/>
        <pt x="754" y="153" on="0"/>
        <pt x="754" y="144" on="0"/>
        <pt x="750" y="138" on="1"/>
        <pt x="675" y="57" on="0"/>
        <pt x="407" y="-46" on="0"/>
        <pt x="290" y="-46" on="1"/>
        <pt x="140" y="-46" on="0"/>
        <pt x="65" y="42" on="1"/>
        <pt x="24" y="91" on="0"/>
        <pt x="24" y="160" on="1"/>
        <pt x="24" y="294" on="0"/>
        <pt x="169" y="425" on="1"/>
        <pt x="278" y="523" on="0"/>
        <pt x="584" y="665" on="0"/>
        <pt x="716" y="665" on="1"/>
        <pt x="797" y="665" on="0"/>
        <pt x="842" y="626" on="1"/>
        <pt x="868" y="602" on="0"/>
        <pt x="868" y="567" on="1"/>
        <pt x="868" y="518" on="0"/>
        <pt x="769" y="419" on="0"/>
        <pt x="630" y="349" on="0"/>
        <pt x="491" y="302" on="0"/>
        <pt x="436" y="297" on="0"/>
        <pt x="407" y="297" on="0"/>
        <pt x="392" y="298" on="1"/>
        <pt x="340" y="303" on="0"/>
        <pt x="340" y="320" on="1"/>
        <pt x="340" y="325" on="0"/>
      </contour>
    </TTGlyph>
    <TTGlyph name="Ccedilla" xMin="17" yMin="-231" xMax="868" yMax="665">
      <contour>
        <pt x="345" y="325" on="1"/>
        <pt x="371" y="321" on="1"/>
        <pt x="419" y="321" on="0"/>
        <pt x="608" y="406" on="0"/>
        <pt x="766" y="532" on="0"/>
        <pt x="766" y="580" on="1"/>
        <pt x="766" y="611" on="0"/>
        <pt x="705" y="635" on="0"/>
        <pt x="669" y="635" on="1"/>
        <pt x="552" y="635" on="0"/>
        <pt x="282" y="501" on="0"/>
        <pt x="184" y="410" on="1"/>
        <pt x="45" y="278" on="0"/>
        <pt x="45" y="170" on="1"/>
        <pt x="45" y="126" on="0"/>
        <pt x="89" y="61" on="0"/>
        <pt x="125" y="44" on="1"/>
        <pt x="196" y="12" on="0"/>
        <pt x="278" y="12" on="1"/>
        <pt x="396" y="12" on="0"/>
        <pt x="671" y="111" on="0"/>
        <pt x="777" y="184" on="1"/>
        <pt x="780" y="187" on="0"/>
        <pt x="788" y="187" on="0"/>
        <pt x="788" y="178" on="0"/>
        <pt x="785" y="175" on="1"/>
        <pt x="704" y="90" on="0"/>
        <pt x="386" y="-38" on="0"/>
        <pt x="265" y="-38" on="1"/>
        <pt x="257" y="-38" on="1"/>
        <pt x="242" y="-40" on="0"/>
        <pt x="213" y="-70" on="0"/>
        <pt x="213" y="-94" on="0"/>
        <pt x="256" y="-154" on="0"/>
        <pt x="256" y="-172" on="1"/>
        <pt x="256" y="-231" on="0"/>
        <pt x="111" y="-231" on="1"/>
        <pt x="106" y="-231" on="0"/>
        <pt x="106" y="-220" on="0"/>
        <pt x="125" y="-215" on="0"/>
        <pt x="160" y="-212" on="0"/>
        <pt x="178" y="-209" on="0"/>
        <pt x="188" y="-199" on="1"/>
        <pt x="203" y="-183" on="0"/>
        <pt x="203" y="-155" on="0"/>
        <pt x="184" y="-114" on="0"/>
        <pt x="184" y="-83" on="0"/>
        <pt x="213" y="-43" on="0"/>
        <pt x="232" y="-36" on="1"/>
        <pt x="141" y="-28" on="0"/>
        <pt x="17" y="65" on="0"/>
        <pt x="17" y="153" on="1"/>
        <pt x="17" y="288" on="0"/>
        <pt x="168" y="425" on="1"/>
        <pt x="278" y="523" on="0"/>
        <pt x="584" y="665" on="0"/>
        <pt x="716" y="665" on="1"/>
        <pt x="797" y="665" on="0"/>
        <pt x="842" y="626" on="1"/>
        <pt x="868" y="602" on="0"/>
        <pt x="868" y="567" on="1"/>
        <pt x="868" y="518" on="0"/>
        <pt x="769" y="419" on="0"/>
        <pt x="630" y="349" on="0"/>
        <pt x="560" y="326" on="1"/>
        <pt x="476" y="297" on="0"/>
        <pt x="417" y="297" on="1"/>
        <pt x="386" y="297" on="0"/>
        <pt x="340" y="311" on="0"/>
        <pt x="340" y="320" on="1"/>
        <pt x="340" y="325" on="0"/>
      </contour>
    </TTGlyph>
    <TTGlyph name="D" xMin="-6" yMin="-60" xMax="911" yMax="650">
      <contour>
        <pt x="863" y="472" on="1"/>
        <pt x="807" y="553" on="0"/>
        <pt x="650" y="576" on="1"/>
        <pt x="605" y="583" on="0"/>
        <pt x="562" y="583" on="1"/>
        <pt x="403" y="583" on="0"/>
        <pt x="250" y="526" on="1"/>
        <pt x="134" y="483" on="0"/>
        <pt x="74" y="426" on="1"/>
        <pt x="35" y="391" on="0"/>
        <pt x="35" y="360" on="1"/>
        <pt x="35" y="341" on="0"/>
        <pt x="55" y="315" on="0"/>
        <pt x="45" y="309" on="0"/>
        <pt x="40" y="314" on="1"/>
        <pt x="15" y="343" on="0"/>
        <pt x="15" y="387" on="1"/>
        <pt x="15" y="459" on="0"/>
        <pt x="72" y="505" on="1"/>
        <pt x="150" y="567" on="0"/>
        <pt x="429" y="650" on="0"/>
        <pt x="675" y="650" on="0"/>
        <pt x="754" y="616" on="1"/>
        <pt x="910" y="550" on="0"/>
        <pt x="910" y="389" on="1"/>
        <pt x="910" y="258" on="0"/>
        <pt x="795" y="138" on="1"/>
        <pt x="659" y="-3" on="0"/>
        <pt x="404" y="-46" on="1"/>
        <pt x="327" y="-59" on="0"/>
        <pt x="264" y="-59" on="1"/>
        <pt x="45" y="-59" on="0"/>
        <pt x="-1" y="31" on="1"/>
        <pt x="-6" y="41" on="0"/>
        <pt x="-6" y="43" on="1"/>
        <pt x="-6" y="51" on="0"/>
        <pt x="10" y="39" on="1"/>
        <pt x="70" y="-3" on="0"/>
        <pt x="343" y="-3" on="0"/>
        <pt x="628" y="78" on="0"/>
        <pt x="731" y="156" on="1"/>
        <pt x="808" y="214" on="0"/>
        <pt x="848" y="273" on="1"/>
        <pt x="890" y="335" on="0"/>
        <pt x="890" y="432" on="0"/>
      </contour>
      <contour>
        <pt x="452" y="550" on="1"/>
        <pt x="465" y="550" on="1"/>
        <pt x="472" y="550" on="0"/>
        <pt x="472" y="547" on="1"/>
        <pt x="472" y="540" on="0"/>
        <pt x="464" y="532" on="1"/>
        <pt x="379" y="438" on="0"/>
        <pt x="184" y="155" on="0"/>
        <pt x="157" y="83" on="1"/>
        <pt x="154" y="75" on="0"/>
        <pt x="150" y="75" on="1"/>
        <pt x="141" y="75" on="0"/>
        <pt x="141" y="85" on="1"/>
        <pt x="141" y="139" on="0"/>
        <pt x="433" y="550" on="0"/>
      </contour>
    </TTGlyph>
    <TTGlyph name="E" xMin="16" yMin="-53" xMax="888" yMax="670">
      <contour>
        <pt x="813" y="528" on="1"/>
        <pt x="813" y="574" on="0"/>
        <pt x="730" y="574" on="1"/>
        <pt x="627" y="574" on="0"/>
        <pt x="273" y="427" on="0"/>
        <pt x="173" y="335" on="1"/>
        <pt x="112" y="278" on="0"/>
        <pt x="46" y="171" on="0"/>
        <pt x="46" y="91" on="0"/>
        <pt x="68" y="60" on="1"/>
        <pt x="106" y="2" on="0"/>
        <pt x="239" y="-9" on="1"/>
        <pt x="254" y="-10" on="0"/>
        <pt x="318" y="-10" on="0"/>
        <pt x="375" y="1" on="1"/>
        <pt x="523" y="28" on="0"/>
        <pt x="807" y="180" on="0"/>
        <pt x="874" y="277" on="1"/>
        <pt x="887" y="296" on="0"/>
        <pt x="887" y="287" on="1"/>
        <pt x="887" y="283" on="0"/>
        <pt x="885" y="275" on="1"/>
        <pt x="858" y="199" on="0"/>
        <pt x="702" y="97" on="1"/>
        <pt x="473" y="-53" on="0"/>
        <pt x="260" y="-53" on="1"/>
        <pt x="136" y="-53" on="0"/>
        <pt x="64" y="20" on="1"/>
        <pt x="16" y="67" on="0"/>
        <pt x="16" y="146" on="1"/>
        <pt x="16" y="214" on="0"/>
        <pt x="51" y="278" on="1"/>
        <pt x="136" y="438" on="0"/>
        <pt x="346" y="561" on="1"/>
        <pt x="470" y="634" on="0"/>
        <pt x="569" y="658" on="1"/>
        <pt x="632" y="670" on="0"/>
        <pt x="746" y="670" on="0"/>
        <pt x="788" y="644" on="1"/>
        <pt x="832" y="615" on="0"/>
        <pt x="832" y="562" on="1"/>
        <pt x="832" y="528" on="0"/>
        <pt x="812" y="487" on="1"/>
        <pt x="806" y="475" on="0"/>
        <pt x="802" y="487" on="0"/>
        <pt x="813" y="512" on="0"/>
      </contour>
      <contour>
        <pt x="567" y="303" on="1"/>
        <pt x="573" y="296" on="0"/>
        <pt x="573" y="287" on="0"/>
        <pt x="572" y="284" on="1"/>
        <pt x="566" y="276" on="0"/>
        <pt x="551" y="286" on="1"/>
        <pt x="517" y="311" on="0"/>
        <pt x="442" y="311" on="1"/>
        <pt x="349" y="311" on="0"/>
        <pt x="258" y="286" on="1"/>
        <pt x="219" y="275" on="0"/>
        <pt x="204" y="275" on="1"/>
        <pt x="181" y="275" on="0"/>
        <pt x="174" y="296" on="1"/>
        <pt x="173" y="297" on="0"/>
        <pt x="173" y="299" on="1"/>
        <pt x="173" y="310" on="0"/>
        <pt x="211" y="340" on="0"/>
        <pt x="264" y="350" on="1"/>
        <pt x="297" y="358" on="0"/>
        <pt x="381" y="358" on="0"/>
        <pt x="430" y="352" on="1"/>
        <pt x="534" y="339" on="0"/>
      </contour>
    </TTGlyph>
    <TTGlyph name="Eacute" xMin="16" yMin="-53" xMax="896" yMax="857">
      <contour>
        <pt x="892" y="831" on="1"/>
        <pt x="896" y="827" on="0"/>
        <pt x="896" y="810" on="0"/>
        <pt x="852" y="772" on="0"/>
        <pt x="744" y="734" on="0"/>
        <pt x="682" y="732" on="1"/>
        <pt x="655" y="730" on="0"/>
        <pt x="653" y="738" on="1"/>
        <pt x="652" y="740" on="0"/>
        <pt x="657" y="742" on="1"/>
        <pt x="669" y="744" on="1"/>
        <pt x="721" y="748" on="0"/>
        <pt x="837" y="822" on="0"/>
        <pt x="837" y="845" on="1"/>
        <pt x="837" y="849" on="0"/>
        <pt x="833" y="856" on="0"/>
        <pt x="840" y="856" on="0"/>
        <pt x="875" y="846" on="0"/>
      </contour>
      <contour>
        <pt x="813" y="528" on="1"/>
        <pt x="813" y="574" on="0"/>
        <pt x="730" y="574" on="1"/>
        <pt x="627" y="574" on="0"/>
        <pt x="273" y="427" on="0"/>
        <pt x="173" y="335" on="1"/>
        <pt x="112" y="278" on="0"/>
        <pt x="46" y="171" on="0"/>
        <pt x="46" y="91" on="0"/>
        <pt x="68" y="60" on="1"/>
        <pt x="106" y="2" on="0"/>
        <pt x="239" y="-9" on="1"/>
        <pt x="254" y="-10" on="0"/>
        <pt x="318" y="-10" on="0"/>
        <pt x="375" y="1" on="1"/>
        <pt x="523" y="28" on="0"/>
        <pt x="807" y="180" on="0"/>
        <pt x="874" y="277" on="1"/>
        <pt x="887" y="296" on="0"/>
        <pt x="887" y="287" on="1"/>
        <pt x="887" y="283" on="0"/>
        <pt x="885" y="275" on="1"/>
        <pt x="858" y="199" on="0"/>
        <pt x="702" y="97" on="1"/>
        <pt x="473" y="-53" on="0"/>
        <pt x="260" y="-53" on="1"/>
        <pt x="136" y="-53" on="0"/>
        <pt x="64" y="20" on="1"/>
        <pt x="16" y="67" on="0"/>
        <pt x="16" y="146" on="1"/>
        <pt x="16" y="214" on="0"/>
        <pt x="51" y="278" on="1"/>
        <pt x="136" y="438" on="0"/>
        <pt x="346" y="561" on="1"/>
        <pt x="470" y="634" on="0"/>
        <pt x="569" y="658" on="1"/>
        <pt x="632" y="670" on="0"/>
        <pt x="746" y="670" on="0"/>
        <pt x="788" y="644" on="1"/>
        <pt x="832" y="615" on="0"/>
        <pt x="832" y="562" on="1"/>
        <pt x="832" y="528" on="0"/>
        <pt x="812" y="487" on="1"/>
        <pt x="806" y="475" on="0"/>
        <pt x="802" y="487" on="0"/>
        <pt x="813" y="512" on="0"/>
      </contour>
      <contour>
        <pt x="567" y="303" on="1"/>
        <pt x="573" y="296" on="0"/>
        <pt x="573" y="287" on="0"/>
        <pt x="572" y="284" on="1"/>
        <pt x="566" y="276" on="0"/>
        <pt x="551" y="286" on="1"/>
        <pt x="517" y="311" on="0"/>
        <pt x="442" y="311" on="1"/>
        <pt x="349" y="311" on="0"/>
        <pt x="258" y="286" on="1"/>
        <pt x="219" y="275" on="0"/>
        <pt x="204" y="275" on="1"/>
        <pt x="181" y="275" on="0"/>
        <pt x="174" y="296" on="1"/>
        <pt x="173" y="297" on="0"/>
        <pt x="173" y="299" on="1"/>
        <pt x="173" y="310" on="0"/>
        <pt x="211" y="340" on="0"/>
        <pt x="264" y="350" on="1"/>
        <pt x="297" y="358" on="0"/>
        <pt x="381" y="358" on="0"/>
        <pt x="430" y="352" on="1"/>
        <pt x="534" y="339" on="0"/>
      </contour>
    </TTGlyph>
    <TTGlyph name="Ecircumflex" xMin="16" yMin="-53" xMax="891" yMax="874">
      <contour>
        <pt x="813" y="528" on="1"/>
        <pt x="813" y="574" on="0"/>
        <pt x="730" y="574" on="1"/>
        <pt x="627" y="574" on="0"/>
        <pt x="273" y="427" on="0"/>
        <pt x="173" y="335" on="1"/>
        <pt x="112" y="278" on="0"/>
        <pt x="46" y="171" on="0"/>
        <pt x="46" y="91" on="0"/>
        <pt x="68" y="60" on="1"/>
        <pt x="106" y="2" on="0"/>
        <pt x="239" y="-9" on="1"/>
        <pt x="254" y="-10" on="0"/>
        <pt x="318" y="-10" on="0"/>
        <pt x="375" y="1" on="1"/>
        <pt x="523" y="28" on="0"/>
        <pt x="807" y="180" on="0"/>
        <pt x="874" y="277" on="1"/>
        <pt x="887" y="296" on="0"/>
        <pt x="887" y="287" on="1"/>
        <pt x="887" y="283" on="0"/>
        <pt x="885" y="275" on="1"/>
        <pt x="858" y="199" on="0"/>
        <pt x="702" y="97" on="1"/>
        <pt x="473" y="-53" on="0"/>
        <pt x="260" y="-53" on="1"/>
        <pt x="136" y="-53" on="0"/>
        <pt x="64" y="20" on="1"/>
        <pt x="16" y="67" on="0"/>
        <pt x="16" y="146" on="1"/>
        <pt x="16" y="214" on="0"/>
        <pt x="51" y="278" on="1"/>
        <pt x="136" y="438" on="0"/>
        <pt x="346" y="561" on="1"/>
        <pt x="470" y="634" on="0"/>
        <pt x="569" y="658" on="1"/>
        <pt x="632" y="670" on="0"/>
        <pt x="746" y="670" on="0"/>
        <pt x="788" y="644" on="1"/>
        <pt x="832" y="615" on="0"/>
        <pt x="832" y="562" on="1"/>
        <pt x="832" y="528" on="0"/>
        <pt x="812" y="487" on="1"/>
        <pt x="806" y="475" on="0"/>
        <pt x="802" y="487" on="0"/>
        <pt x="813" y="512" on="0"/>
      </contour>
      <contour>
        <pt x="258" y="286" on="1"/>
        <pt x="219" y="275" on="0"/>
        <pt x="204" y="275" on="1"/>
        <pt x="181" y="275" on="0"/>
        <pt x="174" y="296" on="1"/>
        <pt x="173" y="297" on="0"/>
        <pt x="173" y="299" on="1"/>
        <pt x="173" y="310" on="0"/>
        <pt x="211" y="340" on="0"/>
        <pt x="264" y="350" on="1"/>
        <pt x="297" y="358" on="0"/>
        <pt x="381" y="358" on="0"/>
        <pt x="430" y="352" on="1"/>
        <pt x="534" y="339" on="0"/>
        <pt x="567" y="303" on="1"/>
        <pt x="577" y="292" on="0"/>
        <pt x="566" y="276" on="0"/>
        <pt x="551" y="286" on="1"/>
        <pt x="517" y="311" on="0"/>
        <pt x="349" y="311" on="0"/>
      </contour>
      <contour>
        <pt x="755" y="791" on="1"/>
        <pt x="722" y="764" on="0"/>
        <pt x="648" y="732" on="0"/>
        <pt x="614" y="732" on="0"/>
        <pt x="614" y="739" on="0"/>
        <pt x="622" y="751" on="0"/>
        <pt x="629" y="751" on="0"/>
        <pt x="630" y="751" on="1"/>
        <pt x="652" y="751" on="0"/>
        <pt x="728" y="791" on="0"/>
        <pt x="763" y="820" on="1"/>
        <pt x="773" y="835" on="0"/>
        <pt x="820" y="874" on="0"/>
        <pt x="824" y="874" on="0"/>
        <pt x="810" y="849" on="0"/>
        <pt x="810" y="805" on="0"/>
        <pt x="821" y="783" on="1"/>
        <pt x="840" y="742" on="0"/>
        <pt x="871" y="742" on="1"/>
        <pt x="875" y="742" on="0"/>
        <pt x="890" y="744" on="0"/>
        <pt x="890" y="739" on="1"/>
        <pt x="890" y="733" on="0"/>
        <pt x="853" y="724" on="0"/>
        <pt x="808" y="724" on="0"/>
        <pt x="787" y="738" on="1"/>
        <pt x="755" y="759" on="0"/>
      </contour>
    </TTGlyph>
    <TTGlyph name="Edieresis" xMin="16" yMin="-53" xMax="888" yMax="806">
      <contour>
        <pt x="790" y="772" on="0"/>
        <pt x="814" y="800" on="0"/>
        <pt x="834" y="805" on="0"/>
        <pt x="847" y="805" on="0"/>
        <pt x="864" y="792" on="0"/>
        <pt x="860" y="762" on="0"/>
        <pt x="836" y="734" on="0"/>
        <pt x="806" y="727" on="0"/>
        <pt x="786" y="743" on="0"/>
      </contour>
      <contour>
        <pt x="668" y="772" on="0"/>
        <pt x="692" y="800" on="0"/>
        <pt x="712" y="805" on="0"/>
        <pt x="725" y="805" on="0"/>
        <pt x="742" y="793" on="0"/>
        <pt x="739" y="761" on="0"/>
        <pt x="714" y="734" on="0"/>
        <pt x="684" y="727" on="0"/>
        <pt x="664" y="743" on="0"/>
      </contour>
      <contour>
        <pt x="813" y="528" on="1"/>
        <pt x="813" y="574" on="0"/>
        <pt x="730" y="574" on="1"/>
        <pt x="627" y="574" on="0"/>
        <pt x="273" y="427" on="0"/>
        <pt x="173" y="335" on="1"/>
        <pt x="112" y="278" on="0"/>
        <pt x="46" y="171" on="0"/>
        <pt x="46" y="91" on="0"/>
        <pt x="68" y="60" on="1"/>
        <pt x="106" y="2" on="0"/>
        <pt x="239" y="-9" on="1"/>
        <pt x="254" y="-10" on="0"/>
        <pt x="318" y="-10" on="0"/>
        <pt x="375" y="1" on="1"/>
        <pt x="523" y="28" on="0"/>
        <pt x="807" y="180" on="0"/>
        <pt x="874" y="277" on="1"/>
        <pt x="887" y="296" on="0"/>
        <pt x="887" y="287" on="1"/>
        <pt x="887" y="283" on="0"/>
        <pt x="885" y="275" on="1"/>
        <pt x="858" y="199" on="0"/>
        <pt x="702" y="97" on="1"/>
        <pt x="473" y="-53" on="0"/>
        <pt x="260" y="-53" on="1"/>
        <pt x="136" y="-53" on="0"/>
        <pt x="64" y="20" on="1"/>
        <pt x="16" y="67" on="0"/>
        <pt x="16" y="146" on="1"/>
        <pt x="16" y="214" on="0"/>
        <pt x="51" y="278" on="1"/>
        <pt x="136" y="438" on="0"/>
        <pt x="346" y="561" on="1"/>
        <pt x="470" y="634" on="0"/>
        <pt x="569" y="658" on="1"/>
        <pt x="632" y="670" on="0"/>
        <pt x="746" y="670" on="0"/>
        <pt x="788" y="644" on="1"/>
        <pt x="832" y="615" on="0"/>
        <pt x="832" y="562" on="1"/>
        <pt x="832" y="528" on="0"/>
        <pt x="812" y="487" on="1"/>
        <pt x="806" y="475" on="0"/>
        <pt x="802" y="487" on="0"/>
        <pt x="813" y="512" on="0"/>
      </contour>
      <contour>
        <pt x="567" y="303" on="1"/>
        <pt x="573" y="296" on="0"/>
        <pt x="573" y="287" on="0"/>
        <pt x="572" y="284" on="1"/>
        <pt x="566" y="276" on="0"/>
        <pt x="551" y="286" on="1"/>
        <pt x="517" y="311" on="0"/>
        <pt x="442" y="311" on="1"/>
        <pt x="349" y="311" on="0"/>
        <pt x="258" y="286" on="1"/>
        <pt x="219" y="275" on="0"/>
        <pt x="204" y="275" on="1"/>
        <pt x="181" y="275" on="0"/>
        <pt x="174" y="296" on="1"/>
        <pt x="173" y="297" on="0"/>
        <pt x="173" y="299" on="1"/>
        <pt x="173" y="310" on="0"/>
        <pt x="211" y="340" on="0"/>
        <pt x="264" y="350" on="1"/>
        <pt x="297" y="358" on="0"/>
        <pt x="381" y="358" on="0"/>
        <pt x="430" y="352" on="1"/>
        <pt x="534" y="339" on="0"/>
      </contour>
    </TTGlyph>
    <TTGlyph name="Egrave" xMin="16" yMin="-53" xMax="888" yMax="848">
      <contour>
        <pt x="740" y="735" on="0"/>
        <pt x="649" y="776" on="0"/>
        <pt x="616" y="811" on="0"/>
        <pt x="616" y="825" on="0"/>
        <pt x="624" y="837" on="0"/>
        <pt x="667" y="848" on="0"/>
        <pt x="674" y="848" on="0"/>
        <pt x="671" y="841" on="0"/>
        <pt x="671" y="836" on="1"/>
        <pt x="671" y="816" on="0"/>
        <pt x="762" y="745" on="0"/>
        <pt x="807" y="738" on="1"/>
        <pt x="819" y="736" on="0"/>
        <pt x="821" y="732" on="1"/>
        <pt x="823" y="725" on="0"/>
      </contour>
      <contour>
        <pt x="813" y="528" on="1"/>
        <pt x="813" y="574" on="0"/>
        <pt x="730" y="574" on="1"/>
        <pt x="627" y="574" on="0"/>
        <pt x="273" y="427" on="0"/>
        <pt x="173" y="335" on="1"/>
        <pt x="112" y="278" on="0"/>
        <pt x="46" y="171" on="0"/>
        <pt x="46" y="91" on="0"/>
        <pt x="68" y="60" on="1"/>
        <pt x="106" y="2" on="0"/>
        <pt x="239" y="-9" on="1"/>
        <pt x="254" y="-10" on="0"/>
        <pt x="318" y="-10" on="0"/>
        <pt x="375" y="1" on="1"/>
        <pt x="523" y="28" on="0"/>
        <pt x="807" y="180" on="0"/>
        <pt x="874" y="277" on="1"/>
        <pt x="887" y="296" on="0"/>
        <pt x="887" y="287" on="1"/>
        <pt x="887" y="283" on="0"/>
        <pt x="885" y="275" on="1"/>
        <pt x="858" y="199" on="0"/>
        <pt x="702" y="97" on="1"/>
        <pt x="473" y="-53" on="0"/>
        <pt x="260" y="-53" on="1"/>
        <pt x="136" y="-53" on="0"/>
        <pt x="64" y="20" on="1"/>
        <pt x="16" y="67" on="0"/>
        <pt x="16" y="146" on="1"/>
        <pt x="16" y="214" on="0"/>
        <pt x="51" y="278" on="1"/>
        <pt x="136" y="438" on="0"/>
        <pt x="346" y="561" on="1"/>
        <pt x="470" y="634" on="0"/>
        <pt x="569" y="658" on="1"/>
        <pt x="632" y="670" on="0"/>
        <pt x="746" y="670" on="0"/>
        <pt x="788" y="644" on="1"/>
        <pt x="832" y="615" on="0"/>
        <pt x="832" y="562" on="1"/>
        <pt x="832" y="528" on="0"/>
        <pt x="812" y="487" on="1"/>
        <pt x="806" y="475" on="0"/>
        <pt x="802" y="487" on="0"/>
        <pt x="813" y="512" on="0"/>
      </contour>
      <contour>
        <pt x="567" y="303" on="1"/>
        <pt x="573" y="296" on="0"/>
        <pt x="573" y="287" on="0"/>
        <pt x="572" y="284" on="1"/>
        <pt x="566" y="276" on="0"/>
        <pt x="551" y="286" on="1"/>
        <pt x="517" y="311" on="0"/>
        <pt x="442" y="311" on="1"/>
        <pt x="349" y="311" on="0"/>
        <pt x="258" y="286" on="1"/>
        <pt x="219" y="275" on="0"/>
        <pt x="204" y="275" on="1"/>
        <pt x="181" y="275" on="0"/>
        <pt x="174" y="296" on="1"/>
        <pt x="173" y="297" on="0"/>
        <pt x="173" y="299" on="1"/>
        <pt x="173" y="310" on="0"/>
        <pt x="211" y="340" on="0"/>
        <pt x="264" y="350" on="1"/>
        <pt x="297" y="358" on="0"/>
        <pt x="381" y="358" on="0"/>
        <pt x="430" y="352" on="1"/>
        <pt x="534" y="339" on="0"/>
      </contour>
    </TTGlyph>
    <TTGlyph name="Eth" xMin="-6" yMin="-60" xMax="911" yMax="650">
      <contour>
        <pt x="863" y="472" on="1"/>
        <pt x="807" y="553" on="0"/>
        <pt x="650" y="576" on="1"/>
        <pt x="605" y="583" on="0"/>
        <pt x="562" y="583" on="1"/>
        <pt x="403" y="583" on="0"/>
        <pt x="250" y="526" on="1"/>
        <pt x="134" y="483" on="0"/>
        <pt x="74" y="426" on="1"/>
        <pt x="35" y="391" on="0"/>
        <pt x="35" y="360" on="1"/>
        <pt x="35" y="341" on="0"/>
        <pt x="55" y="315" on="0"/>
        <pt x="45" y="309" on="0"/>
        <pt x="40" y="314" on="1"/>
        <pt x="15" y="343" on="0"/>
        <pt x="15" y="387" on="1"/>
        <pt x="15" y="459" on="0"/>
        <pt x="72" y="505" on="1"/>
        <pt x="150" y="567" on="0"/>
        <pt x="429" y="650" on="0"/>
        <pt x="675" y="650" on="0"/>
        <pt x="754" y="616" on="1"/>
        <pt x="910" y="550" on="0"/>
        <pt x="910" y="389" on="1"/>
        <pt x="910" y="258" on="0"/>
        <pt x="795" y="138" on="1"/>
        <pt x="659" y="-3" on="0"/>
        <pt x="404" y="-46" on="1"/>
        <pt x="327" y="-59" on="0"/>
        <pt x="264" y="-59" on="1"/>
        <pt x="45" y="-59" on="0"/>
        <pt x="-1" y="31" on="1"/>
        <pt x="-6" y="41" on="0"/>
        <pt x="-6" y="43" on="1"/>
        <pt x="-6" y="51" on="0"/>
        <pt x="10" y="39" on="1"/>
        <pt x="70" y="-3" on="0"/>
        <pt x="343" y="-3" on="0"/>
        <pt x="628" y="78" on="0"/>
        <pt x="731" y="156" on="1"/>
        <pt x="808" y="214" on="0"/>
        <pt x="848" y="273" on="1"/>
        <pt x="890" y="335" on="0"/>
        <pt x="890" y="432" on="0"/>
      </contour>
      <contour>
        <pt x="450" y="549" on="1"/>
        <pt x="451" y="550" on="0"/>
        <pt x="454" y="550" on="1"/>
        <pt x="465" y="550" on="1"/>
        <pt x="472" y="550" on="0"/>
        <pt x="472" y="547" on="1"/>
        <pt x="472" y="540" on="0"/>
        <pt x="464" y="532" on="1"/>
        <pt x="415" y="478" on="0"/>
        <pt x="298" y="321" on="1"/>
        <pt x="424" y="339" on="0"/>
        <pt x="455" y="339" on="1"/>
        <pt x="465" y="340" on="0"/>
        <pt x="464" y="323" on="0"/>
        <pt x="454" y="321" on="1"/>
        <pt x="313" y="294" on="0"/>
        <pt x="268" y="279" on="1"/>
        <pt x="189" y="169" on="0"/>
        <pt x="157" y="83" on="1"/>
        <pt x="154" y="75" on="0"/>
        <pt x="148" y="75" on="0"/>
        <pt x="139" y="83" on="0"/>
        <pt x="143" y="101" on="1"/>
        <pt x="156" y="155" on="0"/>
        <pt x="236" y="268" on="1"/>
        <pt x="222" y="263" on="0"/>
        <pt x="196" y="256" on="1"/>
        <pt x="143" y="240" on="0"/>
        <pt x="95" y="225" on="1"/>
        <pt x="89" y="223" on="0"/>
        <pt x="89" y="235" on="1"/>
        <pt x="89" y="263" on="0"/>
        <pt x="109" y="280" on="1"/>
        <pt x="201" y="303" on="0"/>
        <pt x="270" y="316" on="1"/>
        <pt x="279" y="328" on="0"/>
        <pt x="297" y="353" on="1"/>
        <pt x="434" y="541" on="0"/>
      </contour>
    </TTGlyph>
    <TTGlyph name="Euro" xMin="12" yMin="-53" xMax="976" yMax="671">
      <contour>
        <pt x="600" y="345" on="1"/>
        <pt x="592" y="345" on="0"/>
        <pt x="561" y="345" on="1"/>
        <pt x="474" y="345" on="0"/>
        <pt x="314" y="332" on="1"/>
        <pt x="265" y="285" on="0"/>
        <pt x="239" y="249" on="1"/>
        <pt x="509" y="243" on="0"/>
        <pt x="523" y="235" on="1"/>
        <pt x="528" y="232" on="0"/>
        <pt x="528" y="227" on="1"/>
        <pt x="528" y="209" on="0"/>
        <pt x="498" y="210" on="1"/>
        <pt x="491" y="211" on="0"/>
        <pt x="464" y="211" on="1"/>
        <pt x="423" y="211" on="0"/>
        <pt x="208" y="197" on="1"/>
        <pt x="190" y="158" on="0"/>
        <pt x="190" y="86" on="0"/>
        <pt x="233" y="31" on="0"/>
        <pt x="268" y="17" on="1"/>
        <pt x="333" y="-9" on="0"/>
        <pt x="457" y="-9" on="0"/>
        <pt x="519" y="1" on="1"/>
        <pt x="683" y="30" on="0"/>
        <pt x="865" y="137" on="1"/>
        <pt x="873" y="141" on="0"/>
        <pt x="889" y="141" on="0"/>
        <pt x="889" y="127" on="0"/>
        <pt x="875" y="116" on="1"/>
        <pt x="809" y="66" on="0"/>
        <pt x="710" y="22" on="1"/>
        <pt x="546" y="-53" on="0"/>
        <pt x="411" y="-53" on="1"/>
        <pt x="307" y="-53" on="0"/>
        <pt x="159" y="47" on="0"/>
        <pt x="159" y="146" on="1"/>
        <pt x="159" y="168" on="0"/>
        <pt x="164" y="193" on="1"/>
        <pt x="117" y="189" on="0"/>
        <pt x="55" y="181" on="0"/>
        <pt x="12" y="181" on="0"/>
        <pt x="12" y="197" on="1"/>
        <pt x="12" y="246" on="0"/>
        <pt x="181" y="248" on="1"/>
        <pt x="196" y="286" on="0"/>
        <pt x="222" y="325" on="1"/>
        <pt x="221" y="325" on="0"/>
        <pt x="149" y="315" on="0"/>
        <pt x="105" y="315" on="0"/>
        <pt x="105" y="331" on="1"/>
        <pt x="105" y="377" on="0"/>
        <pt x="267" y="382" on="1"/>
        <pt x="353" y="479" on="0"/>
        <pt x="481" y="556" on="1"/>
        <pt x="674" y="671" on="0"/>
        <pt x="817" y="671" on="1"/>
        <pt x="904" y="671" on="0"/>
        <pt x="949" y="629" on="1"/>
        <pt x="976" y="604" on="0"/>
        <pt x="976" y="564" on="1"/>
        <pt x="976" y="542" on="0"/>
        <pt x="965" y="542" on="1"/>
        <pt x="960" y="542" on="0"/>
        <pt x="958" y="552" on="1"/>
        <pt x="953" y="576" on="0"/>
        <pt x="765" y="576" on="0"/>
        <pt x="482" y="460" on="0"/>
        <pt x="376" y="382" on="1"/>
        <pt x="601" y="379" on="0"/>
        <pt x="617" y="369" on="1"/>
        <pt x="621" y="366" on="0"/>
        <pt x="621" y="362" on="1"/>
        <pt x="621" y="345" on="0"/>
      </contour>
    </TTGlyph>
    <TTGlyph name="F" xMin="-3" yMin="-90" xMax="770" yMax="664">
      <contour>
        <pt x="620" y="340" on="1"/>
        <pt x="693" y="442" on="0"/>
        <pt x="693" y="500" on="1"/>
        <pt x="693" y="541" on="0"/>
        <pt x="654" y="564" on="1"/>
        <pt x="625" y="581" on="0"/>
        <pt x="577" y="581" on="1"/>
        <pt x="489" y="581" on="0"/>
        <pt x="393" y="560" on="1"/>
        <pt x="212" y="521" on="0"/>
        <pt x="101" y="470" on="1"/>
        <pt x="19" y="433" on="0"/>
        <pt x="19" y="401" on="1"/>
        <pt x="19" y="384" on="0"/>
        <pt x="41" y="369" on="1"/>
        <pt x="47" y="364" on="0"/>
        <pt x="31" y="364" on="0"/>
        <pt x="27" y="367" on="1"/>
        <pt x="-3" y="387" on="0"/>
        <pt x="-3" y="451" on="0"/>
        <pt x="34" y="514" on="0"/>
        <pt x="76" y="537" on="1"/>
        <pt x="172" y="592" on="0"/>
        <pt x="306" y="626" on="1"/>
        <pt x="450" y="663" on="0"/>
        <pt x="575" y="663" on="1"/>
        <pt x="707" y="663" on="0"/>
        <pt x="745" y="614" on="1"/>
        <pt x="770" y="583" on="0"/>
        <pt x="770" y="522" on="0"/>
        <pt x="758" y="492" on="1"/>
        <pt x="736" y="431" on="0"/>
        <pt x="687" y="372" on="1"/>
        <pt x="650" y="328" on="1"/>
        <pt x="665" y="320" on="0"/>
        <pt x="677" y="308" on="1"/>
        <pt x="687" y="296" on="0"/>
        <pt x="677" y="281" on="0"/>
        <pt x="651" y="298" on="0"/>
        <pt x="631" y="305" on="1"/>
        <pt x="493" y="140" on="0"/>
        <pt x="457" y="91" on="0"/>
        <pt x="435" y="62" on="0"/>
        <pt x="428" y="52" on="0"/>
        <pt x="410" y="26" on="0"/>
        <pt x="403" y="10" on="0"/>
        <pt x="398" y="-2" on="1"/>
        <pt x="390" y="-21" on="0"/>
        <pt x="390" y="-78" on="0"/>
        <pt x="414" y="-78" on="1"/>
        <pt x="421" y="-78" on="0"/>
        <pt x="439" y="-73" on="0"/>
        <pt x="439" y="-83" on="0"/>
        <pt x="416" y="-90" on="0"/>
        <pt x="389" y="-90" on="0"/>
        <pt x="362" y="-66" on="0"/>
        <pt x="362" y="-16" on="0"/>
        <pt x="398" y="50" on="0"/>
        <pt x="472" y="151" on="0"/>
        <pt x="581" y="288" on="0"/>
        <pt x="599" y="312" on="1"/>
        <pt x="574" y="315" on="0"/>
        <pt x="481" y="315" on="0"/>
        <pt x="400" y="298" on="1"/>
        <pt x="388" y="296" on="0"/>
        <pt x="349" y="285" on="0"/>
        <pt x="340" y="283" on="1"/>
        <pt x="303" y="275" on="0"/>
        <pt x="297" y="284" on="1"/>
        <pt x="283" y="292" on="0"/>
        <pt x="283" y="314" on="0"/>
        <pt x="321" y="345" on="0"/>
        <pt x="405" y="361" on="0"/>
        <pt x="450" y="361" on="1"/>
        <pt x="551" y="361" on="0"/>
      </contour>
    </TTGlyph>
    <TTGlyph name="G" xMin="7" yMin="-248" xMax="911" yMax="662">
      <contour>
        <pt x="804" y="519" on="1"/>
        <pt x="804" y="566" on="0"/>
        <pt x="721" y="566" on="1"/>
        <pt x="618" y="566" on="0"/>
        <pt x="263" y="418" on="0"/>
        <pt x="164" y="326" on="1"/>
        <pt x="103" y="269" on="0"/>
        <pt x="37" y="162" on="0"/>
        <pt x="37" y="83" on="0"/>
        <pt x="59" y="51" on="1"/>
        <pt x="97" y="-7" on="0"/>
        <pt x="230" y="-18" on="1"/>
        <pt x="245" y="-19" on="0"/>
        <pt x="309" y="-19" on="0"/>
        <pt x="366" y="-8" on="1"/>
        <pt x="501" y="16" on="0"/>
        <pt x="765" y="149" on="0"/>
        <pt x="840" y="236" on="1"/>
        <pt x="846" y="256" on="0"/>
        <pt x="853" y="293" on="0"/>
        <pt x="835" y="291" on="1"/>
        <pt x="820" y="289" on="0"/>
        <pt x="786" y="261" on="0"/>
        <pt x="780" y="280" on="0"/>
        <pt x="793" y="290" on="1"/>
        <pt x="827" y="314" on="0"/>
        <pt x="884" y="314" on="0"/>
        <pt x="910" y="283" on="0"/>
        <pt x="910" y="260" on="1"/>
        <pt x="910" y="209" on="0"/>
        <pt x="852" y="108" on="1"/>
        <pt x="767" y="-37" on="0"/>
        <pt x="640" y="-172" on="0"/>
        <pt x="492" y="-248" on="0"/>
        <pt x="337" y="-248" on="0"/>
        <pt x="232" y="-178" on="0"/>
        <pt x="221" y="-103" on="1"/>
        <pt x="220" y="-95" on="0"/>
        <pt x="229" y="-96" on="0"/>
        <pt x="231" y="-102" on="1"/>
        <pt x="241" y="-159" on="0"/>
        <pt x="330" y="-231" on="0"/>
        <pt x="387" y="-231" on="1"/>
        <pt x="486" y="-231" on="0"/>
        <pt x="606" y="-107" on="1"/>
        <pt x="755" y="48" on="0"/>
        <pt x="821" y="190" on="1"/>
        <pt x="748" y="116" on="0"/>
        <pt x="624" y="47" on="1"/>
        <pt x="427" y="-62" on="0"/>
        <pt x="251" y="-62" on="1"/>
        <pt x="128" y="-62" on="0"/>
        <pt x="54" y="11" on="1"/>
        <pt x="7" y="58" on="0"/>
        <pt x="7" y="138" on="1"/>
        <pt x="7" y="206" on="0"/>
        <pt x="42" y="270" on="1"/>
        <pt x="127" y="430" on="0"/>
        <pt x="336" y="552" on="1"/>
        <pt x="460" y="625" on="0"/>
        <pt x="560" y="649" on="1"/>
        <pt x="623" y="662" on="0"/>
        <pt x="738" y="662" on="0"/>
        <pt x="779" y="635" on="1"/>
        <pt x="823" y="606" on="0"/>
        <pt x="823" y="553" on="1"/>
        <pt x="823" y="519" on="0"/>
        <pt x="803" y="478" on="1"/>
        <pt x="797" y="466" on="0"/>
        <pt x="793" y="479" on="0"/>
        <pt x="804" y="504" on="0"/>
      </contour>
    </TTGlyph>
    <TTGlyph name="H" xMin="25" yMin="-152" xMax="1056" yMax="656">
      <contour>
        <pt x="1046" y="656" on="1"/>
        <pt x="1056" y="656" on="0"/>
        <pt x="1056" y="651" on="1"/>
        <pt x="1056" y="644" on="0"/>
        <pt x="1045" y="629" on="1"/>
        <pt x="939" y="490" on="0"/>
        <pt x="694" y="92" on="0"/>
        <pt x="647" y="-19" on="1"/>
        <pt x="639" y="-36" on="0"/>
        <pt x="634" y="-27" on="1"/>
        <pt x="633" y="-24" on="0"/>
        <pt x="633" y="-16" on="1"/>
        <pt x="633" y="25" on="0"/>
        <pt x="850" y="391" on="0"/>
        <pt x="1027" y="655" on="0"/>
        <pt x="1038" y="655" on="1"/>
      </contour>
      <contour>
        <pt x="646" y="563" on="1"/>
        <pt x="655" y="563" on="0"/>
        <pt x="655" y="558" on="1"/>
        <pt x="655" y="551" on="0"/>
        <pt x="644" y="536" on="1"/>
        <pt x="563" y="428" on="0"/>
        <pt x="471" y="287" on="1"/>
        <pt x="518" y="284" on="0"/>
        <pt x="564" y="275" on="1"/>
        <pt x="714" y="244" on="0"/>
        <pt x="714" y="179" on="1"/>
        <pt x="714" y="175" on="0"/>
        <pt x="710" y="175" on="0"/>
        <pt x="708" y="180" on="1"/>
        <pt x="698" y="205" on="0"/>
        <pt x="598" y="214" on="1"/>
        <pt x="568" y="217" on="0"/>
        <pt x="482" y="217" on="0"/>
        <pt x="422" y="211" on="1"/>
        <pt x="274" y="-24" on="0"/>
        <pt x="225" y="-140" on="1"/>
        <pt x="220" y="-151" on="0"/>
        <pt x="211" y="-151" on="0"/>
        <pt x="211" y="-141" on="1"/>
        <pt x="211" y="-91" on="0"/>
        <pt x="394" y="209" on="1"/>
        <pt x="336" y="201" on="0"/>
        <pt x="309" y="196" on="1"/>
        <pt x="133" y="165" on="0"/>
        <pt x="77" y="100" on="1"/>
        <pt x="60" y="79" on="0"/>
        <pt x="60" y="43" on="0"/>
        <pt x="80" y="27" on="1"/>
        <pt x="86" y="23" on="0"/>
        <pt x="78" y="23" on="1"/>
        <pt x="69" y="26" on="1"/>
        <pt x="26" y="59" on="0"/>
        <pt x="26" y="103" on="1"/>
        <pt x="26" y="146" on="0"/>
        <pt x="67" y="187" on="1"/>
        <pt x="127" y="247" on="0"/>
        <pt x="272" y="273" on="1"/>
        <pt x="359" y="288" on="0"/>
        <pt x="435" y="288" on="1"/>
        <pt x="439" y="288" on="0"/>
        <pt x="444" y="288" on="1"/>
        <pt x="620" y="562" on="0"/>
        <pt x="637" y="562" on="1"/>
      </contour>
    </TTGlyph>
    <TTGlyph name="I" xMin="7" yMin="-152" xMax="760" yMax="643">
      <contour>
        <pt x="752" y="521" on="1"/>
        <pt x="752" y="552" on="0"/>
        <pt x="656" y="576" on="0"/>
        <pt x="517" y="576" on="0"/>
        <pt x="405" y="556" on="1"/>
        <pt x="214" y="521" on="0"/>
        <pt x="137" y="464" on="1"/>
        <pt x="104" y="440" on="0"/>
        <pt x="104" y="394" on="0"/>
        <pt x="136" y="372" on="1"/>
        <pt x="143" y="368" on="0"/>
        <pt x="128" y="367" on="0"/>
        <pt x="123" y="371" on="1"/>
        <pt x="98" y="388" on="0"/>
        <pt x="87" y="419" on="1"/>
        <pt x="82" y="433" on="0"/>
        <pt x="82" y="450" on="1"/>
        <pt x="82" y="511" on="0"/>
        <pt x="143" y="545" on="1"/>
        <pt x="220" y="590" on="0"/>
        <pt x="450" y="643" on="0"/>
        <pt x="552" y="643" on="1"/>
        <pt x="620" y="643" on="0"/>
        <pt x="688" y="618" on="1"/>
        <pt x="724" y="604" on="0"/>
        <pt x="760" y="554" on="0"/>
        <pt x="760" y="526" on="1"/>
        <pt x="760" y="503" on="0"/>
        <pt x="749" y="504" on="0"/>
        <pt x="752" y="516" on="0"/>
      </contour>
      <contour>
        <pt x="646" y="563" on="1"/>
        <pt x="655" y="563" on="0"/>
        <pt x="655" y="558" on="1"/>
        <pt x="655" y="551" on="0"/>
        <pt x="644" y="536" on="1"/>
        <pt x="496" y="341" on="0"/>
        <pt x="341" y="79" on="1"/>
        <pt x="406" y="72" on="0"/>
        <pt x="505" y="39" on="0"/>
        <pt x="565" y="-26" on="0"/>
        <pt x="565" y="-67" on="1"/>
        <pt x="565" y="-94" on="0"/>
        <pt x="557" y="-93" on="1"/>
        <pt x="552" y="-93" on="0"/>
        <pt x="555" y="-79" on="0"/>
        <pt x="555" y="-76" on="1"/>
        <pt x="555" y="-53" on="0"/>
        <pt x="520" y="-34" on="1"/>
        <pt x="457" y="0" on="0"/>
        <pt x="336" y="0" on="1"/>
        <pt x="316" y="0" on="0"/>
        <pt x="295" y="-1" on="1"/>
        <pt x="244" y="-92" on="0"/>
        <pt x="225" y="-140" on="1"/>
        <pt x="220" y="-151" on="0"/>
        <pt x="211" y="-151" on="0"/>
        <pt x="211" y="-140" on="1"/>
        <pt x="211" y="-114" on="0"/>
        <pt x="270" y="-2" on="1"/>
        <pt x="202" y="-8" on="0"/>
        <pt x="132" y="-36" on="1"/>
        <pt x="103" y="-47" on="0"/>
        <pt x="67" y="-62" on="0"/>
        <pt x="21" y="-71" on="0"/>
        <pt x="15" y="-62" on="1"/>
        <pt x="7" y="-56" on="0"/>
        <pt x="7" y="-33" on="0"/>
        <pt x="16" y="-6" on="0"/>
        <pt x="30" y="10" on="1"/>
        <pt x="60" y="47" on="0"/>
        <pt x="150" y="70" on="1"/>
        <pt x="199" y="83" on="0"/>
        <pt x="291" y="83" on="0"/>
        <pt x="317" y="81" on="1"/>
        <pt x="408" y="235" on="0"/>
        <pt x="625" y="562" on="0"/>
        <pt x="637" y="562" on="1"/>
      </contour>
    </TTGlyph>
    <TTGlyph name="IJ" xMin="7" yMin="-321" xMax="1349" yMax="672">
      <contour>
        <pt x="211" y="-140" on="1"/>
        <pt x="211" y="-114" on="0"/>
        <pt x="270" y="-2" on="1"/>
        <pt x="202" y="-8" on="0"/>
        <pt x="132" y="-36" on="1"/>
        <pt x="103" y="-47" on="0"/>
        <pt x="67" y="-62" on="0"/>
        <pt x="21" y="-71" on="0"/>
        <pt x="15" y="-62" on="1"/>
        <pt x="7" y="-56" on="0"/>
        <pt x="7" y="-33" on="0"/>
        <pt x="16" y="-6" on="0"/>
        <pt x="30" y="10" on="1"/>
        <pt x="60" y="47" on="0"/>
        <pt x="150" y="70" on="1"/>
        <pt x="199" y="83" on="0"/>
        <pt x="291" y="83" on="0"/>
        <pt x="317" y="81" on="1"/>
        <pt x="408" y="235" on="0"/>
        <pt x="625" y="562" on="0"/>
        <pt x="637" y="562" on="1"/>
        <pt x="638" y="562" on="0"/>
        <pt x="646" y="563" on="0"/>
        <pt x="650" y="562" on="0"/>
        <pt x="655" y="560" on="0"/>
        <pt x="655" y="557" on="1"/>
        <pt x="655" y="551" on="0"/>
        <pt x="644" y="536" on="1"/>
        <pt x="496" y="341" on="0"/>
        <pt x="341" y="79" on="1"/>
        <pt x="475" y="65" on="0"/>
        <pt x="530" y="12" on="1"/>
        <pt x="618" y="110" on="0"/>
        <pt x="745" y="183" on="1"/>
        <pt x="762" y="314" on="0"/>
        <pt x="967" y="578" on="0"/>
        <pt x="1093" y="642" on="1"/>
        <pt x="1150" y="671" on="0"/>
        <pt x="1258" y="671" on="0"/>
        <pt x="1298" y="642" on="1"/>
        <pt x="1349" y="604" on="0"/>
        <pt x="1349" y="468" on="0"/>
        <pt x="1241" y="246" on="0"/>
        <pt x="1051" y="1" on="0"/>
        <pt x="928" y="-111" on="1"/>
        <pt x="698" y="-321" on="0"/>
        <pt x="539" y="-321" on="1"/>
        <pt x="459" y="-321" on="0"/>
        <pt x="430" y="-256" on="1"/>
        <pt x="421" y="-236" on="0"/>
        <pt x="421" y="-211" on="1"/>
        <pt x="421" y="-132" on="0"/>
        <pt x="499" y="-24" on="1"/>
        <pt x="430" y="0" on="0"/>
        <pt x="335" y="0" on="1"/>
        <pt x="316" y="0" on="0"/>
        <pt x="295" y="-1" on="1"/>
        <pt x="244" y="-92" on="0"/>
        <pt x="225" y="-140" on="1"/>
        <pt x="217" y="-157" on="0"/>
        <pt x="212" y="-148" on="1"/>
        <pt x="211" y="-145" on="0"/>
      </contour>
      <contour>
        <pt x="820" y="51" on="1"/>
        <pt x="783" y="51" on="0"/>
        <pt x="762" y="76" on="1"/>
        <pt x="626" y="-16" on="0"/>
        <pt x="562" y="-88" on="1"/>
        <pt x="562" y="-89" on="0"/>
        <pt x="553" y="-99" on="1"/>
        <pt x="490" y="-169" on="0"/>
        <pt x="490" y="-224" on="1"/>
        <pt x="490" y="-263" on="0"/>
        <pt x="534" y="-278" on="1"/>
        <pt x="552" y="-283" on="0"/>
        <pt x="568" y="-283" on="1"/>
        <pt x="619" y="-283" on="0"/>
        <pt x="668" y="-262" on="1"/>
        <pt x="796" y="-209" on="0"/>
        <pt x="1098" y="96" on="0"/>
        <pt x="1285" y="417" on="0"/>
        <pt x="1285" y="510" on="1"/>
        <pt x="1285" y="587" on="0"/>
        <pt x="1236" y="612" on="1"/>
        <pt x="1217" y="622" on="0"/>
        <pt x="1155" y="622" on="0"/>
        <pt x="1109" y="608" on="1"/>
        <pt x="975" y="562" on="0"/>
        <pt x="803" y="344" on="0"/>
        <pt x="785" y="204" on="1"/>
        <pt x="887" y="254" on="0"/>
        <pt x="976" y="254" on="1"/>
        <pt x="1060" y="254" on="0"/>
        <pt x="1071" y="208" on="1"/>
        <pt x="1074" y="197" on="0"/>
        <pt x="1072" y="193" on="0"/>
        <pt x="1068" y="195" on="1"/>
        <pt x="1059" y="199" on="0"/>
        <pt x="1040" y="199" on="1"/>
        <pt x="953" y="199" on="0"/>
        <pt x="788" y="93" on="1"/>
        <pt x="800" y="64" on="0"/>
        <pt x="823" y="62" on="1"/>
        <pt x="830" y="61" on="0"/>
        <pt x="830" y="51" on="0"/>
      </contour>
      <contour>
        <pt x="752" y="521" on="1"/>
        <pt x="752" y="552" on="0"/>
        <pt x="656" y="576" on="0"/>
        <pt x="517" y="576" on="0"/>
        <pt x="405" y="556" on="1"/>
        <pt x="214" y="521" on="0"/>
        <pt x="137" y="464" on="1"/>
        <pt x="104" y="440" on="0"/>
        <pt x="104" y="394" on="0"/>
        <pt x="136" y="372" on="1"/>
        <pt x="144" y="367" on="0"/>
        <pt x="133" y="367" on="1"/>
        <pt x="127" y="367" on="0"/>
        <pt x="123" y="371" on="1"/>
        <pt x="98" y="388" on="0"/>
        <pt x="87" y="419" on="1"/>
        <pt x="82" y="433" on="0"/>
        <pt x="82" y="450" on="1"/>
        <pt x="82" y="511" on="0"/>
        <pt x="143" y="545" on="1"/>
        <pt x="220" y="590" on="0"/>
        <pt x="450" y="643" on="0"/>
        <pt x="552" y="643" on="1"/>
        <pt x="620" y="643" on="0"/>
        <pt x="688" y="618" on="1"/>
        <pt x="724" y="604" on="0"/>
        <pt x="760" y="554" on="0"/>
        <pt x="760" y="526" on="1"/>
        <pt x="760" y="503" on="0"/>
        <pt x="749" y="504" on="0"/>
        <pt x="752" y="516" on="0"/>
      </contour>
    </TTGlyph>
    <TTGlyph name="Iacute" xMin="7" yMin="-152" xMax="856" yMax="833">
      <contour>
        <pt x="854" y="805" on="1"/>
        <pt x="856" y="802" on="0"/>
        <pt x="856" y="786" on="0"/>
        <pt x="811" y="748" on="0"/>
        <pt x="703" y="710" on="0"/>
        <pt x="614" y="707" on="0"/>
        <pt x="612" y="714" on="1"/>
        <pt x="612" y="716" on="0"/>
        <pt x="617" y="718" on="1"/>
        <pt x="628" y="720" on="1"/>
        <pt x="680" y="724" on="0"/>
        <pt x="796" y="798" on="0"/>
        <pt x="796" y="821" on="1"/>
        <pt x="796" y="825" on="0"/>
        <pt x="792" y="832" on="0"/>
        <pt x="799" y="832" on="0"/>
        <pt x="838" y="819" on="0"/>
      </contour>
      <contour>
        <pt x="752" y="521" on="1"/>
        <pt x="752" y="552" on="0"/>
        <pt x="656" y="576" on="0"/>
        <pt x="517" y="576" on="0"/>
        <pt x="405" y="556" on="1"/>
        <pt x="214" y="521" on="0"/>
        <pt x="137" y="464" on="1"/>
        <pt x="104" y="440" on="0"/>
        <pt x="104" y="394" on="0"/>
        <pt x="136" y="372" on="1"/>
        <pt x="143" y="368" on="0"/>
        <pt x="128" y="367" on="0"/>
        <pt x="123" y="371" on="1"/>
        <pt x="98" y="388" on="0"/>
        <pt x="87" y="419" on="1"/>
        <pt x="82" y="433" on="0"/>
        <pt x="82" y="450" on="1"/>
        <pt x="82" y="511" on="0"/>
        <pt x="143" y="545" on="1"/>
        <pt x="220" y="590" on="0"/>
        <pt x="450" y="643" on="0"/>
        <pt x="552" y="643" on="1"/>
        <pt x="620" y="643" on="0"/>
        <pt x="688" y="618" on="1"/>
        <pt x="724" y="604" on="0"/>
        <pt x="760" y="554" on="0"/>
        <pt x="760" y="526" on="1"/>
        <pt x="760" y="503" on="0"/>
        <pt x="749" y="504" on="0"/>
        <pt x="752" y="516" on="0"/>
      </contour>
      <contour>
        <pt x="646" y="563" on="1"/>
        <pt x="655" y="563" on="0"/>
        <pt x="655" y="558" on="1"/>
        <pt x="655" y="551" on="0"/>
        <pt x="644" y="536" on="1"/>
        <pt x="496" y="341" on="0"/>
        <pt x="341" y="79" on="1"/>
        <pt x="406" y="72" on="0"/>
        <pt x="505" y="39" on="0"/>
        <pt x="565" y="-26" on="0"/>
        <pt x="565" y="-67" on="1"/>
        <pt x="565" y="-94" on="0"/>
        <pt x="557" y="-93" on="1"/>
        <pt x="552" y="-93" on="0"/>
        <pt x="555" y="-79" on="0"/>
        <pt x="555" y="-76" on="1"/>
        <pt x="555" y="-53" on="0"/>
        <pt x="520" y="-34" on="1"/>
        <pt x="457" y="0" on="0"/>
        <pt x="336" y="0" on="1"/>
        <pt x="316" y="0" on="0"/>
        <pt x="295" y="-1" on="1"/>
        <pt x="244" y="-92" on="0"/>
        <pt x="225" y="-140" on="1"/>
        <pt x="220" y="-151" on="0"/>
        <pt x="211" y="-151" on="0"/>
        <pt x="211" y="-140" on="1"/>
        <pt x="211" y="-114" on="0"/>
        <pt x="270" y="-2" on="1"/>
        <pt x="202" y="-8" on="0"/>
        <pt x="132" y="-36" on="1"/>
        <pt x="103" y="-47" on="0"/>
        <pt x="67" y="-62" on="0"/>
        <pt x="21" y="-71" on="0"/>
        <pt x="15" y="-62" on="1"/>
        <pt x="7" y="-56" on="0"/>
        <pt x="7" y="-33" on="0"/>
        <pt x="16" y="-6" on="0"/>
        <pt x="30" y="10" on="1"/>
        <pt x="60" y="47" on="0"/>
        <pt x="150" y="70" on="1"/>
        <pt x="199" y="83" on="0"/>
        <pt x="291" y="83" on="0"/>
        <pt x="317" y="81" on="1"/>
        <pt x="408" y="235" on="0"/>
        <pt x="625" y="562" on="0"/>
        <pt x="637" y="562" on="1"/>
      </contour>
    </TTGlyph>
    <TTGlyph name="Icircumflex" xMin="7" yMin="-152" xMax="835" yMax="830">
      <contour>
        <pt x="211" y="-140" on="1"/>
        <pt x="211" y="-114" on="0"/>
        <pt x="270" y="-2" on="1"/>
        <pt x="202" y="-8" on="0"/>
        <pt x="132" y="-36" on="1"/>
        <pt x="103" y="-47" on="0"/>
        <pt x="67" y="-62" on="0"/>
        <pt x="21" y="-71" on="0"/>
        <pt x="15" y="-62" on="1"/>
        <pt x="7" y="-56" on="0"/>
        <pt x="7" y="-33" on="0"/>
        <pt x="16" y="-6" on="0"/>
        <pt x="30" y="10" on="1"/>
        <pt x="60" y="47" on="0"/>
        <pt x="150" y="70" on="1"/>
        <pt x="199" y="83" on="0"/>
        <pt x="291" y="83" on="0"/>
        <pt x="317" y="81" on="1"/>
        <pt x="408" y="235" on="0"/>
        <pt x="625" y="562" on="0"/>
        <pt x="637" y="562" on="1"/>
        <pt x="638" y="562" on="0"/>
        <pt x="646" y="563" on="0"/>
        <pt x="650" y="562" on="0"/>
        <pt x="655" y="560" on="0"/>
        <pt x="655" y="557" on="1"/>
        <pt x="655" y="551" on="0"/>
        <pt x="644" y="536" on="1"/>
        <pt x="496" y="341" on="0"/>
        <pt x="341" y="79" on="1"/>
        <pt x="406" y="72" on="0"/>
        <pt x="505" y="39" on="0"/>
        <pt x="565" y="-26" on="0"/>
        <pt x="565" y="-67" on="1"/>
        <pt x="565" y="-94" on="0"/>
        <pt x="557" y="-93" on="1"/>
        <pt x="552" y="-93" on="0"/>
        <pt x="555" y="-79" on="0"/>
        <pt x="555" y="-76" on="1"/>
        <pt x="555" y="-53" on="0"/>
        <pt x="520" y="-34" on="1"/>
        <pt x="457" y="0" on="0"/>
        <pt x="336" y="0" on="1"/>
        <pt x="316" y="0" on="0"/>
        <pt x="295" y="-1" on="1"/>
        <pt x="244" y="-92" on="0"/>
        <pt x="225" y="-140" on="1"/>
        <pt x="220" y="-151" on="0"/>
        <pt x="211" y="-151" on="0"/>
      </contour>
      <contour>
        <pt x="752" y="521" on="1"/>
        <pt x="752" y="552" on="0"/>
        <pt x="656" y="576" on="0"/>
        <pt x="517" y="576" on="0"/>
        <pt x="405" y="556" on="1"/>
        <pt x="214" y="521" on="0"/>
        <pt x="137" y="464" on="1"/>
        <pt x="104" y="440" on="0"/>
        <pt x="104" y="394" on="0"/>
        <pt x="136" y="372" on="1"/>
        <pt x="144" y="367" on="0"/>
        <pt x="133" y="367" on="1"/>
        <pt x="127" y="367" on="0"/>
        <pt x="123" y="371" on="1"/>
        <pt x="98" y="388" on="0"/>
        <pt x="87" y="419" on="1"/>
        <pt x="82" y="433" on="0"/>
        <pt x="82" y="450" on="1"/>
        <pt x="82" y="511" on="0"/>
        <pt x="143" y="545" on="1"/>
        <pt x="220" y="590" on="0"/>
        <pt x="450" y="643" on="0"/>
        <pt x="552" y="643" on="1"/>
        <pt x="620" y="643" on="0"/>
        <pt x="688" y="618" on="1"/>
        <pt x="724" y="604" on="0"/>
        <pt x="760" y="554" on="0"/>
        <pt x="760" y="526" on="1"/>
        <pt x="760" y="503" on="0"/>
        <pt x="749" y="504" on="0"/>
        <pt x="752" y="516" on="0"/>
      </contour>
      <contour>
        <pt x="569" y="688" on="1"/>
        <pt x="559" y="688" on="0"/>
        <pt x="559" y="695" on="0"/>
        <pt x="566" y="707" on="0"/>
        <pt x="573" y="706" on="0"/>
        <pt x="574" y="706" on="1"/>
        <pt x="596" y="706" on="0"/>
        <pt x="671" y="746" on="0"/>
        <pt x="706" y="775" on="1"/>
        <pt x="707" y="776" on="1"/>
        <pt x="719" y="793" on="0"/>
        <pt x="764" y="829" on="0"/>
        <pt x="768" y="829" on="0"/>
        <pt x="754" y="805" on="0"/>
        <pt x="754" y="761" on="0"/>
        <pt x="765" y="739" on="1"/>
        <pt x="785" y="698" on="0"/>
        <pt x="816" y="698" on="1"/>
        <pt x="819" y="698" on="0"/>
        <pt x="834" y="700" on="0"/>
        <pt x="834" y="696" on="1"/>
        <pt x="834" y="690" on="0"/>
        <pt x="796" y="679" on="0"/>
        <pt x="751" y="679" on="0"/>
        <pt x="732" y="692" on="1"/>
        <pt x="700" y="714" on="0"/>
        <pt x="699" y="747" on="1"/>
        <pt x="627" y="688" on="0"/>
      </contour>
    </TTGlyph>
    <TTGlyph name="Idieresis" xMin="7" yMin="-152" xMax="825" yMax="762">
      <contour>
        <pt x="748" y="699" on="0"/>
        <pt x="751" y="730" on="0"/>
        <pt x="779" y="762" on="0"/>
        <pt x="802" y="762" on="1"/>
        <pt x="809" y="762" on="0"/>
        <pt x="824" y="749" on="0"/>
        <pt x="824" y="722" on="0"/>
        <pt x="798" y="692" on="0"/>
        <pt x="767" y="683" on="0"/>
        <pt x="757" y="691" on="1"/>
      </contour>
      <contour>
        <pt x="626" y="699" on="0"/>
        <pt x="629" y="730" on="0"/>
        <pt x="657" y="762" on="0"/>
        <pt x="680" y="762" on="1"/>
        <pt x="687" y="762" on="0"/>
        <pt x="704" y="748" on="0"/>
        <pt x="700" y="719" on="0"/>
        <pt x="676" y="692" on="0"/>
        <pt x="646" y="683" on="0"/>
      </contour>
      <contour>
        <pt x="752" y="521" on="1"/>
        <pt x="752" y="552" on="0"/>
        <pt x="656" y="576" on="0"/>
        <pt x="517" y="576" on="0"/>
        <pt x="405" y="556" on="1"/>
        <pt x="214" y="521" on="0"/>
        <pt x="137" y="464" on="1"/>
        <pt x="104" y="440" on="0"/>
        <pt x="104" y="394" on="0"/>
        <pt x="136" y="372" on="1"/>
        <pt x="143" y="368" on="0"/>
        <pt x="128" y="367" on="0"/>
        <pt x="123" y="371" on="1"/>
        <pt x="98" y="388" on="0"/>
        <pt x="87" y="419" on="1"/>
        <pt x="82" y="433" on="0"/>
        <pt x="82" y="450" on="1"/>
        <pt x="82" y="511" on="0"/>
        <pt x="143" y="545" on="1"/>
        <pt x="220" y="590" on="0"/>
        <pt x="450" y="643" on="0"/>
        <pt x="552" y="643" on="1"/>
        <pt x="620" y="643" on="0"/>
        <pt x="688" y="618" on="1"/>
        <pt x="724" y="604" on="0"/>
        <pt x="760" y="554" on="0"/>
        <pt x="760" y="526" on="1"/>
        <pt x="760" y="503" on="0"/>
        <pt x="749" y="504" on="0"/>
        <pt x="752" y="516" on="0"/>
      </contour>
      <contour>
        <pt x="646" y="563" on="1"/>
        <pt x="655" y="563" on="0"/>
        <pt x="655" y="558" on="1"/>
        <pt x="655" y="551" on="0"/>
        <pt x="644" y="536" on="1"/>
        <pt x="496" y="341" on="0"/>
        <pt x="341" y="79" on="1"/>
        <pt x="406" y="72" on="0"/>
        <pt x="505" y="39" on="0"/>
        <pt x="565" y="-26" on="0"/>
        <pt x="565" y="-67" on="1"/>
        <pt x="565" y="-94" on="0"/>
        <pt x="557" y="-93" on="1"/>
        <pt x="552" y="-93" on="0"/>
        <pt x="555" y="-79" on="0"/>
        <pt x="555" y="-76" on="1"/>
        <pt x="555" y="-53" on="0"/>
        <pt x="520" y="-34" on="1"/>
        <pt x="457" y="0" on="0"/>
        <pt x="336" y="0" on="1"/>
        <pt x="316" y="0" on="0"/>
        <pt x="295" y="-1" on="1"/>
        <pt x="244" y="-92" on="0"/>
        <pt x="225" y="-140" on="1"/>
        <pt x="220" y="-151" on="0"/>
        <pt x="211" y="-151" on="0"/>
        <pt x="211" y="-140" on="1"/>
        <pt x="211" y="-114" on="0"/>
        <pt x="270" y="-2" on="1"/>
        <pt x="202" y="-8" on="0"/>
        <pt x="132" y="-36" on="1"/>
        <pt x="103" y="-47" on="0"/>
        <pt x="67" y="-62" on="0"/>
        <pt x="21" y="-71" on="0"/>
        <pt x="15" y="-62" on="1"/>
        <pt x="7" y="-56" on="0"/>
        <pt x="7" y="-33" on="0"/>
        <pt x="16" y="-6" on="0"/>
        <pt x="30" y="10" on="1"/>
        <pt x="60" y="47" on="0"/>
        <pt x="150" y="70" on="1"/>
        <pt x="199" y="83" on="0"/>
        <pt x="291" y="83" on="0"/>
        <pt x="317" y="81" on="1"/>
        <pt x="408" y="235" on="0"/>
        <pt x="625" y="562" on="0"/>
        <pt x="637" y="562" on="1"/>
      </contour>
    </TTGlyph>
    <TTGlyph name="Igrave" xMin="7" yMin="-152" xMax="760" yMax="818">
      <contour>
        <pt x="676" y="704" on="0"/>
        <pt x="585" y="745" on="0"/>
        <pt x="552" y="781" on="0"/>
        <pt x="552" y="795" on="0"/>
        <pt x="560" y="806" on="0"/>
        <pt x="603" y="817" on="0"/>
        <pt x="610" y="817" on="0"/>
        <pt x="607" y="811" on="0"/>
        <pt x="607" y="806" on="1"/>
        <pt x="607" y="786" on="0"/>
        <pt x="698" y="714" on="0"/>
        <pt x="743" y="707" on="1"/>
        <pt x="755" y="705" on="0"/>
        <pt x="757" y="702" on="1"/>
        <pt x="759" y="694" on="0"/>
      </contour>
      <contour>
        <pt x="752" y="521" on="1"/>
        <pt x="752" y="552" on="0"/>
        <pt x="656" y="576" on="0"/>
        <pt x="517" y="576" on="0"/>
        <pt x="405" y="556" on="1"/>
        <pt x="214" y="521" on="0"/>
        <pt x="137" y="464" on="1"/>
        <pt x="104" y="440" on="0"/>
        <pt x="104" y="394" on="0"/>
        <pt x="136" y="372" on="1"/>
        <pt x="143" y="368" on="0"/>
        <pt x="128" y="367" on="0"/>
        <pt x="123" y="371" on="1"/>
        <pt x="98" y="388" on="0"/>
        <pt x="87" y="419" on="1"/>
        <pt x="82" y="433" on="0"/>
        <pt x="82" y="450" on="1"/>
        <pt x="82" y="511" on="0"/>
        <pt x="143" y="545" on="1"/>
        <pt x="220" y="590" on="0"/>
        <pt x="450" y="643" on="0"/>
        <pt x="552" y="643" on="1"/>
        <pt x="620" y="643" on="0"/>
        <pt x="688" y="618" on="1"/>
        <pt x="724" y="604" on="0"/>
        <pt x="760" y="554" on="0"/>
        <pt x="760" y="526" on="1"/>
        <pt x="760" y="503" on="0"/>
        <pt x="749" y="504" on="0"/>
        <pt x="752" y="516" on="0"/>
      </contour>
      <contour>
        <pt x="646" y="563" on="1"/>
        <pt x="655" y="563" on="0"/>
        <pt x="655" y="558" on="1"/>
        <pt x="655" y="551" on="0"/>
        <pt x="644" y="536" on="1"/>
        <pt x="496" y="341" on="0"/>
        <pt x="341" y="79" on="1"/>
        <pt x="406" y="72" on="0"/>
        <pt x="505" y="39" on="0"/>
        <pt x="565" y="-26" on="0"/>
        <pt x="565" y="-67" on="1"/>
        <pt x="565" y="-94" on="0"/>
        <pt x="557" y="-93" on="1"/>
        <pt x="552" y="-93" on="0"/>
        <pt x="555" y="-79" on="0"/>
        <pt x="555" y="-76" on="1"/>
        <pt x="555" y="-53" on="0"/>
        <pt x="520" y="-34" on="1"/>
        <pt x="457" y="0" on="0"/>
        <pt x="336" y="0" on="1"/>
        <pt x="316" y="0" on="0"/>
        <pt x="295" y="-1" on="1"/>
        <pt x="244" y="-92" on="0"/>
        <pt x="225" y="-140" on="1"/>
        <pt x="220" y="-151" on="0"/>
        <pt x="211" y="-151" on="0"/>
        <pt x="211" y="-140" on="1"/>
        <pt x="211" y="-114" on="0"/>
        <pt x="270" y="-2" on="1"/>
        <pt x="202" y="-8" on="0"/>
        <pt x="132" y="-36" on="1"/>
        <pt x="103" y="-47" on="0"/>
        <pt x="67" y="-62" on="0"/>
        <pt x="21" y="-71" on="0"/>
        <pt x="15" y="-62" on="1"/>
        <pt x="7" y="-56" on="0"/>
        <pt x="7" y="-33" on="0"/>
        <pt x="16" y="-6" on="0"/>
        <pt x="30" y="10" on="1"/>
        <pt x="60" y="47" on="0"/>
        <pt x="150" y="70" on="1"/>
        <pt x="199" y="83" on="0"/>
        <pt x="291" y="83" on="0"/>
        <pt x="317" y="81" on="1"/>
        <pt x="408" y="235" on="0"/>
        <pt x="625" y="562" on="0"/>
        <pt x="637" y="562" on="1"/>
      </contour>
    </TTGlyph>
    <TTGlyph name="Itilde" xMin="7" yMin="-152" xMax="836" yMax="807">
      <contour>
        <pt x="752" y="521" on="1"/>
        <pt x="752" y="552" on="0"/>
        <pt x="656" y="576" on="0"/>
        <pt x="517" y="576" on="0"/>
        <pt x="405" y="556" on="1"/>
        <pt x="214" y="521" on="0"/>
        <pt x="137" y="464" on="1"/>
        <pt x="104" y="440" on="0"/>
        <pt x="104" y="394" on="0"/>
        <pt x="136" y="372" on="1"/>
        <pt x="143" y="368" on="0"/>
        <pt x="128" y="367" on="0"/>
        <pt x="123" y="371" on="1"/>
        <pt x="98" y="388" on="0"/>
        <pt x="87" y="419" on="1"/>
        <pt x="82" y="433" on="0"/>
        <pt x="82" y="450" on="1"/>
        <pt x="82" y="511" on="0"/>
        <pt x="143" y="545" on="1"/>
        <pt x="220" y="590" on="0"/>
        <pt x="450" y="643" on="0"/>
        <pt x="552" y="643" on="1"/>
        <pt x="620" y="643" on="0"/>
        <pt x="688" y="618" on="1"/>
        <pt x="724" y="604" on="0"/>
        <pt x="760" y="554" on="0"/>
        <pt x="760" y="526" on="1"/>
        <pt x="760" y="503" on="0"/>
        <pt x="749" y="504" on="0"/>
        <pt x="752" y="516" on="0"/>
      </contour>
      <contour>
        <pt x="211" y="-140" on="1"/>
        <pt x="211" y="-114" on="0"/>
        <pt x="270" y="-2" on="1"/>
        <pt x="202" y="-8" on="0"/>
        <pt x="132" y="-36" on="1"/>
        <pt x="103" y="-47" on="0"/>
        <pt x="67" y="-62" on="0"/>
        <pt x="21" y="-71" on="0"/>
        <pt x="15" y="-62" on="1"/>
        <pt x="7" y="-56" on="0"/>
        <pt x="7" y="-33" on="0"/>
        <pt x="16" y="-6" on="0"/>
        <pt x="30" y="10" on="1"/>
        <pt x="60" y="47" on="0"/>
        <pt x="150" y="70" on="1"/>
        <pt x="199" y="83" on="0"/>
        <pt x="291" y="83" on="0"/>
        <pt x="317" y="81" on="1"/>
        <pt x="408" y="235" on="0"/>
        <pt x="625" y="562" on="0"/>
        <pt x="637" y="562" on="1"/>
        <pt x="638" y="562" on="0"/>
        <pt x="646" y="563" on="0"/>
        <pt x="650" y="562" on="0"/>
        <pt x="655" y="560" on="0"/>
        <pt x="655" y="557" on="1"/>
        <pt x="655" y="551" on="0"/>
        <pt x="644" y="536" on="1"/>
        <pt x="496" y="341" on="0"/>
        <pt x="341" y="79" on="1"/>
        <pt x="406" y="72" on="0"/>
        <pt x="505" y="39" on="0"/>
        <pt x="565" y="-26" on="0"/>
        <pt x="565" y="-67" on="1"/>
        <pt x="565" y="-94" on="0"/>
        <pt x="557" y="-93" on="1"/>
        <pt x="552" y="-93" on="0"/>
        <pt x="555" y="-79" on="0"/>
        <pt x="555" y="-76" on="1"/>
        <pt x="555" y="-53" on="0"/>
        <pt x="520" y="-34" on="1"/>
        <pt x="457" y="0" on="0"/>
        <pt x="336" y="0" on="1"/>
        <pt x="316" y="0" on="0"/>
        <pt x="295" y="-1" on="1"/>
        <pt x="244" y="-92" on="0"/>
        <pt x="225" y="-140" on="1"/>
        <pt x="220" y="-151" on="0"/>
        <pt x="211" y="-151" on="0"/>
      </contour>
      <contour>
        <pt x="814" y="757" on="1"/>
        <pt x="778" y="730" on="0"/>
        <pt x="723" y="730" on="0"/>
        <pt x="694" y="749" on="0"/>
        <pt x="676" y="762" on="1"/>
        <pt x="656" y="776" on="0"/>
        <pt x="644" y="776" on="1"/>
        <pt x="621" y="776" on="0"/>
        <pt x="590" y="745" on="1"/>
        <pt x="582" y="736" on="0"/>
        <pt x="577" y="742" on="0"/>
        <pt x="577" y="747" on="0"/>
        <pt x="581" y="751" on="1"/>
        <pt x="640" y="807" on="0"/>
        <pt x="711" y="807" on="0"/>
        <pt x="756" y="786" on="0"/>
        <pt x="777" y="776" on="0"/>
        <pt x="792" y="776" on="0"/>
        <pt x="800" y="779" on="1"/>
        <pt x="819" y="789" on="0"/>
        <pt x="825" y="802" on="1"/>
        <pt x="836" y="800" on="0"/>
        <pt x="836" y="775" on="0"/>
      </contour>
    </TTGlyph>
    <TTGlyph name="J" xMin="-175" yMin="-321" xMax="754" yMax="672">
      <contour>
        <pt x="754" y="468" on="0"/>
        <pt x="646" y="246" on="0"/>
        <pt x="456" y="1" on="0"/>
        <pt x="333" y="-111" on="1"/>
        <pt x="103" y="-321" on="0"/>
        <pt x="-56" y="-321" on="1"/>
        <pt x="-136" y="-321" on="0"/>
        <pt x="-166" y="-256" on="1"/>
        <pt x="-174" y="-236" on="0"/>
        <pt x="-174" y="-214" on="1"/>
        <pt x="-174" y="-143" on="0"/>
        <pt x="-125" y="-66" on="1"/>
        <pt x="-31" y="79" on="0"/>
        <pt x="150" y="183" on="1"/>
        <pt x="167" y="314" on="0"/>
        <pt x="372" y="578" on="0"/>
        <pt x="498" y="642" on="1"/>
        <pt x="555" y="671" on="0"/>
        <pt x="663" y="671" on="0"/>
        <pt x="703" y="642" on="1"/>
        <pt x="754" y="604" on="0"/>
      </contour>
      <contour>
        <pt x="225" y="51" on="1"/>
        <pt x="188" y="51" on="0"/>
        <pt x="167" y="76" on="1"/>
        <pt x="-68" y="-84" on="0"/>
        <pt x="-101" y="-196" on="1"/>
        <pt x="-105" y="-212" on="0"/>
        <pt x="-105" y="-226" on="1"/>
        <pt x="-105" y="-263" on="0"/>
        <pt x="-60" y="-278" on="1"/>
        <pt x="-43" y="-283" on="0"/>
        <pt x="-27" y="-283" on="1"/>
        <pt x="24" y="-283" on="0"/>
        <pt x="73" y="-262" on="1"/>
        <pt x="201" y="-209" on="0"/>
        <pt x="503" y="96" on="0"/>
        <pt x="690" y="417" on="0"/>
        <pt x="690" y="510" on="1"/>
        <pt x="690" y="587" on="0"/>
        <pt x="641" y="612" on="1"/>
        <pt x="622" y="622" on="0"/>
        <pt x="560" y="622" on="0"/>
        <pt x="514" y="608" on="1"/>
        <pt x="380" y="562" on="0"/>
        <pt x="208" y="344" on="0"/>
        <pt x="190" y="204" on="1"/>
        <pt x="292" y="254" on="0"/>
        <pt x="381" y="254" on="1"/>
        <pt x="465" y="254" on="0"/>
        <pt x="476" y="208" on="1"/>
        <pt x="479" y="197" on="0"/>
        <pt x="477" y="193" on="0"/>
        <pt x="472" y="195" on="1"/>
        <pt x="464" y="199" on="0"/>
        <pt x="445" y="199" on="1"/>
        <pt x="358" y="199" on="0"/>
        <pt x="193" y="93" on="1"/>
        <pt x="205" y="64" on="0"/>
        <pt x="228" y="62" on="1"/>
        <pt x="235" y="61" on="0"/>
        <pt x="235" y="51" on="0"/>
      </contour>
    </TTGlyph>
    <TTGlyph name="Jcircumflex" xMin="-175" yMin="-321" xMax="842" yMax="891">
      <contour>
        <pt x="754" y="468" on="0"/>
        <pt x="646" y="246" on="0"/>
        <pt x="456" y="1" on="0"/>
        <pt x="333" y="-111" on="1"/>
        <pt x="103" y="-321" on="0"/>
        <pt x="-56" y="-321" on="1"/>
        <pt x="-136" y="-321" on="0"/>
        <pt x="-166" y="-256" on="1"/>
        <pt x="-174" y="-236" on="0"/>
        <pt x="-174" y="-214" on="1"/>
        <pt x="-174" y="-143" on="0"/>
        <pt x="-125" y="-66" on="1"/>
        <pt x="-31" y="79" on="0"/>
        <pt x="150" y="183" on="1"/>
        <pt x="167" y="314" on="0"/>
        <pt x="372" y="578" on="0"/>
        <pt x="498" y="642" on="1"/>
        <pt x="555" y="671" on="0"/>
        <pt x="663" y="671" on="0"/>
        <pt x="703" y="642" on="1"/>
        <pt x="754" y="604" on="0"/>
      </contour>
      <contour>
        <pt x="225" y="51" on="1"/>
        <pt x="188" y="51" on="0"/>
        <pt x="167" y="76" on="1"/>
        <pt x="-68" y="-84" on="0"/>
        <pt x="-101" y="-196" on="1"/>
        <pt x="-105" y="-212" on="0"/>
        <pt x="-105" y="-226" on="1"/>
        <pt x="-105" y="-263" on="0"/>
        <pt x="-60" y="-278" on="1"/>
        <pt x="-43" y="-283" on="0"/>
        <pt x="-27" y="-283" on="1"/>
        <pt x="24" y="-283" on="0"/>
        <pt x="73" y="-262" on="1"/>
        <pt x="201" y="-209" on="0"/>
        <pt x="503" y="96" on="0"/>
        <pt x="690" y="417" on="0"/>
        <pt x="690" y="510" on="1"/>
        <pt x="690" y="587" on="0"/>
        <pt x="641" y="612" on="1"/>
        <pt x="622" y="622" on="0"/>
        <pt x="560" y="622" on="0"/>
        <pt x="514" y="608" on="1"/>
        <pt x="380" y="562" on="0"/>
        <pt x="208" y="344" on="0"/>
        <pt x="190" y="204" on="1"/>
        <pt x="292" y="254" on="0"/>
        <pt x="381" y="254" on="1"/>
        <pt x="465" y="254" on="0"/>
        <pt x="476" y="208" on="1"/>
        <pt x="479" y="197" on="0"/>
        <pt x="477" y="193" on="0"/>
        <pt x="472" y="195" on="1"/>
        <pt x="464" y="199" on="0"/>
        <pt x="445" y="199" on="1"/>
        <pt x="358" y="199" on="0"/>
        <pt x="193" y="93" on="1"/>
        <pt x="205" y="64" on="0"/>
        <pt x="228" y="62" on="1"/>
        <pt x="235" y="61" on="0"/>
        <pt x="235" y="51" on="0"/>
      </contour>
      <contour>
        <pt x="821" y="737" on="1"/>
        <pt x="824" y="737" on="0"/>
        <pt x="841" y="740" on="0"/>
        <pt x="841" y="727" on="0"/>
        <pt x="798" y="716" on="0"/>
        <pt x="746" y="716" on="0"/>
        <pt x="723" y="732" on="1"/>
        <pt x="686" y="757" on="0"/>
        <pt x="685" y="795" on="1"/>
        <pt x="646" y="763" on="0"/>
        <pt x="562" y="727" on="0"/>
        <pt x="534" y="727" on="1"/>
        <pt x="522" y="727" on="0"/>
        <pt x="522" y="734" on="0"/>
        <pt x="526" y="740" on="1"/>
        <pt x="531" y="747" on="0"/>
        <pt x="540" y="747" on="1"/>
        <pt x="566" y="747" on="0"/>
        <pt x="654" y="795" on="0"/>
        <pt x="695" y="828" on="1"/>
        <pt x="705" y="845" on="0"/>
        <pt x="760" y="890" on="0"/>
        <pt x="762" y="890" on="1"/>
        <pt x="766" y="890" on="0"/>
        <pt x="750" y="859" on="0"/>
        <pt x="750" y="842" on="1"/>
        <pt x="750" y="790" on="0"/>
        <pt x="779" y="758" on="1"/>
        <pt x="799" y="737" on="0"/>
      </contour>
    </TTGlyph>
    <TTGlyph name="K" xMin="-30" yMin="-95" xMax="873" yMax="664">
      <contour>
        <pt x="861" y="663" on="1"/>
        <pt x="872" y="663" on="0"/>
        <pt x="872" y="656" on="1"/>
        <pt x="872" y="644" on="0"/>
        <pt x="856" y="638" on="1"/>
        <pt x="616" y="555" on="0"/>
        <pt x="242" y="269" on="1"/>
        <pt x="339" y="301" on="0"/>
        <pt x="490" y="301" on="0"/>
        <pt x="548" y="275" on="1"/>
        <pt x="651" y="231" on="0"/>
        <pt x="651" y="136" on="1"/>
        <pt x="651" y="63" on="0"/>
        <pt x="574" y="-7" on="1"/>
        <pt x="527" y="-50" on="0"/>
        <pt x="456" y="-84" on="1"/>
        <pt x="434" y="-95" on="0"/>
        <pt x="424" y="-95" on="0"/>
        <pt x="425" y="-93" on="1"/>
        <pt x="427" y="-84" on="0"/>
        <pt x="506" y="-14" on="0"/>
        <pt x="553" y="78" on="0"/>
        <pt x="553" y="159" on="0"/>
        <pt x="533" y="196" on="1"/>
        <pt x="495" y="266" on="0"/>
        <pt x="376" y="274" on="1"/>
        <pt x="369" y="274" on="0"/>
        <pt x="361" y="274" on="1"/>
        <pt x="310" y="274" on="0"/>
        <pt x="205" y="241" on="0"/>
        <pt x="183" y="241" on="0"/>
        <pt x="183" y="249" on="0"/>
        <pt x="194" y="259" on="1"/>
        <pt x="293" y="350" on="0"/>
        <pt x="760" y="653" on="0"/>
        <pt x="856" y="663" on="1"/>
        <pt x="859" y="663" on="0"/>
      </contour>
      <contour>
        <pt x="369" y="606" on="1"/>
        <pt x="402" y="606" on="0"/>
        <pt x="402" y="588" on="1"/>
        <pt x="402" y="579" on="0"/>
        <pt x="391" y="565" on="1"/>
        <pt x="292" y="435" on="0"/>
        <pt x="26" y="17" on="0"/>
        <pt x="-16" y="-81" on="1"/>
        <pt x="-21" y="-93" on="0"/>
        <pt x="-29" y="-93" on="0"/>
        <pt x="-29" y="-83" on="1"/>
        <pt x="-29" y="-31" on="0"/>
        <pt x="291" y="555" on="0"/>
        <pt x="343" y="597" on="1"/>
        <pt x="354" y="606" on="0"/>
      </contour>
    </TTGlyph>
    <TTGlyph name="L" xMin="2" yMin="-75" xMax="966" yMax="665">
      <contour>
        <pt x="966" y="569" on="1"/>
        <pt x="966" y="480" on="0"/>
        <pt x="830" y="400" on="1"/>
        <pt x="778" y="369" on="0"/>
        <pt x="711" y="345" on="1"/>
        <pt x="554" y="288" on="0"/>
        <pt x="417" y="288" on="1"/>
        <pt x="364" y="288" on="0"/>
        <pt x="335" y="293" on="1"/>
        <pt x="329" y="285" on="0"/>
        <pt x="295" y="232" on="0"/>
        <pt x="282" y="213" on="0"/>
        <pt x="255" y="172" on="0"/>
        <pt x="247" y="162" on="1"/>
        <pt x="223" y="132" on="0"/>
        <pt x="201" y="110" on="1"/>
        <pt x="166" y="76" on="0"/>
        <pt x="108" y="76" on="1"/>
        <pt x="96" y="76" on="0"/>
        <pt x="66" y="85" on="0"/>
        <pt x="61" y="94" on="0"/>
        <pt x="63" y="96" on="0"/>
        <pt x="70" y="92" on="0"/>
        <pt x="93" y="91" on="0"/>
        <pt x="110" y="94" on="1"/>
        <pt x="151" y="99" on="0"/>
        <pt x="198" y="144" on="1"/>
        <pt x="225" y="171" on="0"/>
        <pt x="313" y="296" on="1"/>
        <pt x="229" y="313" on="0"/>
        <pt x="214" y="360" on="1"/>
        <pt x="212" y="367" on="0"/>
        <pt x="218" y="368" on="0"/>
        <pt x="220" y="363" on="1"/>
        <pt x="232" y="345" on="0"/>
        <pt x="294" y="345" on="1"/>
        <pt x="317" y="345" on="0"/>
        <pt x="346" y="347" on="1"/>
        <pt x="349" y="347" on="1"/>
        <pt x="410" y="432" on="0"/>
        <pt x="537" y="563" on="0"/>
        <pt x="606" y="602" on="1"/>
        <pt x="719" y="665" on="0"/>
        <pt x="828" y="665" on="1"/>
        <pt x="880" y="665" on="0"/>
        <pt x="910" y="649" on="1"/>
        <pt x="966" y="620" on="0"/>
      </contour>
      <contour>
        <pt x="732" y="-48" on="1"/>
        <pt x="732" y="-75" on="0"/>
        <pt x="723" y="-75" on="1"/>
        <pt x="715" y="-75" on="0"/>
        <pt x="720" y="-61" on="0"/>
        <pt x="720" y="-57" on="1"/>
        <pt x="720" y="-31" on="0"/>
        <pt x="666" y="-12" on="1"/>
        <pt x="580" y="19" on="0"/>
        <pt x="435" y="19" on="1"/>
        <pt x="281" y="19" on="0"/>
        <pt x="166" y="-16" on="1"/>
        <pt x="128" y="-28" on="0"/>
        <pt x="104" y="-36" on="1"/>
        <pt x="62" y="-49" on="0"/>
        <pt x="40" y="-49" on="1"/>
        <pt x="3" y="-49" on="0"/>
        <pt x="3" y="-23" on="1"/>
        <pt x="3" y="26" on="0"/>
        <pt x="90" y="62" on="1"/>
        <pt x="185" y="100" on="0"/>
        <pt x="341" y="100" on="1"/>
        <pt x="580" y="100" on="0"/>
        <pt x="680" y="36" on="1"/>
        <pt x="732" y="2" on="0"/>
      </contour>
      <contour>
        <pt x="883" y="564" on="1"/>
        <pt x="894" y="583" on="0"/>
        <pt x="894" y="603" on="1"/>
        <pt x="894" y="648" on="0"/>
        <pt x="790" y="648" on="1"/>
        <pt x="772" y="648" on="0"/>
        <pt x="671" y="622" on="0"/>
        <pt x="622" y="597" on="1"/>
        <pt x="503" y="534" on="0"/>
        <pt x="374" y="350" on="1"/>
        <pt x="503" y="366" on="0"/>
        <pt x="656" y="422" on="1"/>
        <pt x="838" y="488" on="0"/>
      </contour>
    </TTGlyph>
    <TTGlyph name="Ldotaccent" xMin="2" yMin="-75" xMax="966" yMax="665">
      <contour>
        <pt x="966" y="569" on="1"/>
        <pt x="966" y="480" on="0"/>
        <pt x="830" y="400" on="1"/>
        <pt x="778" y="369" on="0"/>
        <pt x="711" y="345" on="1"/>
        <pt x="554" y="288" on="0"/>
        <pt x="417" y="288" on="1"/>
        <pt x="364" y="288" on="0"/>
        <pt x="335" y="293" on="1"/>
        <pt x="329" y="285" on="0"/>
        <pt x="295" y="232" on="0"/>
        <pt x="282" y="213" on="0"/>
        <pt x="255" y="172" on="0"/>
        <pt x="247" y="162" on="1"/>
        <pt x="223" y="132" on="0"/>
        <pt x="201" y="110" on="1"/>
        <pt x="166" y="76" on="0"/>
        <pt x="108" y="76" on="1"/>
        <pt x="96" y="76" on="0"/>
        <pt x="66" y="85" on="0"/>
        <pt x="61" y="94" on="0"/>
        <pt x="63" y="96" on="0"/>
        <pt x="70" y="92" on="0"/>
        <pt x="93" y="91" on="0"/>
        <pt x="110" y="94" on="1"/>
        <pt x="151" y="99" on="0"/>
        <pt x="198" y="144" on="1"/>
        <pt x="225" y="171" on="0"/>
        <pt x="313" y="296" on="1"/>
        <pt x="229" y="313" on="0"/>
        <pt x="214" y="360" on="1"/>
        <pt x="212" y="367" on="0"/>
        <pt x="218" y="368" on="0"/>
        <pt x="220" y="363" on="1"/>
        <pt x="232" y="345" on="0"/>
        <pt x="294" y="345" on="1"/>
        <pt x="317" y="345" on="0"/>
        <pt x="346" y="347" on="1"/>
        <pt x="349" y="347" on="1"/>
        <pt x="410" y="432" on="0"/>
        <pt x="537" y="563" on="0"/>
        <pt x="606" y="602" on="1"/>
        <pt x="719" y="665" on="0"/>
        <pt x="828" y="665" on="1"/>
        <pt x="880" y="665" on="0"/>
        <pt x="910" y="649" on="1"/>
        <pt x="966" y="620" on="0"/>
      </contour>
      <contour>
        <pt x="732" y="-48" on="1"/>
        <pt x="732" y="-75" on="0"/>
        <pt x="723" y="-75" on="1"/>
        <pt x="715" y="-75" on="0"/>
        <pt x="720" y="-61" on="0"/>
        <pt x="720" y="-57" on="1"/>
        <pt x="720" y="-31" on="0"/>
        <pt x="666" y="-12" on="1"/>
        <pt x="580" y="19" on="0"/>
        <pt x="435" y="19" on="1"/>
        <pt x="281" y="19" on="0"/>
        <pt x="166" y="-16" on="1"/>
        <pt x="128" y="-28" on="0"/>
        <pt x="104" y="-36" on="1"/>
        <pt x="62" y="-49" on="0"/>
        <pt x="40" y="-49" on="1"/>
        <pt x="3" y="-49" on="0"/>
        <pt x="3" y="-23" on="1"/>
        <pt x="3" y="26" on="0"/>
        <pt x="90" y="62" on="1"/>
        <pt x="185" y="100" on="0"/>
        <pt x="341" y="100" on="1"/>
        <pt x="580" y="100" on="0"/>
        <pt x="680" y="36" on="1"/>
        <pt x="732" y="2" on="0"/>
      </contour>
      <contour>
        <pt x="883" y="564" on="1"/>
        <pt x="894" y="583" on="0"/>
        <pt x="894" y="603" on="1"/>
        <pt x="894" y="648" on="0"/>
        <pt x="790" y="648" on="1"/>
        <pt x="772" y="648" on="0"/>
        <pt x="671" y="622" on="0"/>
        <pt x="622" y="597" on="1"/>
        <pt x="503" y="534" on="0"/>
        <pt x="374" y="350" on="1"/>
        <pt x="503" y="366" on="0"/>
        <pt x="656" y="422" on="1"/>
        <pt x="838" y="488" on="0"/>
      </contour>
      <contour>
        <pt x="618" y="164" on="1"/>
        <pt x="607" y="164" on="0"/>
        <pt x="588" y="179" on="0"/>
        <pt x="588" y="188" on="1"/>
        <pt x="588" y="218" on="0"/>
        <pt x="605" y="236" on="1"/>
        <pt x="628" y="262" on="0"/>
        <pt x="654" y="262" on="1"/>
        <pt x="665" y="262" on="0"/>
        <pt x="685" y="246" on="0"/>
        <pt x="685" y="209" on="0"/>
        <pt x="644" y="164" on="0"/>
      </contour>
    </TTGlyph>
    <TTGlyph name="Lslash" xMin="2" yMin="-75" xMax="966" yMax="665">
      <contour>
        <pt x="404" y="251" on="1"/>
        <pt x="410" y="251" on="0"/>
        <pt x="410" y="240" on="1"/>
        <pt x="410" y="225" on="0"/>
        <pt x="399" y="223" on="1"/>
        <pt x="369" y="219" on="0"/>
        <pt x="275" y="202" on="1"/>
        <pt x="232" y="141" on="0"/>
        <pt x="206" y="115" on="1"/>
        <pt x="166" y="76" on="0"/>
        <pt x="108" y="76" on="1"/>
        <pt x="96" y="76" on="0"/>
        <pt x="66" y="85" on="0"/>
        <pt x="61" y="94" on="0"/>
        <pt x="63" y="96" on="0"/>
        <pt x="70" y="92" on="0"/>
        <pt x="93" y="91" on="0"/>
        <pt x="110" y="94" on="1"/>
        <pt x="151" y="99" on="0"/>
        <pt x="198" y="144" on="1"/>
        <pt x="223" y="171" on="0"/>
        <pt x="242" y="196" on="1"/>
        <pt x="105" y="170" on="0"/>
        <pt x="71" y="157" on="1"/>
        <pt x="69" y="156" on="0"/>
        <pt x="79" y="176" on="0"/>
        <pt x="92" y="185" on="1"/>
        <pt x="117" y="197" on="0"/>
        <pt x="265" y="227" on="1"/>
        <pt x="313" y="296" on="1"/>
        <pt x="229" y="313" on="0"/>
        <pt x="214" y="360" on="1"/>
        <pt x="212" y="367" on="0"/>
        <pt x="218" y="368" on="0"/>
        <pt x="220" y="363" on="1"/>
        <pt x="232" y="345" on="0"/>
        <pt x="294" y="345" on="1"/>
        <pt x="317" y="345" on="0"/>
        <pt x="346" y="347" on="1"/>
        <pt x="349" y="347" on="1"/>
        <pt x="410" y="432" on="0"/>
        <pt x="537" y="563" on="0"/>
        <pt x="606" y="602" on="1"/>
        <pt x="719" y="665" on="0"/>
        <pt x="828" y="665" on="1"/>
        <pt x="880" y="665" on="0"/>
        <pt x="910" y="649" on="1"/>
        <pt x="966" y="620" on="0"/>
        <pt x="966" y="569" on="1"/>
        <pt x="966" y="480" on="0"/>
        <pt x="830" y="400" on="1"/>
        <pt x="778" y="369" on="0"/>
        <pt x="711" y="345" on="1"/>
        <pt x="554" y="288" on="0"/>
        <pt x="417" y="288" on="1"/>
        <pt x="364" y="288" on="0"/>
        <pt x="335" y="293" on="1"/>
        <pt x="296" y="233" on="1"/>
        <pt x="389" y="251" on="0"/>
        <pt x="404" y="251" on="0"/>
      </contour>
      <contour>
        <pt x="883" y="564" on="1"/>
        <pt x="894" y="583" on="0"/>
        <pt x="894" y="603" on="1"/>
        <pt x="894" y="648" on="0"/>
        <pt x="790" y="648" on="1"/>
        <pt x="772" y="648" on="0"/>
        <pt x="671" y="622" on="0"/>
        <pt x="622" y="597" on="1"/>
        <pt x="503" y="534" on="0"/>
        <pt x="374" y="350" on="1"/>
        <pt x="503" y="366" on="0"/>
        <pt x="656" y="422" on="1"/>
        <pt x="838" y="488" on="0"/>
      </contour>
      <contour>
        <pt x="732" y="-48" on="1"/>
        <pt x="732" y="-75" on="0"/>
        <pt x="723" y="-75" on="1"/>
        <pt x="715" y="-75" on="0"/>
        <pt x="720" y="-61" on="0"/>
        <pt x="720" y="-57" on="1"/>
        <pt x="720" y="-31" on="0"/>
        <pt x="666" y="-12" on="1"/>
        <pt x="580" y="19" on="0"/>
        <pt x="435" y="19" on="1"/>
        <pt x="281" y="19" on="0"/>
        <pt x="166" y="-16" on="1"/>
        <pt x="128" y="-28" on="0"/>
        <pt x="104" y="-36" on="1"/>
        <pt x="62" y="-49" on="0"/>
        <pt x="40" y="-49" on="1"/>
        <pt x="3" y="-49" on="0"/>
        <pt x="3" y="-23" on="1"/>
        <pt x="3" y="26" on="0"/>
        <pt x="90" y="62" on="1"/>
        <pt x="185" y="100" on="0"/>
        <pt x="341" y="100" on="1"/>
        <pt x="580" y="100" on="0"/>
        <pt x="680" y="36" on="1"/>
        <pt x="732" y="2" on="0"/>
      </contour>
    </TTGlyph>
    <TTGlyph name="M" xMin="-3" yMin="-237" xMax="1485" yMax="664">
      <contour>
        <pt x="355" y="-20" on="1"/>
        <pt x="351" y="-20" on="0"/>
        <pt x="351" y="-12" on="1"/>
        <pt x="351" y="2" on="0"/>
        <pt x="407" y="72" on="1"/>
        <pt x="415" y="82" on="0"/>
        <pt x="529" y="220" on="0"/>
        <pt x="551" y="248" on="1"/>
        <pt x="633" y="354" on="0"/>
        <pt x="688" y="464" on="0"/>
        <pt x="688" y="500" on="1"/>
        <pt x="688" y="582" on="0"/>
        <pt x="552" y="582" on="1"/>
        <pt x="408" y="582" on="0"/>
        <pt x="178" y="504" on="1"/>
        <pt x="17" y="449" on="0"/>
        <pt x="17" y="402" on="1"/>
        <pt x="17" y="385" on="0"/>
        <pt x="40" y="369" on="1"/>
        <pt x="47" y="365" on="0"/>
        <pt x="32" y="364" on="0"/>
        <pt x="27" y="367" on="1"/>
        <pt x="-3" y="387" on="0"/>
        <pt x="-3" y="451" on="0"/>
        <pt x="34" y="514" on="0"/>
        <pt x="76" y="537" on="1"/>
        <pt x="172" y="592" on="0"/>
        <pt x="306" y="626" on="1"/>
        <pt x="450" y="663" on="0"/>
        <pt x="575" y="663" on="1"/>
        <pt x="707" y="663" on="0"/>
        <pt x="745" y="614" on="1"/>
        <pt x="770" y="583" on="0"/>
        <pt x="770" y="522" on="0"/>
        <pt x="758" y="492" on="1"/>
        <pt x="736" y="431" on="0"/>
        <pt x="687" y="372" on="1"/>
        <pt x="677" y="359" on="0"/>
        <pt x="562" y="224" on="0"/>
        <pt x="530" y="184" on="1"/>
        <pt x="891" y="564" on="0"/>
        <pt x="1038" y="564" on="1"/>
        <pt x="1080" y="564" on="0"/>
        <pt x="1098" y="528" on="1"/>
        <pt x="1108" y="508" on="0"/>
        <pt x="1108" y="478" on="0"/>
        <pt x="1106" y="459" on="1"/>
        <pt x="1103" y="409" on="0"/>
        <pt x="1022" y="272" on="1"/>
        <pt x="1144" y="399" on="0"/>
        <pt x="1240" y="470" on="1"/>
        <pt x="1356" y="556" on="0"/>
        <pt x="1438" y="556" on="1"/>
        <pt x="1485" y="556" on="0"/>
        <pt x="1485" y="477" on="0"/>
        <pt x="1435" y="403" on="1"/>
        <pt x="1140" y="-30" on="0"/>
        <pt x="1140" y="-173" on="1"/>
        <pt x="1140" y="-218" on="0"/>
        <pt x="1166" y="-222" on="1"/>
        <pt x="1182" y="-225" on="0"/>
        <pt x="1200" y="-212" on="1"/>
        <pt x="1207" y="-207" on="0"/>
        <pt x="1217" y="-220" on="0"/>
        <pt x="1199" y="-237" on="0"/>
        <pt x="1175" y="-237" on="0"/>
        <pt x="1143" y="-233" on="0"/>
        <pt x="1091" y="-212" on="0"/>
        <pt x="1056" y="-163" on="0"/>
        <pt x="1056" y="-133" on="1"/>
        <pt x="1056" y="-90" on="0"/>
        <pt x="1067" y="-56" on="1"/>
        <pt x="1094" y="23" on="0"/>
        <pt x="1320" y="338" on="1"/>
        <pt x="1388" y="433" on="0"/>
        <pt x="1388" y="474" on="1"/>
        <pt x="1388" y="505" on="0"/>
        <pt x="1356" y="505" on="1"/>
        <pt x="1313" y="505" on="0"/>
        <pt x="1255" y="461" on="1"/>
        <pt x="1131" y="367" on="0"/>
        <pt x="978" y="199" on="1"/>
        <pt x="936" y="131" on="0"/>
        <pt x="874" y="40" on="1"/>
        <pt x="865" y="27" on="0"/>
        <pt x="853" y="27" on="1"/>
        <pt x="813" y="27" on="0"/>
        <pt x="813" y="45" on="1"/>
        <pt x="813" y="49" on="0"/>
        <pt x="815" y="53" on="1"/>
        <pt x="981" y="341" on="0"/>
        <pt x="1001" y="422" on="1"/>
        <pt x="1007" y="450" on="0"/>
        <pt x="1007" y="481" on="0"/>
        <pt x="1006" y="490" on="1"/>
        <pt x="999" y="519" on="0"/>
        <pt x="941" y="519" on="0"/>
        <pt x="891" y="486" on="1"/>
        <pt x="805" y="431" on="0"/>
        <pt x="551" y="187" on="0"/>
        <pt x="434" y="56" on="1"/>
        <pt x="431" y="53" on="0"/>
        <pt x="427" y="53" on="1"/>
        <pt x="369" y="-20" on="0"/>
      </contour>
    </TTGlyph>
    <TTGlyph name="N" xMin="-77" yMin="-152" xMax="815" yMax="662">
      <contour>
        <pt x="-63" y="-140" on="1"/>
        <pt x="-68" y="-151" on="0"/>
        <pt x="-76" y="-151" on="0"/>
        <pt x="-76" y="-141" on="1"/>
        <pt x="-76" y="-83" on="0"/>
        <pt x="276" y="478" on="0"/>
        <pt x="336" y="549" on="1"/>
        <pt x="362" y="631" on="0"/>
        <pt x="395" y="656" on="1"/>
        <pt x="402" y="661" on="0"/>
        <pt x="431" y="661" on="0"/>
        <pt x="496" y="635" on="0"/>
        <pt x="496" y="617" on="1"/>
        <pt x="496" y="609" on="0"/>
        <pt x="488" y="603" on="1"/>
        <pt x="443" y="565" on="0"/>
        <pt x="393" y="355" on="0"/>
        <pt x="393" y="246" on="1"/>
        <pt x="393" y="116" on="0"/>
        <pt x="423" y="43" on="1"/>
        <pt x="464" y="149" on="0"/>
        <pt x="757" y="642" on="0"/>
        <pt x="774" y="642" on="1"/>
        <pt x="775" y="642" on="0"/>
        <pt x="783" y="643" on="1"/>
        <pt x="814" y="647" on="0"/>
        <pt x="814" y="638" on="1"/>
        <pt x="814" y="634" on="0"/>
        <pt x="807" y="622" on="1"/>
        <pt x="705" y="489" on="0"/>
        <pt x="485" y="135" on="0"/>
        <pt x="433" y="21" on="1"/>
        <pt x="453" y="-12" on="0"/>
        <pt x="480" y="-25" on="1"/>
        <pt x="492" y="-31" on="0"/>
        <pt x="514" y="-31" on="0"/>
        <pt x="526" y="-24" on="0"/>
        <pt x="530" y="-27" on="0"/>
        <pt x="530" y="-33" on="0"/>
        <pt x="528" y="-35" on="1"/>
        <pt x="505" y="-52" on="0"/>
        <pt x="486" y="-52" on="1"/>
        <pt x="426" y="-52" on="0"/>
        <pt x="342" y="63" on="0"/>
        <pt x="300" y="235" on="0"/>
        <pt x="300" y="312" on="1"/>
        <pt x="300" y="398" on="0"/>
        <pt x="319" y="484" on="1"/>
        <pt x="212" y="339" on="0"/>
        <pt x="-20" y="-40" on="0"/>
      </contour>
    </TTGlyph>
    <TTGlyph name="Nacute" xMin="-77" yMin="-152" xMax="815" yMax="808">
      <contour>
        <pt x="-63" y="-140" on="1"/>
        <pt x="-68" y="-151" on="0"/>
        <pt x="-76" y="-151" on="0"/>
        <pt x="-76" y="-141" on="1"/>
        <pt x="-76" y="-83" on="0"/>
        <pt x="276" y="478" on="0"/>
        <pt x="336" y="549" on="1"/>
        <pt x="362" y="631" on="0"/>
        <pt x="395" y="656" on="1"/>
        <pt x="402" y="661" on="0"/>
        <pt x="431" y="661" on="0"/>
        <pt x="496" y="635" on="0"/>
        <pt x="496" y="617" on="1"/>
        <pt x="496" y="609" on="0"/>
        <pt x="488" y="603" on="1"/>
        <pt x="443" y="565" on="0"/>
        <pt x="393" y="355" on="0"/>
        <pt x="393" y="246" on="1"/>
        <pt x="393" y="116" on="0"/>
        <pt x="423" y="43" on="1"/>
        <pt x="464" y="149" on="0"/>
        <pt x="757" y="642" on="0"/>
        <pt x="774" y="642" on="1"/>
        <pt x="775" y="642" on="0"/>
        <pt x="783" y="643" on="1"/>
        <pt x="814" y="647" on="0"/>
        <pt x="814" y="638" on="1"/>
        <pt x="814" y="634" on="0"/>
        <pt x="807" y="622" on="1"/>
        <pt x="705" y="489" on="0"/>
        <pt x="485" y="135" on="0"/>
        <pt x="433" y="21" on="1"/>
        <pt x="453" y="-12" on="0"/>
        <pt x="480" y="-25" on="1"/>
        <pt x="492" y="-31" on="0"/>
        <pt x="514" y="-31" on="0"/>
        <pt x="526" y="-24" on="0"/>
        <pt x="530" y="-27" on="0"/>
        <pt x="530" y="-33" on="0"/>
        <pt x="528" y="-35" on="1"/>
        <pt x="505" y="-52" on="0"/>
        <pt x="486" y="-52" on="1"/>
        <pt x="426" y="-52" on="0"/>
        <pt x="342" y="63" on="0"/>
        <pt x="300" y="235" on="0"/>
        <pt x="300" y="312" on="1"/>
        <pt x="300" y="398" on="0"/>
        <pt x="319" y="484" on="1"/>
        <pt x="212" y="339" on="0"/>
        <pt x="-20" y="-40" on="0"/>
      </contour>
      <contour>
        <pt x="773" y="773" on="1"/>
        <pt x="773" y="761" on="0"/>
        <pt x="728" y="723" on="0"/>
        <pt x="674" y="704" on="1"/>
        <pt x="614" y="682" on="0"/>
        <pt x="553" y="682" on="1"/>
        <pt x="529" y="682" on="0"/>
        <pt x="529" y="689" on="1"/>
        <pt x="529" y="694" on="0"/>
        <pt x="545" y="695" on="1"/>
        <pt x="597" y="699" on="0"/>
        <pt x="713" y="773" on="0"/>
        <pt x="713" y="796" on="1"/>
        <pt x="713" y="800" on="0"/>
        <pt x="709" y="807" on="0"/>
        <pt x="716" y="807" on="0"/>
        <pt x="755" y="794" on="0"/>
        <pt x="771" y="779" on="1"/>
        <pt x="773" y="776" on="0"/>
      </contour>
    </TTGlyph>
    <TTGlyph name="Ntilde" xMin="-77" yMin="-152" xMax="815" yMax="763">
      <contour>
        <pt x="-63" y="-140" on="1"/>
        <pt x="-68" y="-151" on="0"/>
        <pt x="-76" y="-151" on="0"/>
        <pt x="-76" y="-141" on="1"/>
        <pt x="-76" y="-83" on="0"/>
        <pt x="276" y="478" on="0"/>
        <pt x="336" y="549" on="1"/>
        <pt x="362" y="631" on="0"/>
        <pt x="395" y="656" on="1"/>
        <pt x="402" y="661" on="0"/>
        <pt x="431" y="661" on="0"/>
        <pt x="496" y="635" on="0"/>
        <pt x="496" y="617" on="1"/>
        <pt x="496" y="609" on="0"/>
        <pt x="488" y="603" on="1"/>
        <pt x="443" y="565" on="0"/>
        <pt x="393" y="355" on="0"/>
        <pt x="393" y="246" on="1"/>
        <pt x="393" y="116" on="0"/>
        <pt x="423" y="43" on="1"/>
        <pt x="464" y="149" on="0"/>
        <pt x="757" y="642" on="0"/>
        <pt x="774" y="642" on="1"/>
        <pt x="775" y="642" on="0"/>
        <pt x="783" y="643" on="1"/>
        <pt x="814" y="647" on="0"/>
        <pt x="814" y="638" on="1"/>
        <pt x="814" y="634" on="0"/>
        <pt x="807" y="622" on="1"/>
        <pt x="705" y="489" on="0"/>
        <pt x="485" y="135" on="0"/>
        <pt x="433" y="21" on="1"/>
        <pt x="453" y="-12" on="0"/>
        <pt x="480" y="-25" on="1"/>
        <pt x="492" y="-31" on="0"/>
        <pt x="514" y="-31" on="0"/>
        <pt x="526" y="-24" on="0"/>
        <pt x="530" y="-27" on="0"/>
        <pt x="530" y="-33" on="0"/>
        <pt x="528" y="-35" on="1"/>
        <pt x="505" y="-52" on="0"/>
        <pt x="486" y="-52" on="1"/>
        <pt x="426" y="-52" on="0"/>
        <pt x="342" y="63" on="0"/>
        <pt x="300" y="235" on="0"/>
        <pt x="300" y="312" on="1"/>
        <pt x="300" y="398" on="0"/>
        <pt x="319" y="484" on="1"/>
        <pt x="212" y="339" on="0"/>
        <pt x="-20" y="-40" on="0"/>
      </contour>
      <contour>
        <pt x="734" y="733" on="1"/>
        <pt x="768" y="733" on="0"/>
        <pt x="779" y="758" on="1"/>
        <pt x="790" y="757" on="0"/>
        <pt x="790" y="746" on="1"/>
        <pt x="790" y="731" on="0"/>
        <pt x="768" y="713" on="1"/>
        <pt x="733" y="687" on="0"/>
        <pt x="678" y="687" on="0"/>
        <pt x="648" y="706" on="0"/>
        <pt x="630" y="719" on="1"/>
        <pt x="610" y="733" on="0"/>
        <pt x="599" y="733" on="1"/>
        <pt x="574" y="733" on="0"/>
        <pt x="544" y="701" on="1"/>
        <pt x="535" y="692" on="0"/>
        <pt x="530" y="698" on="0"/>
        <pt x="530" y="702" on="0"/>
        <pt x="535" y="707" on="1"/>
        <pt x="591" y="763" on="0"/>
        <pt x="665" y="763" on="0"/>
        <pt x="714" y="742" on="0"/>
        <pt x="726" y="733" on="0"/>
      </contour>
    </TTGlyph>
    <TTGlyph name="O" xMin="135" yMin="-46" xMax="808" yMax="659">
      <contour>
        <pt x="808" y="423" on="0"/>
        <pt x="727" y="252" on="0"/>
        <pt x="657" y="163" on="1"/>
        <pt x="569" y="52" on="0"/>
        <pt x="451" y="-12" on="1"/>
        <pt x="389" y="-45" on="0"/>
        <pt x="323" y="-45" on="1"/>
        <pt x="234" y="-45" on="0"/>
        <pt x="181" y="18" on="1"/>
        <pt x="136" y="71" on="0"/>
        <pt x="136" y="143" on="1"/>
        <pt x="136" y="243" on="0"/>
        <pt x="209" y="361" on="1"/>
        <pt x="263" y="447" on="0"/>
        <pt x="420" y="582" on="0"/>
        <pt x="483" y="603" on="1"/>
        <pt x="524" y="615" on="0"/>
        <pt x="598" y="615" on="0"/>
        <pt x="625" y="590" on="1"/>
        <pt x="655" y="563" on="0"/>
        <pt x="655" y="510" on="1"/>
        <pt x="655" y="479" on="0"/>
        <pt x="644" y="446" on="1"/>
        <pt x="641" y="434" on="0"/>
        <pt x="637" y="442" on="1"/>
        <pt x="635" y="446" on="0"/>
        <pt x="641" y="469" on="0"/>
        <pt x="641" y="482" on="1"/>
        <pt x="641" y="526" on="0"/>
        <pt x="589" y="526" on="1"/>
        <pt x="514" y="526" on="0"/>
        <pt x="291" y="382" on="0"/>
        <pt x="235" y="305" on="1"/>
        <pt x="158" y="199" on="0"/>
        <pt x="158" y="114" on="1"/>
        <pt x="158" y="21" on="0"/>
        <pt x="262" y="4" on="1"/>
        <pt x="277" y="1" on="0"/>
        <pt x="293" y="1" on="1"/>
        <pt x="348" y="1" on="0"/>
        <pt x="426" y="29" on="1"/>
        <pt x="566" y="79" on="0"/>
        <pt x="654" y="187" on="1"/>
        <pt x="769" y="330" on="0"/>
        <pt x="769" y="507" on="1"/>
        <pt x="769" y="573" on="0"/>
        <pt x="740" y="636" on="0"/>
        <pt x="714" y="649" on="0"/>
        <pt x="694" y="643" on="0"/>
        <pt x="695" y="648" on="1"/>
        <pt x="696" y="658" on="0"/>
        <pt x="744" y="658" on="0"/>
        <pt x="768" y="638" on="1"/>
        <pt x="808" y="606" on="0"/>
      </contour>
    </TTGlyph>
    <TTGlyph name="OE" xMin="9" yMin="-52" xMax="1368" yMax="673">
      <contour>
        <pt x="1294" y="530" on="1"/>
        <pt x="1294" y="577" on="0"/>
        <pt x="1211" y="577" on="1"/>
        <pt x="1108" y="577" on="0"/>
        <pt x="753" y="429" on="0"/>
        <pt x="654" y="337" on="1"/>
        <pt x="631" y="315" on="1"/>
        <pt x="598" y="249" on="0"/>
        <pt x="532" y="165" on="1"/>
        <pt x="527" y="145" on="0"/>
        <pt x="527" y="126" on="1"/>
        <pt x="527" y="58" on="0"/>
        <pt x="600" y="22" on="1"/>
        <pt x="658" y="-7" on="0"/>
        <pt x="726" y="-7" on="1"/>
        <pt x="934" y="-7" on="0"/>
        <pt x="1144" y="106" on="1"/>
        <pt x="1286" y="182" on="0"/>
        <pt x="1354" y="280" on="1"/>
        <pt x="1368" y="299" on="0"/>
        <pt x="1368" y="290" on="1"/>
        <pt x="1368" y="286" on="0"/>
        <pt x="1365" y="278" on="1"/>
        <pt x="1338" y="202" on="0"/>
        <pt x="1027" y="-3" on="0"/>
        <pt x="867" y="-37" on="1"/>
        <pt x="801" y="-51" on="0"/>
        <pt x="667" y="-51" on="0"/>
        <pt x="609" y="-24" on="1"/>
        <pt x="510" y="24" on="0"/>
        <pt x="498" y="124" on="1"/>
        <pt x="416" y="37" on="0"/>
        <pt x="324" y="-12" on="1"/>
        <pt x="262" y="-45" on="0"/>
        <pt x="197" y="-45" on="1"/>
        <pt x="108" y="-45" on="0"/>
        <pt x="55" y="18" on="1"/>
        <pt x="10" y="71" on="0"/>
        <pt x="10" y="143" on="1"/>
        <pt x="10" y="243" on="0"/>
        <pt x="83" y="361" on="1"/>
        <pt x="137" y="447" on="0"/>
        <pt x="294" y="582" on="0"/>
        <pt x="397" y="615" on="0"/>
        <pt x="472" y="615" on="0"/>
        <pt x="499" y="590" on="1"/>
        <pt x="529" y="563" on="0"/>
        <pt x="529" y="510" on="1"/>
        <pt x="529" y="479" on="0"/>
        <pt x="518" y="446" on="1"/>
        <pt x="514" y="434" on="0"/>
        <pt x="508" y="446" on="0"/>
        <pt x="515" y="469" on="0"/>
        <pt x="515" y="482" on="1"/>
        <pt x="515" y="526" on="0"/>
        <pt x="463" y="526" on="1"/>
        <pt x="388" y="526" on="0"/>
        <pt x="165" y="382" on="0"/>
        <pt x="109" y="305" on="1"/>
        <pt x="32" y="199" on="0"/>
        <pt x="32" y="114" on="1"/>
        <pt x="32" y="21" on="0"/>
        <pt x="136" y="4" on="1"/>
        <pt x="151" y="1" on="0"/>
        <pt x="167" y="1" on="1"/>
        <pt x="222" y="1" on="0"/>
        <pt x="300" y="29" on="1"/>
        <pt x="415" y="69" on="0"/>
        <pt x="496" y="152" on="1"/>
        <pt x="498" y="281" on="0"/>
        <pt x="634" y="417" on="1"/>
        <pt x="642" y="460" on="0"/>
        <pt x="642" y="518" on="0"/>
        <pt x="639" y="581" on="0"/>
        <pt x="626" y="608" on="1"/>
        <pt x="604" y="654" on="0"/>
        <pt x="574" y="645" on="1"/>
        <pt x="569" y="643" on="0"/>
        <pt x="569" y="646" on="1"/>
        <pt x="570" y="658" on="0"/>
        <pt x="618" y="658" on="0"/>
        <pt x="642" y="638" on="1"/>
        <pt x="681" y="607" on="0"/>
        <pt x="681" y="525" on="1"/>
        <pt x="681" y="494" on="0"/>
        <pt x="677" y="457" on="1"/>
        <pt x="762" y="531" on="0"/>
        <pt x="968" y="641" on="0"/>
        <pt x="1113" y="673" on="0"/>
        <pt x="1227" y="673" on="0"/>
        <pt x="1310" y="620" on="0"/>
        <pt x="1314" y="532" on="0"/>
        <pt x="1293" y="490" on="1"/>
        <pt x="1290" y="484" on="0"/>
        <pt x="1287" y="484" on="1"/>
        <pt x="1280" y="482" on="0"/>
        <pt x="1294" y="515" on="0"/>
      </contour>
      <contour>
        <pt x="1048" y="306" on="1"/>
        <pt x="1054" y="298" on="0"/>
        <pt x="1054" y="289" on="0"/>
        <pt x="1052" y="286" on="1"/>
        <pt x="1047" y="279" on="0"/>
        <pt x="1032" y="289" on="1"/>
        <pt x="997" y="313" on="0"/>
        <pt x="922" y="313" on="1"/>
        <pt x="822" y="313" on="0"/>
        <pt x="739" y="288" on="1"/>
        <pt x="701" y="277" on="0"/>
        <pt x="687" y="277" on="1"/>
        <pt x="661" y="277" on="0"/>
        <pt x="654" y="298" on="1"/>
        <pt x="654" y="300" on="0"/>
        <pt x="654" y="301" on="1"/>
        <pt x="654" y="311" on="0"/>
        <pt x="692" y="343" on="0"/>
        <pt x="777" y="360" on="0"/>
        <pt x="860" y="360" on="0"/>
        <pt x="910" y="354" on="1"/>
        <pt x="1015" y="341" on="0"/>
      </contour>
    </TTGlyph>
    <TTGlyph name="Oacute" xMin="9" yMin="-46" xMax="682" yMax="823">
      <contour>
        <pt x="677" y="794" on="1"/>
        <pt x="679" y="791" on="0"/>
        <pt x="679" y="776" on="0"/>
        <pt x="634" y="738" on="0"/>
        <pt x="526" y="699" on="0"/>
        <pt x="437" y="696" on="0"/>
        <pt x="435" y="703" on="1"/>
        <pt x="434" y="709" on="0"/>
        <pt x="451" y="710" on="1"/>
        <pt x="502" y="713" on="0"/>
        <pt x="619" y="788" on="0"/>
        <pt x="619" y="811" on="1"/>
        <pt x="619" y="815" on="0"/>
        <pt x="615" y="822" on="0"/>
        <pt x="622" y="822" on="0"/>
        <pt x="662" y="808" on="0"/>
      </contour>
      <contour>
        <pt x="682" y="423" on="0"/>
        <pt x="601" y="252" on="0"/>
        <pt x="531" y="163" on="1"/>
        <pt x="444" y="53" on="0"/>
        <pt x="324" y="-12" on="1"/>
        <pt x="262" y="-45" on="0"/>
        <pt x="197" y="-45" on="1"/>
        <pt x="108" y="-45" on="0"/>
        <pt x="55" y="18" on="1"/>
        <pt x="10" y="71" on="0"/>
        <pt x="10" y="143" on="1"/>
        <pt x="10" y="243" on="0"/>
        <pt x="83" y="361" on="1"/>
        <pt x="137" y="447" on="0"/>
        <pt x="294" y="582" on="0"/>
        <pt x="397" y="615" on="0"/>
        <pt x="472" y="615" on="0"/>
        <pt x="499" y="590" on="1"/>
        <pt x="529" y="563" on="0"/>
        <pt x="529" y="510" on="1"/>
        <pt x="529" y="479" on="0"/>
        <pt x="518" y="446" on="1"/>
        <pt x="514" y="434" on="0"/>
        <pt x="508" y="446" on="0"/>
        <pt x="515" y="469" on="0"/>
        <pt x="515" y="482" on="1"/>
        <pt x="515" y="526" on="0"/>
        <pt x="463" y="526" on="1"/>
        <pt x="388" y="526" on="0"/>
        <pt x="165" y="382" on="0"/>
        <pt x="109" y="305" on="1"/>
        <pt x="32" y="199" on="0"/>
        <pt x="32" y="114" on="1"/>
        <pt x="32" y="21" on="0"/>
        <pt x="136" y="4" on="1"/>
        <pt x="151" y="1" on="0"/>
        <pt x="167" y="1" on="1"/>
        <pt x="222" y="1" on="0"/>
        <pt x="300" y="29" on="1"/>
        <pt x="441" y="79" on="0"/>
        <pt x="527" y="187" on="1"/>
        <pt x="642" y="330" on="0"/>
        <pt x="642" y="505" on="1"/>
        <pt x="642" y="519" on="0"/>
        <pt x="639" y="581" on="0"/>
        <pt x="626" y="608" on="1"/>
        <pt x="604" y="654" on="0"/>
        <pt x="574" y="645" on="1"/>
        <pt x="569" y="643" on="0"/>
        <pt x="569" y="646" on="1"/>
        <pt x="570" y="658" on="0"/>
        <pt x="618" y="658" on="0"/>
        <pt x="642" y="638" on="1"/>
        <pt x="682" y="606" on="0"/>
      </contour>
    </TTGlyph>
    <TTGlyph name="Ocircumflex" xMin="9" yMin="-46" xMax="748" yMax="839">
      <contour>
        <pt x="682" y="423" on="0"/>
        <pt x="601" y="252" on="0"/>
        <pt x="531" y="163" on="1"/>
        <pt x="444" y="53" on="0"/>
        <pt x="324" y="-12" on="1"/>
        <pt x="262" y="-45" on="0"/>
        <pt x="197" y="-45" on="1"/>
        <pt x="108" y="-45" on="0"/>
        <pt x="55" y="18" on="1"/>
        <pt x="10" y="71" on="0"/>
        <pt x="10" y="143" on="1"/>
        <pt x="10" y="243" on="0"/>
        <pt x="83" y="361" on="1"/>
        <pt x="137" y="447" on="0"/>
        <pt x="294" y="582" on="0"/>
        <pt x="397" y="615" on="0"/>
        <pt x="472" y="615" on="0"/>
        <pt x="499" y="590" on="1"/>
        <pt x="529" y="563" on="0"/>
        <pt x="529" y="510" on="1"/>
        <pt x="529" y="479" on="0"/>
        <pt x="518" y="446" on="1"/>
        <pt x="514" y="434" on="0"/>
        <pt x="508" y="446" on="0"/>
        <pt x="515" y="469" on="0"/>
        <pt x="515" y="482" on="1"/>
        <pt x="515" y="526" on="0"/>
        <pt x="463" y="526" on="1"/>
        <pt x="388" y="526" on="0"/>
        <pt x="165" y="382" on="0"/>
        <pt x="109" y="305" on="1"/>
        <pt x="32" y="199" on="0"/>
        <pt x="32" y="114" on="1"/>
        <pt x="32" y="21" on="0"/>
        <pt x="136" y="4" on="1"/>
        <pt x="151" y="1" on="0"/>
        <pt x="167" y="1" on="1"/>
        <pt x="222" y="1" on="0"/>
        <pt x="300" y="29" on="1"/>
        <pt x="441" y="79" on="0"/>
        <pt x="527" y="187" on="1"/>
        <pt x="642" y="330" on="0"/>
        <pt x="642" y="505" on="1"/>
        <pt x="642" y="519" on="0"/>
        <pt x="639" y="581" on="0"/>
        <pt x="626" y="608" on="1"/>
        <pt x="604" y="654" on="0"/>
        <pt x="574" y="645" on="1"/>
        <pt x="569" y="643" on="0"/>
        <pt x="569" y="646" on="1"/>
        <pt x="570" y="658" on="0"/>
        <pt x="618" y="658" on="0"/>
        <pt x="642" y="638" on="1"/>
        <pt x="682" y="606" on="0"/>
      </contour>
      <contour>
        <pt x="729" y="707" on="1"/>
        <pt x="732" y="707" on="0"/>
        <pt x="747" y="709" on="0"/>
        <pt x="747" y="705" on="1"/>
        <pt x="747" y="700" on="0"/>
        <pt x="709" y="689" on="0"/>
        <pt x="664" y="689" on="0"/>
        <pt x="644" y="703" on="1"/>
        <pt x="612" y="725" on="0"/>
        <pt x="613" y="757" on="1"/>
        <pt x="580" y="730" on="0"/>
        <pt x="506" y="698" on="0"/>
        <pt x="480" y="698" on="1"/>
        <pt x="479" y="698" on="0"/>
        <pt x="477" y="698" on="1"/>
        <pt x="472" y="698" on="0"/>
        <pt x="472" y="704" on="0"/>
        <pt x="479" y="716" on="0"/>
        <pt x="486" y="716" on="0"/>
        <pt x="487" y="716" on="1"/>
        <pt x="509" y="716" on="0"/>
        <pt x="585" y="756" on="0"/>
        <pt x="621" y="785" on="1"/>
        <pt x="631" y="801" on="0"/>
        <pt x="677" y="839" on="0"/>
        <pt x="681" y="839" on="0"/>
        <pt x="668" y="813" on="0"/>
        <pt x="668" y="798" on="1"/>
        <pt x="668" y="752" on="0"/>
        <pt x="711" y="707" on="0"/>
      </contour>
    </TTGlyph>
    <TTGlyph name="Odieresis" xMin="9" yMin="-46" xMax="702" yMax="780">
      <contour>
        <pt x="677" y="780" on="1"/>
        <pt x="702" y="780" on="0"/>
        <pt x="702" y="753" on="1"/>
        <pt x="702" y="738" on="0"/>
        <pt x="676" y="709" on="0"/>
        <pt x="645" y="701" on="0"/>
        <pt x="625" y="717" on="0"/>
        <pt x="629" y="747" on="0"/>
        <pt x="641" y="761" on="1"/>
        <pt x="657" y="780" on="0"/>
      </contour>
      <contour>
        <pt x="504" y="716" on="0"/>
        <pt x="507" y="748" on="0"/>
        <pt x="535" y="780" on="0"/>
        <pt x="558" y="780" on="1"/>
        <pt x="565" y="780" on="0"/>
        <pt x="582" y="766" on="0"/>
        <pt x="578" y="737" on="0"/>
        <pt x="554" y="709" on="0"/>
        <pt x="523" y="701" on="0"/>
      </contour>
      <contour>
        <pt x="682" y="423" on="0"/>
        <pt x="601" y="252" on="0"/>
        <pt x="531" y="163" on="1"/>
        <pt x="444" y="53" on="0"/>
        <pt x="324" y="-12" on="1"/>
        <pt x="262" y="-45" on="0"/>
        <pt x="197" y="-45" on="1"/>
        <pt x="108" y="-45" on="0"/>
        <pt x="55" y="18" on="1"/>
        <pt x="10" y="71" on="0"/>
        <pt x="10" y="143" on="1"/>
        <pt x="10" y="243" on="0"/>
        <pt x="83" y="361" on="1"/>
        <pt x="137" y="447" on="0"/>
        <pt x="294" y="582" on="0"/>
        <pt x="397" y="615" on="0"/>
        <pt x="472" y="615" on="0"/>
        <pt x="499" y="590" on="1"/>
        <pt x="529" y="563" on="0"/>
        <pt x="529" y="510" on="1"/>
        <pt x="529" y="479" on="0"/>
        <pt x="518" y="446" on="1"/>
        <pt x="514" y="434" on="0"/>
        <pt x="508" y="446" on="0"/>
        <pt x="515" y="469" on="0"/>
        <pt x="515" y="482" on="1"/>
        <pt x="515" y="526" on="0"/>
        <pt x="463" y="526" on="1"/>
        <pt x="388" y="526" on="0"/>
        <pt x="165" y="382" on="0"/>
        <pt x="109" y="305" on="1"/>
        <pt x="32" y="199" on="0"/>
        <pt x="32" y="114" on="1"/>
        <pt x="32" y="21" on="0"/>
        <pt x="136" y="4" on="1"/>
        <pt x="151" y="1" on="0"/>
        <pt x="167" y="1" on="1"/>
        <pt x="222" y="1" on="0"/>
        <pt x="300" y="29" on="1"/>
        <pt x="441" y="79" on="0"/>
        <pt x="527" y="187" on="1"/>
        <pt x="642" y="330" on="0"/>
        <pt x="642" y="505" on="1"/>
        <pt x="642" y="519" on="0"/>
        <pt x="639" y="581" on="0"/>
        <pt x="626" y="608" on="1"/>
        <pt x="604" y="654" on="0"/>
        <pt x="574" y="645" on="1"/>
        <pt x="569" y="643" on="0"/>
        <pt x="569" y="646" on="1"/>
        <pt x="570" y="658" on="0"/>
        <pt x="618" y="658" on="0"/>
        <pt x="642" y="638" on="1"/>
        <pt x="682" y="606" on="0"/>
      </contour>
    </TTGlyph>
    <TTGlyph name="Ograve" xMin="9" yMin="-46" xMax="682" yMax="824">
      <contour>
        <pt x="576" y="710" on="0"/>
        <pt x="485" y="751" on="0"/>
        <pt x="452" y="787" on="0"/>
        <pt x="452" y="801" on="0"/>
        <pt x="461" y="813" on="0"/>
        <pt x="504" y="824" on="0"/>
        <pt x="511" y="824" on="0"/>
        <pt x="507" y="816" on="0"/>
        <pt x="507" y="811" on="1"/>
        <pt x="507" y="791" on="0"/>
        <pt x="597" y="720" on="0"/>
        <pt x="642" y="713" on="1"/>
        <pt x="656" y="711" on="0"/>
        <pt x="656" y="700" on="0"/>
      </contour>
      <contour>
        <pt x="682" y="423" on="0"/>
        <pt x="601" y="252" on="0"/>
        <pt x="531" y="163" on="1"/>
        <pt x="444" y="53" on="0"/>
        <pt x="324" y="-12" on="1"/>
        <pt x="262" y="-45" on="0"/>
        <pt x="197" y="-45" on="1"/>
        <pt x="108" y="-45" on="0"/>
        <pt x="55" y="18" on="1"/>
        <pt x="10" y="71" on="0"/>
        <pt x="10" y="143" on="1"/>
        <pt x="10" y="243" on="0"/>
        <pt x="83" y="361" on="1"/>
        <pt x="137" y="447" on="0"/>
        <pt x="294" y="582" on="0"/>
        <pt x="397" y="615" on="0"/>
        <pt x="472" y="615" on="0"/>
        <pt x="499" y="590" on="1"/>
        <pt x="529" y="563" on="0"/>
        <pt x="529" y="510" on="1"/>
        <pt x="529" y="479" on="0"/>
        <pt x="518" y="446" on="1"/>
        <pt x="514" y="434" on="0"/>
        <pt x="508" y="446" on="0"/>
        <pt x="515" y="469" on="0"/>
        <pt x="515" y="482" on="1"/>
        <pt x="515" y="526" on="0"/>
        <pt x="463" y="526" on="1"/>
        <pt x="388" y="526" on="0"/>
        <pt x="165" y="382" on="0"/>
        <pt x="109" y="305" on="1"/>
        <pt x="32" y="199" on="0"/>
        <pt x="32" y="114" on="1"/>
        <pt x="32" y="21" on="0"/>
        <pt x="136" y="4" on="1"/>
        <pt x="151" y="1" on="0"/>
        <pt x="167" y="1" on="1"/>
        <pt x="222" y="1" on="0"/>
        <pt x="300" y="29" on="1"/>
        <pt x="441" y="79" on="0"/>
        <pt x="527" y="187" on="1"/>
        <pt x="642" y="330" on="0"/>
        <pt x="642" y="505" on="1"/>
        <pt x="642" y="519" on="0"/>
        <pt x="639" y="581" on="0"/>
        <pt x="626" y="608" on="1"/>
        <pt x="604" y="654" on="0"/>
        <pt x="574" y="645" on="1"/>
        <pt x="569" y="643" on="0"/>
        <pt x="569" y="646" on="1"/>
        <pt x="570" y="658" on="0"/>
        <pt x="618" y="658" on="0"/>
        <pt x="642" y="638" on="1"/>
        <pt x="682" y="606" on="0"/>
      </contour>
    </TTGlyph>
    <TTGlyph name="Oslash" xMin="9" yMin="-46" xMax="682" yMax="659">
      <contour>
        <pt x="682" y="423" on="0"/>
        <pt x="601" y="252" on="0"/>
        <pt x="531" y="163" on="1"/>
        <pt x="444" y="53" on="0"/>
        <pt x="324" y="-12" on="1"/>
        <pt x="262" y="-45" on="0"/>
        <pt x="197" y="-45" on="1"/>
        <pt x="108" y="-45" on="0"/>
        <pt x="55" y="18" on="1"/>
        <pt x="10" y="71" on="0"/>
        <pt x="10" y="143" on="1"/>
        <pt x="10" y="243" on="0"/>
        <pt x="83" y="361" on="1"/>
        <pt x="137" y="447" on="0"/>
        <pt x="294" y="582" on="0"/>
        <pt x="397" y="615" on="0"/>
        <pt x="472" y="615" on="0"/>
        <pt x="499" y="590" on="1"/>
        <pt x="529" y="563" on="0"/>
        <pt x="529" y="510" on="1"/>
        <pt x="529" y="479" on="0"/>
        <pt x="518" y="446" on="1"/>
        <pt x="514" y="434" on="0"/>
        <pt x="508" y="446" on="0"/>
        <pt x="515" y="469" on="0"/>
        <pt x="515" y="482" on="1"/>
        <pt x="515" y="526" on="0"/>
        <pt x="463" y="526" on="1"/>
        <pt x="388" y="526" on="0"/>
        <pt x="165" y="382" on="0"/>
        <pt x="109" y="305" on="1"/>
        <pt x="32" y="199" on="0"/>
        <pt x="32" y="114" on="1"/>
        <pt x="32" y="21" on="0"/>
        <pt x="136" y="4" on="1"/>
        <pt x="151" y="1" on="0"/>
        <pt x="167" y="1" on="1"/>
        <pt x="222" y="1" on="0"/>
        <pt x="300" y="29" on="1"/>
        <pt x="441" y="79" on="0"/>
        <pt x="527" y="187" on="1"/>
        <pt x="642" y="330" on="0"/>
        <pt x="642" y="505" on="1"/>
        <pt x="642" y="519" on="0"/>
        <pt x="639" y="581" on="0"/>
        <pt x="626" y="608" on="1"/>
        <pt x="604" y="654" on="0"/>
        <pt x="574" y="645" on="1"/>
        <pt x="569" y="643" on="0"/>
        <pt x="569" y="646" on="1"/>
        <pt x="570" y="658" on="0"/>
        <pt x="618" y="658" on="0"/>
        <pt x="642" y="638" on="1"/>
        <pt x="682" y="606" on="0"/>
      </contour>
    </TTGlyph>
    <TTGlyph name="Otilde" xMin="9" yMin="-46" xMax="682" yMax="659">
      <contour>
        <pt x="682" y="423" on="0"/>
        <pt x="601" y="252" on="0"/>
        <pt x="531" y="163" on="1"/>
        <pt x="444" y="53" on="0"/>
        <pt x="324" y="-12" on="1"/>
        <pt x="262" y="-45" on="0"/>
        <pt x="197" y="-45" on="1"/>
        <pt x="108" y="-45" on="0"/>
        <pt x="55" y="18" on="1"/>
        <pt x="10" y="71" on="0"/>
        <pt x="10" y="143" on="1"/>
        <pt x="10" y="243" on="0"/>
        <pt x="83" y="361" on="1"/>
        <pt x="137" y="447" on="0"/>
        <pt x="294" y="582" on="0"/>
        <pt x="397" y="615" on="0"/>
        <pt x="472" y="615" on="0"/>
        <pt x="499" y="590" on="1"/>
        <pt x="529" y="563" on="0"/>
        <pt x="529" y="510" on="1"/>
        <pt x="529" y="479" on="0"/>
        <pt x="518" y="446" on="1"/>
        <pt x="514" y="434" on="0"/>
        <pt x="508" y="446" on="0"/>
        <pt x="515" y="469" on="0"/>
        <pt x="515" y="482" on="1"/>
        <pt x="515" y="526" on="0"/>
        <pt x="463" y="526" on="1"/>
        <pt x="388" y="526" on="0"/>
        <pt x="165" y="382" on="0"/>
        <pt x="109" y="305" on="1"/>
        <pt x="32" y="199" on="0"/>
        <pt x="32" y="114" on="1"/>
        <pt x="32" y="21" on="0"/>
        <pt x="136" y="4" on="1"/>
        <pt x="151" y="1" on="0"/>
        <pt x="167" y="1" on="1"/>
        <pt x="222" y="1" on="0"/>
        <pt x="300" y="29" on="1"/>
        <pt x="441" y="79" on="0"/>
        <pt x="527" y="187" on="1"/>
        <pt x="642" y="330" on="0"/>
        <pt x="642" y="505" on="1"/>
        <pt x="642" y="519" on="0"/>
        <pt x="639" y="581" on="0"/>
        <pt x="626" y="608" on="1"/>
        <pt x="604" y="654" on="0"/>
        <pt x="574" y="645" on="1"/>
        <pt x="569" y="643" on="0"/>
        <pt x="569" y="646" on="1"/>
        <pt x="570" y="658" on="0"/>
        <pt x="618" y="658" on="0"/>
        <pt x="642" y="638" on="1"/>
        <pt x="682" y="606" on="0"/>
      </contour>
    </TTGlyph>
    <TTGlyph name="P" xMin="-16" yMin="-34" xMax="726" yMax="668">
      <contour>
        <pt x="-16" y="-24" on="1"/>
        <pt x="-16" y="13" on="0"/>
        <pt x="92" y="180" on="1"/>
        <pt x="52" y="190" on="0"/>
        <pt x="26" y="210" on="1"/>
        <pt x="-4" y="234" on="0"/>
        <pt x="-4" y="286" on="0"/>
        <pt x="23" y="311" on="0"/>
        <pt x="23" y="303" on="1"/>
        <pt x="23" y="299" on="0"/>
        <pt x="11" y="283" on="0"/>
        <pt x="11" y="274" on="1"/>
        <pt x="11" y="242" on="0"/>
        <pt x="63" y="201" on="0"/>
        <pt x="102" y="195" on="1"/>
        <pt x="180" y="311" on="0"/>
        <pt x="338" y="516" on="0"/>
        <pt x="351" y="516" on="1"/>
        <pt x="357" y="516" on="0"/>
        <pt x="366" y="502" on="0"/>
        <pt x="366" y="495" on="1"/>
        <pt x="240" y="339" on="0"/>
        <pt x="137" y="190" on="1"/>
        <pt x="147" y="189" on="0"/>
        <pt x="158" y="189" on="1"/>
        <pt x="247" y="189" on="0"/>
        <pt x="492" y="270" on="0"/>
        <pt x="617" y="355" on="0"/>
        <pt x="677" y="442" on="0"/>
        <pt x="677" y="516" on="0"/>
        <pt x="630" y="574" on="0"/>
        <pt x="547" y="595" on="0"/>
        <pt x="516" y="595" on="1"/>
        <pt x="408" y="595" on="0"/>
        <pt x="133" y="507" on="0"/>
        <pt x="84" y="466" on="1"/>
        <pt x="67" y="453" on="0"/>
        <pt x="77" y="436" on="0"/>
        <pt x="71" y="434" on="0"/>
        <pt x="66" y="438" on="1"/>
        <pt x="45" y="450" on="0"/>
        <pt x="33" y="487" on="0"/>
        <pt x="33" y="504" on="0"/>
        <pt x="38" y="509" on="1"/>
        <pt x="75" y="562" on="0"/>
        <pt x="346" y="652" on="0"/>
        <pt x="480" y="665" on="1"/>
        <pt x="503" y="667" on="0"/>
        <pt x="572" y="667" on="0"/>
        <pt x="665" y="641" on="0"/>
        <pt x="692" y="610" on="1"/>
        <pt x="726" y="572" on="0"/>
        <pt x="726" y="517" on="1"/>
        <pt x="726" y="442" on="0"/>
        <pt x="660" y="367" on="1"/>
        <pt x="622" y="324" on="0"/>
        <pt x="568" y="292" on="1"/>
        <pt x="484" y="244" on="0"/>
        <pt x="249" y="172" on="0"/>
        <pt x="166" y="172" on="1"/>
        <pt x="145" y="172" on="0"/>
        <pt x="125" y="174" on="1"/>
        <pt x="36" y="46" on="0"/>
        <pt x="12" y="-17" on="1"/>
        <pt x="6" y="-33" on="0"/>
        <pt x="-16" y="-33" on="0"/>
      </contour>
    </TTGlyph>
    <TTGlyph name="Q" xMin="-66" yMin="-234" xMax="754" yMax="670">
      <contour>
        <pt x="647" y="-214" on="1"/>
        <pt x="647" y="-187" on="0"/>
        <pt x="590" y="-168" on="1"/>
        <pt x="506" y="-140" on="0"/>
        <pt x="372" y="-140" on="1"/>
        <pt x="250" y="-140" on="0"/>
        <pt x="160" y="-159" on="1"/>
        <pt x="127" y="-166" on="0"/>
        <pt x="69" y="-184" on="1"/>
        <pt x="-10" y="-208" on="0"/>
        <pt x="-31" y="-208" on="1"/>
        <pt x="-66" y="-208" on="0"/>
        <pt x="-66" y="-186" on="1"/>
        <pt x="-66" y="-142" on="0"/>
        <pt x="8" y="-107" on="1"/>
        <pt x="42" y="-91" on="0"/>
        <pt x="89" y="-79" on="1"/>
        <pt x="27" y="-57" on="0"/>
        <pt x="27" y="34" on="1"/>
        <pt x="27" y="39" on="0"/>
        <pt x="27" y="45" on="1"/>
        <pt x="36" y="210" on="0"/>
        <pt x="293" y="555" on="0"/>
        <pt x="455" y="637" on="1"/>
        <pt x="521" y="670" on="0"/>
        <pt x="584" y="670" on="1"/>
        <pt x="645" y="670" on="0"/>
        <pt x="696" y="634" on="1"/>
        <pt x="753" y="593" on="0"/>
        <pt x="753" y="498" on="1"/>
        <pt x="753" y="396" on="0"/>
        <pt x="656" y="264" on="1"/>
        <pt x="591" y="175" on="0"/>
        <pt x="400" y="19" on="0"/>
        <pt x="286" y="-16" on="0"/>
        <pt x="206" y="-16" on="0"/>
        <pt x="155" y="35" on="0"/>
        <pt x="155" y="79" on="1"/>
        <pt x="155" y="119" on="0"/>
        <pt x="176" y="167" on="1"/>
        <pt x="180" y="176" on="0"/>
        <pt x="187" y="170" on="0"/>
        <pt x="175" y="138" on="0"/>
        <pt x="175" y="121" on="1"/>
        <pt x="175" y="83" on="0"/>
        <pt x="225" y="83" on="1"/>
        <pt x="306" y="83" on="0"/>
        <pt x="570" y="240" on="0"/>
        <pt x="635" y="319" on="1"/>
        <pt x="735" y="439" on="0"/>
        <pt x="735" y="525" on="1"/>
        <pt x="735" y="604" on="0"/>
        <pt x="640" y="620" on="1"/>
        <pt x="627" y="623" on="0"/>
        <pt x="611" y="623" on="1"/>
        <pt x="556" y="623" on="0"/>
        <pt x="475" y="595" on="1"/>
        <pt x="297" y="536" on="0"/>
        <pt x="83" y="235" on="0"/>
        <pt x="74" y="48" on="1"/>
        <pt x="74" y="38" on="0"/>
        <pt x="74" y="29" on="1"/>
        <pt x="74" y="-18" on="0"/>
        <pt x="102" y="-69" on="0"/>
        <pt x="125" y="-71" on="1"/>
        <pt x="133" y="-70" on="1"/>
        <pt x="202" y="-57" on="0"/>
        <pt x="341" y="-57" on="0"/>
        <pt x="407" y="-64" on="1"/>
        <pt x="577" y="-80" on="0"/>
        <pt x="636" y="-138" on="1"/>
        <pt x="661" y="-164" on="0"/>
        <pt x="661" y="-197" on="1"/>
        <pt x="661" y="-209" on="0"/>
        <pt x="655" y="-233" on="0"/>
        <pt x="649" y="-233" on="1"/>
        <pt x="643" y="-232" on="0"/>
        <pt x="647" y="-219" on="0"/>
      </contour>
    </TTGlyph>
    <TTGlyph name="R" xMin="-16" yMin="-47" xMax="710" yMax="656">
      <contour>
        <pt x="-15" y="-37" on="1"/>
        <pt x="-15" y="11" on="0"/>
        <pt x="129" y="221" on="1"/>
        <pt x="124" y="239" on="0"/>
        <pt x="124" y="269" on="0"/>
        <pt x="174" y="309" on="0"/>
        <pt x="187" y="309" on="1"/>
        <pt x="189" y="309" on="0"/>
        <pt x="190" y="309" on="1"/>
        <pt x="249" y="390" on="0"/>
        <pt x="341" y="502" on="0"/>
        <pt x="357" y="502" on="0"/>
        <pt x="366" y="489" on="0"/>
        <pt x="366" y="482" on="1"/>
        <pt x="286" y="383" on="0"/>
        <pt x="202" y="268" on="1"/>
        <pt x="204" y="261" on="1"/>
        <pt x="240" y="264" on="1"/>
        <pt x="316" y="269" on="0"/>
        <pt x="494" y="328" on="0"/>
        <pt x="551" y="366" on="1"/>
        <pt x="669" y="446" on="0"/>
        <pt x="669" y="513" on="1"/>
        <pt x="669" y="542" on="0"/>
        <pt x="591" y="582" on="0"/>
        <pt x="425" y="582" on="0"/>
        <pt x="140" y="501" on="0"/>
        <pt x="84" y="453" on="1"/>
        <pt x="68" y="439" on="0"/>
        <pt x="77" y="423" on="0"/>
        <pt x="71" y="421" on="0"/>
        <pt x="65" y="425" on="1"/>
        <pt x="44" y="437" on="0"/>
        <pt x="33" y="473" on="0"/>
        <pt x="33" y="491" on="0"/>
        <pt x="38" y="495" on="1"/>
        <pt x="71" y="543" on="0"/>
        <pt x="300" y="628" on="0"/>
        <pt x="494" y="655" on="0"/>
        <pt x="587" y="655" on="0"/>
        <pt x="648" y="643" on="0"/>
        <pt x="672" y="622" on="1"/>
        <pt x="709" y="591" on="0"/>
        <pt x="709" y="535" on="1"/>
        <pt x="709" y="480" on="0"/>
        <pt x="627" y="386" on="0"/>
        <pt x="498" y="311" on="0"/>
        <pt x="406" y="281" on="1"/>
        <pt x="299" y="246" on="0"/>
        <pt x="209" y="246" on="1"/>
        <pt x="241" y="166" on="0"/>
        <pt x="434" y="3" on="0"/>
        <pt x="497" y="3" on="1"/>
        <pt x="522" y="3" on="0"/>
        <pt x="560" y="27" on="0"/>
        <pt x="563" y="45" on="1"/>
        <pt x="563" y="50" on="0"/>
        <pt x="568" y="48" on="1"/>
        <pt x="570" y="45" on="0"/>
        <pt x="570" y="43" on="1"/>
        <pt x="562" y="-24" on="0"/>
        <pt x="456" y="-24" on="1"/>
        <pt x="395" y="-24" on="0"/>
        <pt x="263" y="40" on="0"/>
        <pt x="170" y="136" on="0"/>
        <pt x="143" y="187" on="1"/>
        <pt x="37" y="33" on="0"/>
        <pt x="12" y="-30" on="1"/>
        <pt x="6" y="-46" on="0"/>
        <pt x="-15" y="-46" on="0"/>
      </contour>
    </TTGlyph>
    <TTGlyph name="Racute" xMin="-16" yMin="-47" xMax="761" yMax="840">
      <contour>
        <pt x="-15" y="-37" on="1"/>
        <pt x="-15" y="11" on="0"/>
        <pt x="129" y="221" on="1"/>
        <pt x="124" y="239" on="0"/>
        <pt x="124" y="269" on="0"/>
        <pt x="174" y="309" on="0"/>
        <pt x="187" y="309" on="1"/>
        <pt x="189" y="309" on="0"/>
        <pt x="190" y="309" on="1"/>
        <pt x="249" y="390" on="0"/>
        <pt x="341" y="502" on="0"/>
        <pt x="357" y="502" on="0"/>
        <pt x="366" y="489" on="0"/>
        <pt x="366" y="482" on="1"/>
        <pt x="286" y="383" on="0"/>
        <pt x="202" y="268" on="1"/>
        <pt x="204" y="261" on="1"/>
        <pt x="240" y="264" on="1"/>
        <pt x="316" y="269" on="0"/>
        <pt x="494" y="328" on="0"/>
        <pt x="551" y="366" on="1"/>
        <pt x="669" y="446" on="0"/>
        <pt x="669" y="513" on="1"/>
        <pt x="669" y="542" on="0"/>
        <pt x="591" y="582" on="0"/>
        <pt x="425" y="582" on="0"/>
        <pt x="140" y="501" on="0"/>
        <pt x="84" y="453" on="1"/>
        <pt x="68" y="439" on="0"/>
        <pt x="77" y="423" on="0"/>
        <pt x="71" y="421" on="0"/>
        <pt x="65" y="425" on="1"/>
        <pt x="44" y="437" on="0"/>
        <pt x="33" y="473" on="0"/>
        <pt x="33" y="491" on="0"/>
        <pt x="38" y="495" on="1"/>
        <pt x="71" y="543" on="0"/>
        <pt x="300" y="628" on="0"/>
        <pt x="494" y="655" on="0"/>
        <pt x="587" y="655" on="0"/>
        <pt x="648" y="643" on="0"/>
        <pt x="672" y="622" on="1"/>
        <pt x="709" y="591" on="0"/>
        <pt x="709" y="535" on="1"/>
        <pt x="709" y="480" on="0"/>
        <pt x="627" y="386" on="0"/>
        <pt x="498" y="311" on="0"/>
        <pt x="406" y="281" on="1"/>
        <pt x="299" y="246" on="0"/>
        <pt x="209" y="246" on="1"/>
        <pt x="241" y="166" on="0"/>
        <pt x="434" y="3" on="0"/>
        <pt x="497" y="3" on="1"/>
        <pt x="522" y="3" on="0"/>
        <pt x="560" y="27" on="0"/>
        <pt x="563" y="45" on="1"/>
        <pt x="563" y="50" on="0"/>
        <pt x="568" y="48" on="1"/>
        <pt x="570" y="45" on="0"/>
        <pt x="570" y="43" on="1"/>
        <pt x="562" y="-24" on="0"/>
        <pt x="456" y="-24" on="1"/>
        <pt x="395" y="-24" on="0"/>
        <pt x="263" y="40" on="0"/>
        <pt x="170" y="136" on="0"/>
        <pt x="143" y="187" on="1"/>
        <pt x="37" y="33" on="0"/>
        <pt x="12" y="-30" on="1"/>
        <pt x="6" y="-46" on="0"/>
        <pt x="-15" y="-46" on="0"/>
      </contour>
      <contour>
        <pt x="761" y="805" on="1"/>
        <pt x="761" y="793" on="0"/>
        <pt x="716" y="755" on="0"/>
        <pt x="662" y="736" on="1"/>
        <pt x="602" y="714" on="0"/>
        <pt x="541" y="714" on="1"/>
        <pt x="517" y="714" on="0"/>
        <pt x="517" y="721" on="1"/>
        <pt x="517" y="726" on="0"/>
        <pt x="533" y="727" on="1"/>
        <pt x="585" y="731" on="0"/>
        <pt x="701" y="805" on="0"/>
        <pt x="701" y="828" on="1"/>
        <pt x="701" y="832" on="0"/>
        <pt x="697" y="839" on="0"/>
        <pt x="704" y="839" on="0"/>
        <pt x="743" y="826" on="0"/>
        <pt x="759" y="811" on="1"/>
        <pt x="761" y="808" on="0"/>
      </contour>
    </TTGlyph>
    <TTGlyph name="Rcaron" xMin="-16" yMin="-47" xMax="774" yMax="871">
      <contour>
        <pt x="-15" y="-37" on="1"/>
        <pt x="-15" y="11" on="0"/>
        <pt x="129" y="221" on="1"/>
        <pt x="124" y="239" on="0"/>
        <pt x="124" y="269" on="0"/>
        <pt x="174" y="309" on="0"/>
        <pt x="187" y="309" on="1"/>
        <pt x="189" y="309" on="0"/>
        <pt x="190" y="309" on="1"/>
        <pt x="249" y="390" on="0"/>
        <pt x="341" y="502" on="0"/>
        <pt x="357" y="502" on="0"/>
        <pt x="366" y="489" on="0"/>
        <pt x="366" y="482" on="1"/>
        <pt x="286" y="383" on="0"/>
        <pt x="202" y="268" on="1"/>
        <pt x="204" y="261" on="1"/>
        <pt x="240" y="264" on="1"/>
        <pt x="316" y="269" on="0"/>
        <pt x="494" y="328" on="0"/>
        <pt x="551" y="366" on="1"/>
        <pt x="669" y="446" on="0"/>
        <pt x="669" y="513" on="1"/>
        <pt x="669" y="542" on="0"/>
        <pt x="591" y="582" on="0"/>
        <pt x="425" y="582" on="0"/>
        <pt x="140" y="501" on="0"/>
        <pt x="84" y="453" on="1"/>
        <pt x="68" y="439" on="0"/>
        <pt x="77" y="423" on="0"/>
        <pt x="71" y="421" on="0"/>
        <pt x="65" y="425" on="1"/>
        <pt x="44" y="437" on="0"/>
        <pt x="33" y="473" on="0"/>
        <pt x="33" y="491" on="0"/>
        <pt x="38" y="495" on="1"/>
        <pt x="71" y="543" on="0"/>
        <pt x="300" y="628" on="0"/>
        <pt x="494" y="655" on="0"/>
        <pt x="587" y="655" on="0"/>
        <pt x="648" y="643" on="0"/>
        <pt x="672" y="622" on="1"/>
        <pt x="709" y="591" on="0"/>
        <pt x="709" y="535" on="1"/>
        <pt x="709" y="480" on="0"/>
        <pt x="627" y="386" on="0"/>
        <pt x="498" y="311" on="0"/>
        <pt x="406" y="281" on="1"/>
        <pt x="299" y="246" on="0"/>
        <pt x="209" y="246" on="1"/>
        <pt x="241" y="166" on="0"/>
        <pt x="434" y="3" on="0"/>
        <pt x="497" y="3" on="1"/>
        <pt x="522" y="3" on="0"/>
        <pt x="560" y="27" on="0"/>
        <pt x="563" y="45" on="1"/>
        <pt x="563" y="50" on="0"/>
        <pt x="568" y="48" on="1"/>
        <pt x="570" y="45" on="0"/>
        <pt x="570" y="43" on="1"/>
        <pt x="562" y="-24" on="0"/>
        <pt x="456" y="-24" on="1"/>
        <pt x="395" y="-24" on="0"/>
        <pt x="263" y="40" on="0"/>
        <pt x="170" y="136" on="0"/>
        <pt x="143" y="187" on="1"/>
        <pt x="37" y="33" on="0"/>
        <pt x="12" y="-30" on="1"/>
        <pt x="6" y="-46" on="0"/>
        <pt x="-15" y="-46" on="0"/>
      </contour>
      <contour>
        <pt x="474" y="850" on="1"/>
        <pt x="471" y="850" on="0"/>
        <pt x="454" y="847" on="0"/>
        <pt x="454" y="860" on="0"/>
        <pt x="498" y="871" on="0"/>
        <pt x="549" y="871" on="0"/>
        <pt x="572" y="855" on="1"/>
        <pt x="609" y="830" on="0"/>
        <pt x="610" y="792" on="1"/>
        <pt x="649" y="824" on="0"/>
        <pt x="733" y="860" on="0"/>
        <pt x="761" y="860" on="1"/>
        <pt x="773" y="860" on="0"/>
        <pt x="773" y="853" on="0"/>
        <pt x="769" y="847" on="1"/>
        <pt x="764" y="840" on="0"/>
        <pt x="755" y="840" on="1"/>
        <pt x="729" y="840" on="0"/>
        <pt x="641" y="792" on="0"/>
        <pt x="600" y="759" on="1"/>
        <pt x="590" y="742" on="0"/>
        <pt x="535" y="697" on="0"/>
        <pt x="533" y="697" on="1"/>
        <pt x="529" y="697" on="0"/>
        <pt x="545" y="728" on="0"/>
        <pt x="545" y="745" on="1"/>
        <pt x="545" y="797" on="0"/>
        <pt x="516" y="828" on="1"/>
        <pt x="496" y="850" on="0"/>
      </contour>
    </TTGlyph>
    <TTGlyph name="Rcommaaccent" xMin="-16" yMin="-323" xMax="710" yMax="656">
      <contour>
        <pt x="-15" y="-37" on="1"/>
        <pt x="-15" y="11" on="0"/>
        <pt x="129" y="221" on="1"/>
        <pt x="124" y="239" on="0"/>
        <pt x="124" y="269" on="0"/>
        <pt x="174" y="309" on="0"/>
        <pt x="187" y="309" on="1"/>
        <pt x="189" y="309" on="0"/>
        <pt x="190" y="309" on="1"/>
        <pt x="249" y="390" on="0"/>
        <pt x="341" y="502" on="0"/>
        <pt x="357" y="502" on="0"/>
        <pt x="366" y="489" on="0"/>
        <pt x="366" y="482" on="1"/>
        <pt x="286" y="383" on="0"/>
        <pt x="202" y="268" on="1"/>
        <pt x="204" y="261" on="1"/>
        <pt x="240" y="264" on="1"/>
        <pt x="316" y="269" on="0"/>
        <pt x="494" y="328" on="0"/>
        <pt x="551" y="366" on="1"/>
        <pt x="669" y="446" on="0"/>
        <pt x="669" y="513" on="1"/>
        <pt x="669" y="542" on="0"/>
        <pt x="591" y="582" on="0"/>
        <pt x="425" y="582" on="0"/>
        <pt x="140" y="501" on="0"/>
        <pt x="84" y="453" on="1"/>
        <pt x="68" y="439" on="0"/>
        <pt x="77" y="423" on="0"/>
        <pt x="71" y="421" on="0"/>
        <pt x="65" y="425" on="1"/>
        <pt x="44" y="437" on="0"/>
        <pt x="33" y="473" on="0"/>
        <pt x="33" y="491" on="0"/>
        <pt x="38" y="495" on="1"/>
        <pt x="71" y="543" on="0"/>
        <pt x="300" y="628" on="0"/>
        <pt x="494" y="655" on="0"/>
        <pt x="587" y="655" on="0"/>
        <pt x="648" y="643" on="0"/>
        <pt x="672" y="622" on="1"/>
        <pt x="709" y="591" on="0"/>
        <pt x="709" y="535" on="1"/>
        <pt x="709" y="480" on="0"/>
        <pt x="627" y="386" on="0"/>
        <pt x="498" y="311" on="0"/>
        <pt x="406" y="281" on="1"/>
        <pt x="299" y="246" on="0"/>
        <pt x="209" y="246" on="1"/>
        <pt x="241" y="166" on="0"/>
        <pt x="434" y="3" on="0"/>
        <pt x="497" y="3" on="1"/>
        <pt x="522" y="3" on="0"/>
        <pt x="560" y="27" on="0"/>
        <pt x="563" y="45" on="1"/>
        <pt x="563" y="50" on="0"/>
        <pt x="568" y="48" on="1"/>
        <pt x="570" y="45" on="0"/>
        <pt x="570" y="43" on="1"/>
        <pt x="562" y="-24" on="0"/>
        <pt x="456" y="-24" on="1"/>
        <pt x="395" y="-24" on="0"/>
        <pt x="263" y="40" on="0"/>
        <pt x="170" y="136" on="0"/>
        <pt x="143" y="187" on="1"/>
        <pt x="37" y="33" on="0"/>
        <pt x="12" y="-30" on="1"/>
        <pt x="7" y="-44" on="0"/>
        <pt x="-15" y="-48" on="0"/>
      </contour>
      <contour>
        <pt x="164" y="-125" on="0"/>
        <pt x="181" y="-153" on="0"/>
        <pt x="181" y="-184" on="0"/>
        <pt x="153" y="-250" on="0"/>
        <pt x="73" y="-320" on="0"/>
        <pt x="30" y="-323" on="1"/>
        <pt x="24" y="-323" on="0"/>
        <pt x="23" y="-319" on="1"/>
        <pt x="25" y="-317" on="0"/>
        <pt x="27" y="-316" on="1"/>
        <pt x="71" y="-312" on="0"/>
        <pt x="143" y="-237" on="0"/>
        <pt x="149" y="-193" on="1"/>
        <pt x="144" y="-197" on="1"/>
        <pt x="119" y="-222" on="0"/>
        <pt x="93" y="-222" on="1"/>
        <pt x="81" y="-222" on="0"/>
        <pt x="66" y="-208" on="0"/>
        <pt x="66" y="-191" on="0"/>
        <pt x="72" y="-165" on="0"/>
        <pt x="91" y="-146" on="1"/>
        <pt x="113" y="-125" on="0"/>
      </contour>
    </TTGlyph>
    <TTGlyph name="S" xMin="-8" yMin="-41" xMax="831" yMax="650">
      <contour>
        <pt x="766" y="576" on="1"/>
        <pt x="758" y="589" on="0"/>
        <pt x="718" y="589" on="0"/>
        <pt x="683" y="579" on="0"/>
        <pt x="659" y="570" on="1"/>
        <pt x="620" y="554" on="0"/>
        <pt x="596" y="540" on="1"/>
        <pt x="506" y="492" on="0"/>
        <pt x="350" y="363" on="0"/>
        <pt x="346" y="331" on="1"/>
        <pt x="344" y="306" on="0"/>
        <pt x="373" y="290" on="1"/>
        <pt x="398" y="275" on="0"/>
        <pt x="464" y="248" on="0"/>
        <pt x="479" y="241" on="1"/>
        <pt x="559" y="201" on="0"/>
        <pt x="559" y="135" on="1"/>
        <pt x="559" y="106" on="0"/>
        <pt x="542" y="79" on="1"/>
        <pt x="515" y="37" on="0"/>
        <pt x="406" y="-18" on="0"/>
        <pt x="344" y="-29" on="1"/>
        <pt x="280" y="-40" on="0"/>
        <pt x="238" y="-40" on="1"/>
        <pt x="162" y="-40" on="0"/>
        <pt x="10" y="25" on="0"/>
        <pt x="-8" y="94" on="1"/>
        <pt x="29" y="61" on="0"/>
        <pt x="159" y="33" on="0"/>
        <pt x="218" y="33" on="1"/>
        <pt x="306" y="34" on="0"/>
        <pt x="391" y="60" on="0"/>
        <pt x="454" y="95" on="0"/>
        <pt x="507" y="142" on="0"/>
        <pt x="507" y="199" on="0"/>
        <pt x="469" y="222" on="1"/>
        <pt x="466" y="224" on="0"/>
        <pt x="351" y="270" on="0"/>
        <pt x="290" y="326" on="0"/>
        <pt x="290" y="362" on="1"/>
        <pt x="290" y="430" on="0"/>
        <pt x="458" y="571" on="0"/>
        <pt x="657" y="649" on="0"/>
        <pt x="727" y="649" on="1"/>
        <pt x="776" y="649" on="0"/>
        <pt x="830" y="614" on="0"/>
        <pt x="830" y="583" on="1"/>
        <pt x="830" y="579" on="0"/>
        <pt x="830" y="574" on="1"/>
        <pt x="827" y="543" on="0"/>
        <pt x="721" y="445" on="1"/>
        <pt x="682" y="409" on="0"/>
        <pt x="623" y="320" on="0"/>
        <pt x="623" y="286" on="1"/>
        <pt x="623" y="283" on="0"/>
        <pt x="623" y="280" on="1"/>
        <pt x="592" y="304" on="0"/>
        <pt x="592" y="344" on="1"/>
        <pt x="592" y="380" on="0"/>
        <pt x="623" y="432" on="1"/>
        <pt x="668" y="508" on="0"/>
      </contour>
    </TTGlyph>
    <TTGlyph name="Scaron" xMin="-8" yMin="-41" xMax="902" yMax="793">
      <contour>
        <pt x="833" y="757" on="0"/>
        <pt x="890" y="792" on="0"/>
        <pt x="901" y="792" on="0"/>
        <pt x="901" y="788" on="1"/>
        <pt x="901" y="774" on="0"/>
        <pt x="840" y="745" on="1"/>
        <pt x="741" y="700" on="0"/>
        <pt x="691" y="700" on="1"/>
        <pt x="619" y="700" on="0"/>
        <pt x="616" y="761" on="1"/>
        <pt x="616" y="767" on="0"/>
        <pt x="634" y="776" on="1"/>
        <pt x="661" y="789" on="0"/>
        <pt x="686" y="789" on="0"/>
        <pt x="688" y="785" on="1"/>
        <pt x="690" y="735" on="0"/>
        <pt x="741" y="735" on="1"/>
        <pt x="754" y="735" on="0"/>
      </contour>
      <contour>
        <pt x="766" y="576" on="1"/>
        <pt x="758" y="589" on="0"/>
        <pt x="718" y="589" on="0"/>
        <pt x="683" y="579" on="0"/>
        <pt x="659" y="570" on="1"/>
        <pt x="620" y="554" on="0"/>
        <pt x="596" y="540" on="1"/>
        <pt x="506" y="492" on="0"/>
        <pt x="350" y="363" on="0"/>
        <pt x="346" y="331" on="1"/>
        <pt x="344" y="306" on="0"/>
        <pt x="373" y="290" on="1"/>
        <pt x="398" y="275" on="0"/>
        <pt x="464" y="248" on="0"/>
        <pt x="479" y="241" on="1"/>
        <pt x="559" y="201" on="0"/>
        <pt x="559" y="135" on="1"/>
        <pt x="559" y="106" on="0"/>
        <pt x="542" y="79" on="1"/>
        <pt x="515" y="37" on="0"/>
        <pt x="406" y="-18" on="0"/>
        <pt x="344" y="-29" on="1"/>
        <pt x="280" y="-40" on="0"/>
        <pt x="238" y="-40" on="1"/>
        <pt x="162" y="-40" on="0"/>
        <pt x="10" y="25" on="0"/>
        <pt x="-8" y="94" on="1"/>
        <pt x="29" y="61" on="0"/>
        <pt x="159" y="33" on="0"/>
        <pt x="218" y="33" on="1"/>
        <pt x="306" y="34" on="0"/>
        <pt x="391" y="60" on="0"/>
        <pt x="454" y="95" on="0"/>
        <pt x="507" y="142" on="0"/>
        <pt x="507" y="199" on="0"/>
        <pt x="469" y="222" on="1"/>
        <pt x="466" y="224" on="0"/>
        <pt x="351" y="270" on="0"/>
        <pt x="290" y="326" on="0"/>
        <pt x="290" y="362" on="1"/>
        <pt x="290" y="430" on="0"/>
        <pt x="458" y="571" on="0"/>
        <pt x="657" y="649" on="0"/>
        <pt x="727" y="649" on="1"/>
        <pt x="776" y="649" on="0"/>
        <pt x="830" y="614" on="0"/>
        <pt x="830" y="583" on="1"/>
        <pt x="830" y="579" on="0"/>
        <pt x="830" y="574" on="1"/>
        <pt x="827" y="543" on="0"/>
        <pt x="721" y="445" on="1"/>
        <pt x="682" y="409" on="0"/>
        <pt x="623" y="320" on="0"/>
        <pt x="623" y="286" on="1"/>
        <pt x="623" y="283" on="0"/>
        <pt x="623" y="280" on="1"/>
        <pt x="592" y="304" on="0"/>
        <pt x="592" y="344" on="1"/>
        <pt x="592" y="380" on="0"/>
        <pt x="623" y="432" on="1"/>
        <pt x="668" y="508" on="0"/>
      </contour>
    </TTGlyph>
    <TTGlyph name="T" xMin="-18" yMin="-89" xMax="891" yMax="652">
      <contour>
        <pt x="860" y="507" on="1"/>
        <pt x="860" y="554" on="0"/>
        <pt x="750" y="572" on="1"/>
        <pt x="686" y="582" on="0"/>
        <pt x="521" y="582" on="0"/>
        <pt x="422" y="572" on="1"/>
        <pt x="176" y="547" on="0"/>
        <pt x="62" y="500" on="1"/>
        <pt x="-29" y="464" on="0"/>
        <pt x="14" y="421" on="1"/>
        <pt x="19" y="416" on="0"/>
        <pt x="5" y="416" on="0"/>
        <pt x="0" y="421" on="1"/>
        <pt x="-17" y="438" on="0"/>
        <pt x="-17" y="483" on="0"/>
        <pt x="2" y="524" on="0"/>
        <pt x="52" y="568" on="0"/>
        <pt x="87" y="582" on="1"/>
        <pt x="194" y="624" on="0"/>
        <pt x="336" y="642" on="1"/>
        <pt x="419" y="652" on="0"/>
        <pt x="482" y="652" on="1"/>
        <pt x="663" y="652" on="0"/>
        <pt x="782" y="606" on="1"/>
        <pt x="860" y="575" on="0"/>
        <pt x="880" y="540" on="1"/>
        <pt x="891" y="522" on="0"/>
        <pt x="891" y="486" on="0"/>
        <pt x="880" y="467" on="1"/>
        <pt x="867" y="449" on="0"/>
        <pt x="837" y="443" on="0"/>
        <pt x="838" y="451" on="1"/>
        <pt x="840" y="460" on="0"/>
        <pt x="860" y="492" on="0"/>
      </contour>
      <contour>
        <pt x="272" y="51" on="1"/>
        <pt x="265" y="6" on="0"/>
        <pt x="265" y="-11" on="1"/>
        <pt x="265" y="-67" on="0"/>
        <pt x="300" y="-76" on="1"/>
        <pt x="305" y="-78" on="0"/>
        <pt x="311" y="-78" on="1"/>
        <pt x="338" y="-67" on="1"/>
        <pt x="346" y="-60" on="0"/>
        <pt x="346" y="-70" on="0"/>
        <pt x="340" y="-74" on="1"/>
        <pt x="324" y="-88" on="0"/>
        <pt x="298" y="-88" on="1"/>
        <pt x="293" y="-88" on="0"/>
        <pt x="288" y="-88" on="1"/>
        <pt x="199" y="-81" on="0"/>
        <pt x="199" y="14" on="1"/>
        <pt x="199" y="66" on="0"/>
        <pt x="245" y="198" on="0"/>
        <pt x="335" y="335" on="0"/>
        <pt x="486" y="547" on="1"/>
        <pt x="498" y="563" on="0"/>
        <pt x="511" y="563" on="0"/>
        <pt x="517" y="557" on="0"/>
        <pt x="517" y="551" on="0"/>
        <pt x="516" y="549" on="1"/>
        <pt x="303" y="232" on="0"/>
      </contour>
    </TTGlyph>
    <TTGlyph name="Thorn" xMin="-16" yMin="-236" xMax="726" yMax="636">
      <contour>
        <pt x="436" y="457" on="1"/>
        <pt x="490" y="464" on="0"/>
        <pt x="572" y="464" on="0"/>
        <pt x="665" y="438" on="0"/>
        <pt x="692" y="408" on="1"/>
        <pt x="726" y="369" on="0"/>
        <pt x="726" y="314" on="1"/>
        <pt x="726" y="240" on="0"/>
        <pt x="660" y="165" on="1"/>
        <pt x="622" y="122" on="0"/>
        <pt x="568" y="90" on="1"/>
        <pt x="485" y="42" on="0"/>
        <pt x="251" y="-30" on="0"/>
        <pt x="168" y="-30" on="1"/>
        <pt x="146" y="-30" on="0"/>
        <pt x="125" y="-28" on="1"/>
        <pt x="35" y="-161" on="0"/>
        <pt x="12" y="-219" on="1"/>
        <pt x="6" y="-236" on="0"/>
        <pt x="-8" y="-236" on="1"/>
        <pt x="-15" y="-236" on="0"/>
        <pt x="-15" y="-226" on="1"/>
        <pt x="-15" y="-187" on="0"/>
        <pt x="92" y="-23" on="1"/>
        <pt x="52" y="-13" on="0"/>
        <pt x="26" y="8" on="1"/>
        <pt x="-4" y="32" on="0"/>
        <pt x="-4" y="84" on="0"/>
        <pt x="14" y="101" on="1"/>
        <pt x="22" y="108" on="0"/>
        <pt x="23" y="97" on="0"/>
        <pt x="11" y="80" on="0"/>
        <pt x="11" y="71" on="1"/>
        <pt x="11" y="10" on="0"/>
        <pt x="102" y="-8" on="1"/>
        <pt x="136" y="43" on="0"/>
        <pt x="310" y="316" on="0"/>
        <pt x="344" y="368" on="1"/>
        <pt x="154" y="323" on="0"/>
        <pt x="84" y="263" on="1"/>
        <pt x="67" y="250" on="0"/>
        <pt x="77" y="233" on="0"/>
        <pt x="71" y="231" on="0"/>
        <pt x="66" y="235" on="1"/>
        <pt x="45" y="248" on="0"/>
        <pt x="33" y="284" on="0"/>
        <pt x="33" y="301" on="0"/>
        <pt x="38" y="306" on="1"/>
        <pt x="69" y="352" on="0"/>
        <pt x="277" y="431" on="0"/>
        <pt x="399" y="451" on="1"/>
        <pt x="521" y="635" on="0"/>
        <pt x="528" y="635" on="1"/>
        <pt x="532" y="635" on="0"/>
        <pt x="540" y="617" on="0"/>
        <pt x="539" y="613" on="1"/>
        <pt x="493" y="546" on="0"/>
      </contour>
      <contour>
        <pt x="158" y="-13" on="1"/>
        <pt x="247" y="-13" on="0"/>
        <pt x="491" y="67" on="0"/>
        <pt x="617" y="152" on="0"/>
        <pt x="677" y="239" on="0"/>
        <pt x="677" y="313" on="0"/>
        <pt x="654" y="342" on="1"/>
        <pt x="614" y="392" on="0"/>
        <pt x="510" y="392" on="1"/>
        <pt x="450" y="392" on="0"/>
        <pt x="386" y="377" on="1"/>
        <pt x="177" y="44" on="0"/>
        <pt x="137" y="-12" on="1"/>
        <pt x="147" y="-13" on="0"/>
      </contour>
    </TTGlyph>
    <TTGlyph name="U" xMin="4" yMin="-125" xMax="843" yMax="671">
      <contour>
        <pt x="821" y="573" on="1"/>
        <pt x="842" y="573" on="0"/>
        <pt x="842" y="564" on="1"/>
        <pt x="842" y="561" on="0"/>
        <pt x="839" y="558" on="1"/>
        <pt x="747" y="469" on="0"/>
        <pt x="604" y="192" on="1"/>
        <pt x="516" y="23" on="0"/>
        <pt x="516" y="-51" on="1"/>
        <pt x="516" y="-98" on="0"/>
        <pt x="552" y="-107" on="1"/>
        <pt x="556" y="-108" on="0"/>
        <pt x="573" y="-108" on="0"/>
        <pt x="588" y="-94" on="0"/>
        <pt x="591" y="-101" on="0"/>
        <pt x="585" y="-105" on="1"/>
        <pt x="562" y="-125" on="0"/>
        <pt x="538" y="-125" on="1"/>
        <pt x="452" y="-125" on="0"/>
        <pt x="452" y="-49" on="1"/>
        <pt x="452" y="18" on="0"/>
        <pt x="520" y="146" on="1"/>
        <pt x="418" y="13" on="0"/>
        <pt x="332" y="-29" on="1"/>
        <pt x="303" y="-43" on="0"/>
        <pt x="250" y="-43" on="0"/>
        <pt x="228" y="-22" on="1"/>
        <pt x="194" y="7" on="0"/>
        <pt x="194" y="53" on="1"/>
        <pt x="194" y="112" on="0"/>
        <pt x="289" y="318" on="0"/>
        <pt x="332" y="404" on="1"/>
        <pt x="387" y="515" on="0"/>
        <pt x="387" y="564" on="1"/>
        <pt x="387" y="626" on="0"/>
        <pt x="314" y="626" on="1"/>
        <pt x="229" y="626" on="0"/>
        <pt x="103" y="558" on="1"/>
        <pt x="65" y="538" on="0"/>
        <pt x="35" y="514" on="0"/>
        <pt x="28" y="514" on="1"/>
        <pt x="17" y="514" on="0"/>
        <pt x="4" y="544" on="0"/>
        <pt x="4" y="574" on="0"/>
        <pt x="19" y="597" on="0"/>
        <pt x="25" y="602" on="1"/>
        <pt x="72" y="640" on="0"/>
        <pt x="191" y="660" on="1"/>
        <pt x="251" y="671" on="0"/>
        <pt x="375" y="671" on="0"/>
        <pt x="468" y="619" on="0"/>
        <pt x="468" y="568" on="1"/>
        <pt x="468" y="556" on="0"/>
        <pt x="465" y="542" on="1"/>
        <pt x="455" y="493" on="0"/>
        <pt x="265" y="146" on="0"/>
        <pt x="246" y="88" on="1"/>
        <pt x="235" y="56" on="0"/>
        <pt x="235" y="9" on="0"/>
        <pt x="256" y="-21" on="0"/>
        <pt x="278" y="-21" on="1"/>
        <pt x="347" y="-21" on="0"/>
        <pt x="458" y="102" on="1"/>
        <pt x="524" y="177" on="0"/>
        <pt x="616" y="314" on="0"/>
        <pt x="738" y="506" on="0"/>
        <pt x="785" y="573" on="0"/>
      </contour>
    </TTGlyph>
    <TTGlyph name="Uacute" xMin="19" yMin="-186" xMax="799" yMax="677">
      <contour>
        <pt x="799" y="643" on="1"/>
        <pt x="799" y="630" on="0"/>
        <pt x="754" y="592" on="0"/>
        <pt x="646" y="554" on="0"/>
        <pt x="584" y="552" on="1"/>
        <pt x="557" y="550" on="0"/>
        <pt x="555" y="558" on="1"/>
        <pt x="554" y="560" on="0"/>
        <pt x="559" y="562" on="1"/>
        <pt x="571" y="564" on="1"/>
        <pt x="623" y="568" on="0"/>
        <pt x="739" y="642" on="0"/>
        <pt x="739" y="665" on="1"/>
        <pt x="739" y="669" on="0"/>
        <pt x="735" y="676" on="0"/>
        <pt x="742" y="676" on="0"/>
        <pt x="781" y="663" on="0"/>
        <pt x="797" y="649" on="1"/>
        <pt x="799" y="646" on="0"/>
      </contour>
      <contour>
        <pt x="770" y="452" on="1"/>
        <pt x="588" y="134" on="0"/>
        <pt x="576" y="-58" on="1"/>
        <pt x="574" y="-81" on="0"/>
        <pt x="574" y="-118" on="0"/>
        <pt x="584" y="-143" on="1"/>
        <pt x="596" y="-174" on="0"/>
        <pt x="628" y="-174" on="1"/>
        <pt x="643" y="-174" on="0"/>
        <pt x="662" y="-157" on="0"/>
        <pt x="663" y="-166" on="0"/>
        <pt x="657" y="-171" on="1"/>
        <pt x="642" y="-185" on="0"/>
        <pt x="613" y="-185" on="1"/>
        <pt x="610" y="-185" on="0"/>
        <pt x="606" y="-185" on="1"/>
        <pt x="505" y="-177" on="0"/>
        <pt x="505" y="-61" on="1"/>
        <pt x="505" y="-15" on="0"/>
        <pt x="521" y="49" on="1"/>
        <pt x="532" y="87" on="0"/>
        <pt x="563" y="146" on="1"/>
        <pt x="461" y="13" on="0"/>
        <pt x="375" y="-29" on="1"/>
        <pt x="344" y="-43" on="0"/>
        <pt x="296" y="-43" on="0"/>
        <pt x="260" y="-4" on="0"/>
        <pt x="260" y="47" on="0"/>
        <pt x="275" y="112" on="0"/>
        <pt x="334" y="268" on="1"/>
        <pt x="408" y="463" on="0"/>
        <pt x="408" y="511" on="1"/>
        <pt x="408" y="578" on="0"/>
        <pt x="234" y="578" on="0"/>
        <pt x="117" y="520" on="1"/>
        <pt x="79" y="502" on="0"/>
        <pt x="50" y="478" on="0"/>
        <pt x="43" y="478" on="1"/>
        <pt x="32" y="478" on="0"/>
        <pt x="19" y="508" on="0"/>
        <pt x="19" y="537" on="0"/>
        <pt x="34" y="561" on="0"/>
        <pt x="40" y="566" on="1"/>
        <pt x="87" y="604" on="0"/>
        <pt x="206" y="624" on="1"/>
        <pt x="266" y="635" on="0"/>
        <pt x="390" y="635" on="0"/>
        <pt x="483" y="583" on="0"/>
        <pt x="483" y="532" on="1"/>
        <pt x="483" y="520" on="0"/>
        <pt x="480" y="506" on="1"/>
        <pt x="470" y="456" on="0"/>
        <pt x="308" y="145" on="0"/>
        <pt x="278" y="56" on="0"/>
        <pt x="278" y="9" on="0"/>
        <pt x="299" y="-21" on="0"/>
        <pt x="343" y="-21" on="0"/>
        <pt x="417" y="18" on="0"/>
        <pt x="496" y="89" on="0"/>
        <pt x="552" y="154" on="0"/>
        <pt x="627" y="261" on="0"/>
        <pt x="644" y="290" on="1"/>
        <pt x="713" y="402" on="0"/>
        <pt x="741" y="450" on="1"/>
        <pt x="751" y="467" on="0"/>
        <pt x="764" y="467" on="0"/>
        <pt x="771" y="460" on="0"/>
        <pt x="771" y="454" on="0"/>
      </contour>
    </TTGlyph>
    <TTGlyph name="Ucircumflex" xMin="19" yMin="-186" xMax="802" yMax="725">
      <contour>
        <pt x="770" y="452" on="1"/>
        <pt x="588" y="134" on="0"/>
        <pt x="576" y="-58" on="1"/>
        <pt x="574" y="-81" on="0"/>
        <pt x="574" y="-118" on="0"/>
        <pt x="584" y="-143" on="1"/>
        <pt x="596" y="-174" on="0"/>
        <pt x="628" y="-174" on="1"/>
        <pt x="643" y="-174" on="0"/>
        <pt x="662" y="-157" on="0"/>
        <pt x="663" y="-166" on="0"/>
        <pt x="657" y="-171" on="1"/>
        <pt x="642" y="-185" on="0"/>
        <pt x="613" y="-185" on="1"/>
        <pt x="610" y="-185" on="0"/>
        <pt x="606" y="-185" on="1"/>
        <pt x="505" y="-177" on="0"/>
        <pt x="505" y="-61" on="1"/>
        <pt x="505" y="-15" on="0"/>
        <pt x="521" y="49" on="1"/>
        <pt x="532" y="87" on="0"/>
        <pt x="563" y="146" on="1"/>
        <pt x="461" y="13" on="0"/>
        <pt x="375" y="-29" on="1"/>
        <pt x="344" y="-43" on="0"/>
        <pt x="296" y="-43" on="0"/>
        <pt x="260" y="-4" on="0"/>
        <pt x="260" y="47" on="0"/>
        <pt x="275" y="112" on="0"/>
        <pt x="334" y="268" on="1"/>
        <pt x="408" y="463" on="0"/>
        <pt x="408" y="511" on="1"/>
        <pt x="408" y="578" on="0"/>
        <pt x="234" y="578" on="0"/>
        <pt x="117" y="520" on="1"/>
        <pt x="79" y="502" on="0"/>
        <pt x="50" y="478" on="0"/>
        <pt x="43" y="478" on="1"/>
        <pt x="32" y="478" on="0"/>
        <pt x="19" y="508" on="0"/>
        <pt x="19" y="537" on="0"/>
        <pt x="34" y="561" on="0"/>
        <pt x="40" y="566" on="1"/>
        <pt x="87" y="604" on="0"/>
        <pt x="206" y="624" on="1"/>
        <pt x="266" y="635" on="0"/>
        <pt x="390" y="635" on="0"/>
        <pt x="483" y="583" on="0"/>
        <pt x="483" y="532" on="1"/>
        <pt x="483" y="520" on="0"/>
        <pt x="480" y="506" on="1"/>
        <pt x="470" y="456" on="0"/>
        <pt x="308" y="145" on="0"/>
        <pt x="278" y="56" on="0"/>
        <pt x="278" y="9" on="0"/>
        <pt x="299" y="-21" on="0"/>
        <pt x="343" y="-21" on="0"/>
        <pt x="417" y="18" on="0"/>
        <pt x="496" y="89" on="0"/>
        <pt x="552" y="154" on="0"/>
        <pt x="627" y="261" on="0"/>
        <pt x="644" y="290" on="1"/>
        <pt x="713" y="402" on="0"/>
        <pt x="741" y="450" on="1"/>
        <pt x="751" y="467" on="0"/>
        <pt x="764" y="467" on="0"/>
        <pt x="773" y="458" on="0"/>
      </contour>
      <contour>
        <pt x="667" y="643" on="1"/>
        <pt x="634" y="615" on="0"/>
        <pt x="560" y="583" on="0"/>
        <pt x="526" y="583" on="0"/>
        <pt x="526" y="590" on="0"/>
        <pt x="534" y="602" on="0"/>
        <pt x="541" y="601" on="0"/>
        <pt x="542" y="601" on="1"/>
        <pt x="563" y="601" on="0"/>
        <pt x="638" y="640" on="0"/>
        <pt x="673" y="668" on="1"/>
        <pt x="687" y="688" on="0"/>
        <pt x="732" y="724" on="0"/>
        <pt x="734" y="724" on="1"/>
        <pt x="736" y="724" on="0"/>
        <pt x="721" y="699" on="0"/>
        <pt x="721" y="656" on="0"/>
        <pt x="732" y="634" on="1"/>
        <pt x="752" y="593" on="0"/>
        <pt x="783" y="593" on="1"/>
        <pt x="786" y="593" on="0"/>
        <pt x="801" y="595" on="0"/>
        <pt x="801" y="591" on="1"/>
        <pt x="801" y="585" on="0"/>
        <pt x="763" y="574" on="0"/>
        <pt x="718" y="574" on="0"/>
        <pt x="698" y="588" on="1"/>
        <pt x="667" y="610" on="0"/>
      </contour>
    </TTGlyph>
    <TTGlyph name="Udieresis" xMin="19" yMin="-186" xMax="772" yMax="656">
      <contour>
        <pt x="691" y="622" on="0"/>
        <pt x="715" y="650" on="0"/>
        <pt x="735" y="655" on="0"/>
        <pt x="748" y="655" on="0"/>
        <pt x="765" y="643" on="0"/>
        <pt x="762" y="611" on="0"/>
        <pt x="737" y="584" on="0"/>
        <pt x="707" y="577" on="0"/>
        <pt x="687" y="593" on="0"/>
      </contour>
      <contour>
        <pt x="569" y="622" on="0"/>
        <pt x="593" y="650" on="0"/>
        <pt x="613" y="655" on="0"/>
        <pt x="626" y="655" on="0"/>
        <pt x="643" y="643" on="0"/>
        <pt x="640" y="611" on="0"/>
        <pt x="616" y="584" on="0"/>
        <pt x="585" y="577" on="0"/>
        <pt x="565" y="593" on="0"/>
      </contour>
      <contour>
        <pt x="770" y="452" on="1"/>
        <pt x="588" y="134" on="0"/>
        <pt x="576" y="-58" on="1"/>
        <pt x="574" y="-81" on="0"/>
        <pt x="574" y="-118" on="0"/>
        <pt x="584" y="-143" on="1"/>
        <pt x="596" y="-174" on="0"/>
        <pt x="628" y="-174" on="1"/>
        <pt x="643" y="-174" on="0"/>
        <pt x="662" y="-157" on="0"/>
        <pt x="663" y="-166" on="0"/>
        <pt x="657" y="-171" on="1"/>
        <pt x="642" y="-185" on="0"/>
        <pt x="613" y="-185" on="1"/>
        <pt x="610" y="-185" on="0"/>
        <pt x="606" y="-185" on="1"/>
        <pt x="505" y="-177" on="0"/>
        <pt x="505" y="-61" on="1"/>
        <pt x="505" y="-15" on="0"/>
        <pt x="521" y="49" on="1"/>
        <pt x="532" y="87" on="0"/>
        <pt x="563" y="146" on="1"/>
        <pt x="461" y="13" on="0"/>
        <pt x="375" y="-29" on="1"/>
        <pt x="344" y="-43" on="0"/>
        <pt x="296" y="-43" on="0"/>
        <pt x="260" y="-4" on="0"/>
        <pt x="260" y="47" on="0"/>
        <pt x="275" y="112" on="0"/>
        <pt x="334" y="268" on="1"/>
        <pt x="408" y="463" on="0"/>
        <pt x="408" y="511" on="1"/>
        <pt x="408" y="578" on="0"/>
        <pt x="234" y="578" on="0"/>
        <pt x="117" y="520" on="1"/>
        <pt x="79" y="502" on="0"/>
        <pt x="50" y="478" on="0"/>
        <pt x="43" y="478" on="1"/>
        <pt x="32" y="478" on="0"/>
        <pt x="19" y="508" on="0"/>
        <pt x="19" y="537" on="0"/>
        <pt x="34" y="561" on="0"/>
        <pt x="40" y="566" on="1"/>
        <pt x="87" y="604" on="0"/>
        <pt x="206" y="624" on="1"/>
        <pt x="266" y="635" on="0"/>
        <pt x="390" y="635" on="0"/>
        <pt x="483" y="583" on="0"/>
        <pt x="483" y="532" on="1"/>
        <pt x="483" y="520" on="0"/>
        <pt x="480" y="506" on="1"/>
        <pt x="470" y="456" on="0"/>
        <pt x="308" y="145" on="0"/>
        <pt x="278" y="56" on="0"/>
        <pt x="278" y="9" on="0"/>
        <pt x="299" y="-21" on="0"/>
        <pt x="343" y="-21" on="0"/>
        <pt x="417" y="18" on="0"/>
        <pt x="496" y="89" on="0"/>
        <pt x="552" y="154" on="0"/>
        <pt x="627" y="261" on="0"/>
        <pt x="644" y="290" on="1"/>
        <pt x="713" y="402" on="0"/>
        <pt x="741" y="450" on="1"/>
        <pt x="751" y="467" on="0"/>
        <pt x="764" y="467" on="0"/>
        <pt x="771" y="460" on="0"/>
        <pt x="771" y="454" on="0"/>
      </contour>
    </TTGlyph>
    <TTGlyph name="Ugrave" xMin="19" yMin="-186" xMax="772" yMax="678">
      <contour>
        <pt x="659" y="564" on="0"/>
        <pt x="568" y="605" on="0"/>
        <pt x="535" y="641" on="0"/>
        <pt x="535" y="655" on="0"/>
        <pt x="543" y="667" on="0"/>
        <pt x="586" y="678" on="0"/>
        <pt x="594" y="678" on="0"/>
        <pt x="590" y="670" on="0"/>
        <pt x="590" y="665" on="1"/>
        <pt x="590" y="645" on="0"/>
        <pt x="680" y="574" on="0"/>
        <pt x="726" y="567" on="1"/>
        <pt x="738" y="565" on="0"/>
        <pt x="739" y="562" on="1"/>
        <pt x="741" y="555" on="0"/>
        <pt x="713" y="557" on="1"/>
      </contour>
      <contour>
        <pt x="770" y="452" on="1"/>
        <pt x="588" y="134" on="0"/>
        <pt x="576" y="-58" on="1"/>
        <pt x="574" y="-81" on="0"/>
        <pt x="574" y="-118" on="0"/>
        <pt x="584" y="-143" on="1"/>
        <pt x="596" y="-174" on="0"/>
        <pt x="628" y="-174" on="1"/>
        <pt x="643" y="-174" on="0"/>
        <pt x="662" y="-157" on="0"/>
        <pt x="663" y="-166" on="0"/>
        <pt x="657" y="-171" on="1"/>
        <pt x="642" y="-185" on="0"/>
        <pt x="613" y="-185" on="1"/>
        <pt x="610" y="-185" on="0"/>
        <pt x="606" y="-185" on="1"/>
        <pt x="505" y="-177" on="0"/>
        <pt x="505" y="-61" on="1"/>
        <pt x="505" y="-15" on="0"/>
        <pt x="521" y="49" on="1"/>
        <pt x="532" y="87" on="0"/>
        <pt x="563" y="146" on="1"/>
        <pt x="461" y="13" on="0"/>
        <pt x="375" y="-29" on="1"/>
        <pt x="344" y="-43" on="0"/>
        <pt x="296" y="-43" on="0"/>
        <pt x="260" y="-4" on="0"/>
        <pt x="260" y="47" on="0"/>
        <pt x="275" y="112" on="0"/>
        <pt x="334" y="268" on="1"/>
        <pt x="408" y="463" on="0"/>
        <pt x="408" y="511" on="1"/>
        <pt x="408" y="578" on="0"/>
        <pt x="234" y="578" on="0"/>
        <pt x="117" y="520" on="1"/>
        <pt x="79" y="502" on="0"/>
        <pt x="50" y="478" on="0"/>
        <pt x="43" y="478" on="1"/>
        <pt x="32" y="478" on="0"/>
        <pt x="19" y="508" on="0"/>
        <pt x="19" y="537" on="0"/>
        <pt x="34" y="561" on="0"/>
        <pt x="40" y="566" on="1"/>
        <pt x="87" y="604" on="0"/>
        <pt x="206" y="624" on="1"/>
        <pt x="266" y="635" on="0"/>
        <pt x="390" y="635" on="0"/>
        <pt x="483" y="583" on="0"/>
        <pt x="483" y="532" on="1"/>
        <pt x="483" y="520" on="0"/>
        <pt x="480" y="506" on="1"/>
        <pt x="470" y="456" on="0"/>
        <pt x="308" y="145" on="0"/>
        <pt x="278" y="56" on="0"/>
        <pt x="278" y="9" on="0"/>
        <pt x="299" y="-21" on="0"/>
        <pt x="343" y="-21" on="0"/>
        <pt x="417" y="18" on="0"/>
        <pt x="496" y="89" on="0"/>
        <pt x="552" y="154" on="0"/>
        <pt x="627" y="261" on="0"/>
        <pt x="644" y="290" on="1"/>
        <pt x="713" y="402" on="0"/>
        <pt x="741" y="450" on="1"/>
        <pt x="751" y="467" on="0"/>
        <pt x="764" y="467" on="0"/>
        <pt x="771" y="460" on="0"/>
        <pt x="771" y="454" on="0"/>
      </contour>
    </TTGlyph>
</ttFont>
